{"glyphs":{"0":{"ha":833,"x_min":72,"x_max":761,"o":"m 417 -12 q 227 45 304 -12 q 111 215 150 103 q 72 490 72 326 q 111 766 72 654 q 227 935 150 878 q 417 992 304 992 q 607 935 531 992 q 722 767 683 878 q 761 492 761 656 q 722 215 761 328 q 606 45 683 103 q 417 -12 529 -12 m 417 90 q 588 188 532 90 q 643 492 643 286 q 588 793 643 697 q 417 889 533 889 q 246 792 301 889 q 190 490 190 696 q 246 188 190 286 q 417 90 301 90 z "},"1":{"ha":833,"x_min":146,"x_max":742,"o":"m 150 0 l 150 101 l 396 101 l 396 881 l 458 876 l 199 710 l 146 800 l 428 979 l 514 979 l 514 101 l 742 101 l 742 0 l 150 0 z "},"2":{"ha":833,"x_min":85,"x_max":750,"o":"m 119 0 l 119 89 l 458 450 q 536 547 507 503 q 578 632 565 590 q 590 717 590 674 q 540 843 590 799 q 393 888 489 888 q 256 860 322 888 q 131 775 189 833 l 85 868 q 227 958 143 925 q 403 992 311 992 q 569 960 500 992 q 674 868 638 928 q 710 725 710 808 q 699 639 710 681 q 668 556 689 597 q 615 470 647 514 q 538 381 582 426 l 254 83 l 254 103 l 750 103 l 750 0 l 119 0 z "},"3":{"ha":833,"x_min":72,"x_max":738,"o":"m 404 -12 q 281 1 342 -12 q 167 40 221 14 q 72 104 114 65 l 117 197 q 254 117 183 142 q 403 92 325 92 q 518 112 469 92 q 594 172 567 132 q 621 271 621 211 q 564 401 621 357 q 397 446 507 446 l 251 446 l 251 547 l 383 547 q 494 569 447 547 q 568 631 542 590 q 594 731 594 672 q 543 848 594 808 q 403 888 492 888 q 260 861 328 888 q 133 775 192 835 l 89 868 q 231 960 146 928 q 408 992 317 992 q 570 962 503 992 q 674 876 638 932 q 711 740 711 819 q 663 589 711 653 q 531 500 614 525 l 531 508 q 640 465 594 497 q 712 382 686 432 q 738 265 738 332 q 697 117 738 179 q 581 21 656 54 q 404 -12 506 -12 z "},"4":{"ha":833,"x_min":72,"x_max":783,"o":"m 526 0 l 526 207 l 72 207 l 72 296 l 533 979 l 643 979 l 643 307 l 783 307 l 783 207 l 643 207 l 643 0 l 526 0 m 528 307 l 528 833 l 549 833 l 175 281 l 169 307 l 528 307 z "},"5":{"ha":833,"x_min":107,"x_max":767,"o":"m 433 -12 q 310 1 369 -12 q 199 42 250 15 q 107 106 147 68 l 153 200 q 286 118 218 144 q 432 92 354 92 q 592 147 535 92 q 650 297 650 203 q 595 453 650 393 q 444 513 540 513 q 324 485 376 513 q 228 397 271 458 l 138 397 l 138 979 l 714 979 l 714 876 l 250 876 l 250 499 l 231 499 q 327 583 267 551 q 464 614 388 614 q 625 575 557 614 q 730 467 693 536 q 767 304 767 397 q 726 138 767 208 q 610 27 685 67 q 433 -12 536 -12 z "},"6":{"ha":833,"x_min":85,"x_max":763,"o":"m 450 -12 q 252 44 333 -12 q 128 208 171 101 q 85 467 85 315 q 132 753 85 636 q 268 931 179 869 q 482 992 357 992 q 585 978 535 992 q 681 938 636 964 q 761 874 726 911 l 717 782 q 604 863 664 838 q 481 888 544 888 q 360 862 413 888 q 271 785 307 836 q 217 660 235 735 q 199 486 199 585 l 199 381 l 192 381 q 240 506 203 453 q 336 587 278 558 q 464 615 394 615 q 619 576 551 615 q 724 467 686 536 q 763 306 763 397 q 723 142 763 214 q 613 28 683 69 q 450 -12 542 -12 m 443 89 q 551 115 504 89 q 624 190 597 142 q 650 303 650 239 q 624 413 650 365 q 551 488 597 461 q 443 515 504 515 q 334 488 381 515 q 261 413 288 461 q 235 303 235 365 q 261 190 235 239 q 334 115 288 142 q 443 89 381 89 z "},"7":{"ha":833,"x_min":92,"x_max":742,"o":"m 156 0 l 636 929 l 639 875 l 92 875 l 92 979 l 742 979 l 742 890 l 286 0 l 156 0 z "},"8":{"ha":833,"x_min":65,"x_max":768,"o":"m 417 -12 q 158 59 251 -12 q 65 258 65 131 q 92 378 65 326 q 168 463 119 429 q 279 506 217 496 l 279 494 q 181 542 224 508 q 113 624 138 575 q 89 731 89 672 q 178 922 89 853 q 417 992 267 992 q 656 922 567 992 q 744 731 744 853 q 720 623 744 672 q 653 541 696 574 q 554 494 611 508 l 554 506 q 665 463 617 496 q 740 378 713 429 q 768 258 768 326 q 675 59 768 131 q 417 -12 582 -12 m 417 86 q 594 132 533 86 q 654 267 654 178 q 594 401 654 356 q 417 447 533 447 q 240 401 301 447 q 179 267 179 356 q 240 132 179 178 q 417 86 301 86 m 417 546 q 575 592 518 546 q 632 721 632 639 q 575 847 632 801 q 417 893 518 893 q 260 847 317 893 q 203 721 203 801 q 260 592 203 639 q 417 546 317 546 z "},"9":{"ha":833,"x_min":71,"x_max":749,"o":"m 353 -12 q 249 1 300 -12 q 153 40 199 14 q 72 104 108 67 l 118 196 q 231 116 171 140 q 354 92 290 92 q 474 117 422 92 q 563 194 526 143 q 617 320 599 244 q 636 493 636 396 l 636 599 l 642 599 q 593 474 631 528 q 498 393 556 421 q 369 365 440 365 q 215 404 282 365 q 109 513 147 443 q 71 674 71 583 q 111 838 71 767 q 222 951 151 910 q 383 992 293 992 q 583 935 501 992 q 706 772 664 879 q 749 513 749 665 q 701 227 749 344 q 566 49 654 110 q 353 -12 478 -12 m 392 465 q 500 492 453 465 q 574 567 547 518 q 600 678 600 615 q 574 790 600 742 q 501 865 547 838 q 390 892 454 892 q 283 864 329 892 q 210 788 236 836 q 185 678 185 740 q 211 566 185 614 q 284 492 238 518 q 392 465 331 465 z "},"A":{"ha":1038,"x_min":36,"x_max":1001,"o":"m 36 0 l 467 979 l 571 979 l 1001 0 l 878 0 l 758 279 l 817 244 l 219 244 l 278 279 l 158 0 l 36 0 m 517 842 l 294 319 l 261 346 l 775 346 l 742 319 l 521 842 l 517 842 z "},"Á":{"ha":1038,"x_min":36,"x_max":1001,"o":"m 36 0 l 467 979 l 571 979 l 1001 0 l 878 0 l 758 279 l 817 244 l 219 244 l 278 279 l 158 0 l 36 0 m 517 842 l 294 319 l 261 346 l 775 346 l 742 319 l 521 842 l 517 842 m 472 1063 l 636 1301 l 774 1301 l 567 1063 l 472 1063 z "},"Ă":{"ha":1038,"x_min":36,"x_max":1001,"o":"m 36 0 l 467 979 l 571 979 l 1001 0 l 878 0 l 758 279 l 817 244 l 219 244 l 278 279 l 158 0 l 36 0 m 517 842 l 294 319 l 261 346 l 775 346 l 742 319 l 521 842 l 517 842 m 519 1056 q 356 1119 421 1056 q 282 1292 290 1182 l 358 1301 q 407 1182 365 1225 q 519 1139 449 1139 q 633 1183 590 1139 q 681 1301 675 1226 l 758 1292 q 684 1119 749 1182 q 519 1056 619 1056 z "},"Ắ":{"ha":1038,"x_min":36,"x_max":1001,"o":"m 36 0 l 467 979 l 571 979 l 1001 0 l 878 0 l 758 279 l 817 244 l 219 244 l 278 279 l 158 0 l 36 0 m 517 842 l 294 319 l 261 346 l 775 346 l 742 319 l 521 842 l 517 842 m 519 1058 q 363 1115 422 1058 q 297 1269 304 1172 l 368 1278 q 415 1173 376 1210 q 519 1136 454 1136 q 625 1173 586 1136 q 671 1278 664 1210 l 742 1269 q 676 1115 736 1172 q 519 1058 617 1058 m 469 1225 l 589 1422 l 717 1422 l 553 1225 l 469 1225 z "},"Ặ":{"ha":1038,"x_min":36,"x_max":1001,"o":"m 36 0 l 467 979 l 571 979 l 1001 0 l 878 0 l 758 279 l 817 244 l 219 244 l 278 279 l 158 0 l 36 0 m 517 842 l 294 319 l 261 346 l 775 346 l 742 319 l 521 842 l 517 842 m 454 -262 l 454 -136 l 585 -136 l 585 -262 l 454 -262 m 519 1056 q 356 1119 421 1056 q 282 1292 290 1182 l 358 1301 q 407 1182 365 1225 q 519 1139 449 1139 q 633 1183 590 1139 q 681 1301 675 1226 l 758 1292 q 684 1119 749 1182 q 519 1056 619 1056 z "},"Ằ":{"ha":1038,"x_min":36,"x_max":1001,"o":"m 36 0 l 467 979 l 571 979 l 1001 0 l 878 0 l 758 279 l 817 244 l 219 244 l 278 279 l 158 0 l 36 0 m 517 842 l 294 319 l 261 346 l 775 346 l 742 319 l 521 842 l 517 842 m 519 1058 q 363 1115 422 1058 q 297 1269 304 1172 l 368 1278 q 415 1173 376 1210 q 519 1136 454 1136 q 625 1173 586 1136 q 671 1278 664 1210 l 742 1269 q 676 1115 736 1172 q 519 1058 617 1058 m 488 1225 l 328 1422 l 453 1422 l 571 1225 l 488 1225 z "},"Ẳ":{"ha":1038,"x_min":36,"x_max":1001,"o":"m 36 0 l 467 979 l 571 979 l 1001 0 l 878 0 l 758 279 l 817 244 l 219 244 l 278 279 l 158 0 l 36 0 m 517 842 l 294 319 l 261 346 l 775 346 l 742 319 l 521 842 l 517 842 m 519 1058 q 363 1115 422 1058 q 297 1269 304 1172 l 368 1278 q 415 1173 376 1210 q 519 1136 454 1136 q 625 1173 586 1136 q 671 1278 664 1210 l 742 1269 q 676 1116 736 1174 q 519 1058 617 1058 m 482 1224 q 494 1269 482 1253 q 522 1297 506 1286 q 550 1318 538 1308 q 563 1343 563 1328 q 547 1365 563 1360 q 501 1371 531 1371 q 462 1367 483 1371 q 417 1354 440 1364 l 399 1411 q 454 1428 424 1422 q 525 1435 485 1435 q 620 1415 586 1435 q 654 1363 654 1396 q 640 1317 654 1333 q 606 1290 625 1301 q 573 1263 588 1278 q 558 1224 558 1249 l 482 1224 z "},"Ẵ":{"ha":1038,"x_min":36,"x_max":1001,"o":"m 36 0 l 467 979 l 571 979 l 1001 0 l 878 0 l 758 279 l 817 244 l 219 244 l 278 279 l 158 0 l 36 0 m 517 842 l 294 319 l 261 346 l 775 346 l 742 319 l 521 842 l 517 842 m 519 1058 q 373 1102 432 1058 q 297 1218 314 1146 l 368 1231 q 422 1160 382 1186 q 519 1135 461 1135 q 618 1160 579 1135 q 671 1231 657 1186 l 742 1218 q 667 1102 726 1146 q 519 1058 607 1058 m 361 1286 l 294 1290 q 315 1369 299 1338 q 360 1417 332 1401 q 428 1433 389 1433 q 481 1423 456 1433 q 533 1393 506 1413 q 576 1369 560 1376 q 608 1361 593 1361 q 656 1379 640 1361 q 678 1436 671 1397 l 744 1432 q 705 1324 740 1360 q 613 1288 669 1288 q 558 1299 583 1288 q 503 1331 533 1311 q 465 1352 482 1343 q 431 1361 449 1361 q 384 1343 400 1361 q 361 1286 368 1325 z "},"Ǎ":{"ha":1038,"x_min":36,"x_max":1001,"o":"m 36 0 l 467 979 l 571 979 l 1001 0 l 878 0 l 758 279 l 817 244 l 219 244 l 278 279 l 158 0 l 36 0 m 517 842 l 294 319 l 261 346 l 775 346 l 742 319 l 521 842 l 517 842 m 464 1063 l 292 1301 l 385 1301 l 519 1138 l 656 1301 l 747 1301 l 575 1063 l 464 1063 z "},"Â":{"ha":1038,"x_min":36,"x_max":1001,"o":"m 36 0 l 467 979 l 571 979 l 1001 0 l 878 0 l 758 279 l 817 244 l 219 244 l 278 279 l 158 0 l 36 0 m 517 842 l 294 319 l 261 346 l 775 346 l 742 319 l 521 842 l 517 842 m 292 1063 l 464 1301 l 575 1301 l 747 1063 l 654 1063 l 519 1225 l 383 1063 l 292 1063 z "},"Ấ":{"ha":1038,"x_min":36,"x_max":1001,"o":"m 36 0 l 467 979 l 571 979 l 1001 0 l 878 0 l 758 279 l 817 244 l 219 244 l 278 279 l 158 0 l 36 0 m 517 842 l 294 319 l 261 346 l 775 346 l 742 319 l 521 842 l 517 842 m 307 1064 l 463 1293 l 576 1293 l 732 1064 l 646 1064 l 519 1218 l 392 1064 l 307 1064 m 654 1215 l 769 1424 l 883 1424 l 732 1215 l 654 1215 z "},"Ậ":{"ha":1038,"x_min":36,"x_max":1001,"o":"m 36 0 l 467 979 l 571 979 l 1001 0 l 878 0 l 758 279 l 817 244 l 219 244 l 278 279 l 158 0 l 36 0 m 517 842 l 294 319 l 261 346 l 775 346 l 742 319 l 521 842 l 517 842 m 454 -262 l 454 -136 l 585 -136 l 585 -262 l 454 -262 m 292 1063 l 464 1301 l 575 1301 l 747 1063 l 654 1063 l 519 1225 l 383 1063 l 292 1063 z "},"Ầ":{"ha":1038,"x_min":36,"x_max":1001,"o":"m 36 0 l 467 979 l 571 979 l 1001 0 l 878 0 l 758 279 l 817 244 l 219 244 l 278 279 l 158 0 l 36 0 m 517 842 l 294 319 l 261 346 l 775 346 l 742 319 l 521 842 l 517 842 m 307 1064 l 463 1293 l 576 1293 l 732 1064 l 646 1064 l 519 1218 l 392 1064 l 307 1064 m 710 1215 l 558 1424 l 672 1424 l 788 1215 l 710 1215 z "},"Ẩ":{"ha":1038,"x_min":36,"x_max":1001,"o":"m 36 0 l 467 979 l 571 979 l 1001 0 l 878 0 l 758 279 l 817 244 l 219 244 l 278 279 l 158 0 l 36 0 m 517 842 l 294 319 l 261 346 l 775 346 l 742 319 l 521 842 l 517 842 m 307 1064 l 463 1286 l 576 1286 l 732 1064 l 646 1064 l 519 1215 l 392 1064 l 307 1064 m 663 1215 q 674 1262 663 1244 q 703 1291 686 1279 q 731 1314 719 1303 q 743 1340 743 1325 q 728 1362 743 1357 q 682 1367 713 1367 q 644 1363 664 1367 q 599 1350 624 1360 l 581 1406 q 635 1424 606 1418 q 706 1431 665 1431 q 800 1411 767 1431 q 833 1358 833 1392 q 819 1314 833 1331 q 785 1284 804 1297 q 753 1256 767 1271 q 739 1215 739 1240 l 663 1215 z "},"Ẫ":{"ha":1038,"x_min":36,"x_max":1001,"o":"m 36 0 l 467 979 l 571 979 l 1001 0 l 878 0 l 758 279 l 817 244 l 219 244 l 278 279 l 158 0 l 36 0 m 517 842 l 294 319 l 261 346 l 775 346 l 742 319 l 521 842 l 517 842 m 307 1064 l 463 1249 l 576 1249 l 732 1064 l 649 1064 l 519 1182 l 392 1064 l 307 1064 m 361 1283 l 294 1286 q 336 1394 301 1358 q 428 1431 371 1431 q 481 1420 456 1431 q 533 1390 506 1410 q 576 1366 560 1374 q 608 1358 593 1358 q 656 1376 640 1358 q 678 1433 671 1393 l 744 1429 q 705 1322 740 1358 q 613 1285 669 1285 q 558 1297 583 1285 q 503 1328 533 1308 q 465 1349 482 1340 q 431 1357 449 1357 q 385 1340 401 1357 q 361 1283 368 1322 z "},"Ȁ":{"ha":1038,"x_min":36,"x_max":1001,"o":"m 36 0 l 467 979 l 571 979 l 1001 0 l 878 0 l 758 279 l 817 244 l 219 244 l 278 279 l 158 0 l 36 0 m 517 842 l 294 319 l 261 346 l 775 346 l 742 319 l 521 842 l 517 842 m 574 1063 l 408 1301 l 528 1301 l 646 1063 l 574 1063 m 393 1063 l 219 1301 l 339 1301 l 464 1063 l 393 1063 z "},"Ä":{"ha":1038,"x_min":36,"x_max":1001,"o":"m 36 0 l 467 979 l 571 979 l 1001 0 l 878 0 l 758 279 l 817 244 l 219 244 l 278 279 l 158 0 l 36 0 m 517 842 l 294 319 l 261 346 l 775 346 l 742 319 l 521 842 l 517 842 m 583 1117 l 583 1242 l 711 1242 l 711 1117 l 583 1117 m 328 1117 l 328 1242 l 456 1242 l 456 1117 l 328 1117 z "},"Ȧ":{"ha":1038,"x_min":36,"x_max":1001,"o":"m 36 0 l 467 979 l 571 979 l 1001 0 l 878 0 l 758 279 l 817 244 l 219 244 l 278 279 l 158 0 l 36 0 m 517 842 l 294 319 l 261 346 l 775 346 l 742 319 l 521 842 l 517 842 m 453 1118 l 453 1247 l 586 1247 l 586 1118 l 453 1118 z "},"Ạ":{"ha":1038,"x_min":36,"x_max":1001,"o":"m 36 0 l 467 979 l 571 979 l 1001 0 l 878 0 l 758 279 l 817 244 l 219 244 l 278 279 l 158 0 l 36 0 m 517 842 l 294 319 l 261 346 l 775 346 l 742 319 l 521 842 l 517 842 m 454 -262 l 454 -136 l 585 -136 l 585 -262 l 454 -262 z "},"À":{"ha":1038,"x_min":36,"x_max":1001,"o":"m 36 0 l 467 979 l 571 979 l 1001 0 l 878 0 l 758 279 l 817 244 l 219 244 l 278 279 l 158 0 l 36 0 m 517 842 l 294 319 l 261 346 l 775 346 l 742 319 l 521 842 l 517 842 m 475 1063 l 267 1301 l 403 1301 l 567 1063 l 475 1063 z "},"Ả":{"ha":1038,"x_min":36,"x_max":1001,"o":"m 36 0 l 467 979 l 571 979 l 1001 0 l 878 0 l 758 279 l 817 244 l 219 244 l 278 279 l 158 0 l 36 0 m 517 842 l 294 319 l 261 346 l 775 346 l 742 319 l 521 842 l 517 842 m 479 1063 l 479 1085 q 492 1130 479 1113 q 522 1160 506 1147 q 552 1183 539 1172 q 565 1210 565 1194 q 551 1233 565 1225 q 504 1240 536 1240 q 461 1236 483 1240 q 414 1222 439 1232 l 394 1283 q 454 1303 421 1296 q 526 1310 488 1310 q 626 1288 590 1310 q 663 1225 663 1265 q 647 1178 663 1196 q 612 1147 632 1160 q 576 1119 592 1135 q 561 1078 561 1104 l 561 1063 l 479 1063 z "},"Ȃ":{"ha":1038,"x_min":36,"x_max":1001,"o":"m 36 0 l 467 979 l 571 979 l 1001 0 l 878 0 l 758 279 l 817 244 l 219 244 l 278 279 l 158 0 l 36 0 m 517 842 l 294 319 l 261 346 l 775 346 l 742 319 l 521 842 l 517 842 m 360 1056 l 282 1065 q 356 1239 290 1176 q 519 1301 421 1301 q 685 1238 619 1301 q 758 1065 750 1175 l 681 1056 q 633 1176 675 1132 q 519 1219 590 1219 q 408 1176 450 1219 q 360 1056 365 1133 z "},"Ā":{"ha":1038,"x_min":36,"x_max":1001,"o":"m 36 0 l 467 979 l 571 979 l 1001 0 l 878 0 l 758 279 l 817 244 l 219 244 l 278 279 l 158 0 l 36 0 m 517 842 l 294 319 l 261 346 l 775 346 l 742 319 l 521 842 l 517 842 m 290 1129 l 290 1214 l 749 1214 l 749 1129 l 290 1129 z "},"Ą":{"ha":1038,"x_min":36,"x_max":1057,"o":"m 36 0 l 467 979 l 571 979 l 1001 0 l 878 0 l 758 279 l 817 244 l 219 244 l 278 279 l 158 0 l 36 0 m 517 842 l 294 319 l 261 346 l 775 346 l 742 319 l 521 842 l 517 842 m 947 -269 q 838 -233 879 -269 q 797 -135 797 -196 q 834 -29 797 -79 q 932 51 871 21 l 975 0 q 933 -27 954 -10 q 897 -68 911 -44 q 883 -119 883 -92 q 906 -176 883 -158 q 961 -193 929 -193 q 999 -190 981 -193 q 1036 -178 1017 -186 l 1057 -246 q 1008 -263 1036 -257 q 947 -269 981 -269 z "},"Å":{"ha":1038,"x_min":36,"x_max":1001,"o":"m 36 0 l 467 979 l 571 979 l 1001 0 l 878 0 l 758 279 l 817 244 l 219 244 l 278 279 l 158 0 l 36 0 m 517 842 l 294 319 l 261 346 l 775 346 l 742 319 l 521 842 l 517 842 m 519 1051 q 435 1074 472 1051 q 375 1133 397 1096 q 353 1214 353 1169 q 374 1296 353 1260 q 434 1353 396 1332 q 519 1375 472 1375 q 605 1353 567 1375 q 665 1296 643 1332 q 686 1214 686 1260 q 665 1133 686 1169 q 606 1074 643 1096 q 519 1051 568 1051 m 519 1115 q 590 1144 563 1115 q 618 1214 618 1172 q 591 1284 618 1256 q 519 1313 564 1313 q 449 1284 476 1313 q 421 1214 421 1256 q 449 1144 421 1172 q 519 1115 476 1115 z "},"Ǻ":{"ha":1038,"x_min":36,"x_max":1001,"o":"m 36 0 l 467 979 l 571 979 l 1001 0 l 878 0 l 758 279 l 817 244 l 219 244 l 278 279 l 158 0 l 36 0 m 517 842 l 294 319 l 261 346 l 775 346 l 742 319 l 521 842 l 517 842 m 519 1054 q 435 1076 472 1054 q 375 1134 397 1097 q 353 1215 353 1171 q 375 1298 353 1261 q 435 1356 397 1335 q 519 1378 472 1378 q 571 1370 547 1378 q 615 1349 594 1363 l 708 1438 l 826 1438 l 664 1297 q 681 1260 675 1281 q 686 1215 686 1239 q 665 1134 686 1171 q 605 1076 643 1097 q 519 1054 567 1054 m 519 1117 q 592 1145 564 1117 q 619 1215 619 1174 q 592 1287 619 1258 q 519 1315 564 1315 q 448 1287 476 1315 q 419 1215 419 1258 q 448 1145 419 1174 q 519 1117 476 1117 z "},"Ã":{"ha":1038,"x_min":36,"x_max":1001,"o":"m 36 0 l 467 979 l 571 979 l 1001 0 l 878 0 l 758 279 l 817 244 l 219 244 l 278 279 l 158 0 l 36 0 m 517 842 l 294 319 l 261 346 l 775 346 l 742 319 l 521 842 l 517 842 m 299 1085 l 226 1089 q 281 1228 236 1179 q 394 1278 325 1278 q 465 1263 431 1278 q 539 1221 499 1247 q 601 1185 578 1196 q 646 1175 625 1175 q 709 1202 686 1175 q 740 1282 732 1229 l 813 1278 q 760 1138 804 1188 q 646 1089 715 1089 q 576 1105 611 1089 q 499 1147 540 1121 q 439 1181 464 1171 q 393 1192 414 1192 q 330 1165 353 1192 q 299 1085 307 1138 z "},"Æ":{"ha":1394,"x_min":-17,"x_max":1307,"o":"m -17 0 l 574 979 l 1307 979 l 1307 878 l 678 878 l 710 924 l 797 514 l 744 547 l 1279 547 l 1279 446 l 765 446 l 804 479 l 894 57 l 840 101 l 1307 101 l 1307 0 l 794 0 l 735 283 l 778 244 l 231 244 l 281 281 l 114 0 l -17 0 m 610 847 l 300 318 l 282 346 l 749 346 l 728 315 l 614 847 l 610 847 z "},"Ǽ":{"ha":1394,"x_min":-17,"x_max":1307,"o":"m -17 0 l 574 979 l 1307 979 l 1307 878 l 678 878 l 710 924 l 797 514 l 744 547 l 1279 547 l 1279 446 l 765 446 l 804 479 l 894 57 l 840 101 l 1307 101 l 1307 0 l 794 0 l 735 283 l 778 244 l 231 244 l 281 281 l 114 0 l -17 0 m 610 847 l 300 318 l 282 346 l 749 346 l 728 315 l 614 847 l 610 847 m 640 1063 l 804 1301 l 942 1301 l 735 1063 l 640 1063 z "},"B":{"ha":971,"x_min":132,"x_max":875,"o":"m 132 0 l 132 979 l 531 979 q 767 913 683 979 q 851 724 851 846 q 801 574 851 633 q 668 496 750 515 l 668 507 q 776 469 729 499 q 849 389 822 439 q 875 269 875 339 q 837 122 875 182 q 725 31 799 63 q 547 0 651 0 l 132 0 m 250 99 l 539 99 q 618 106 583 99 q 678 126 653 113 q 722 161 704 140 q 748 210 739 182 q 757 271 757 238 q 748 336 757 308 q 721 385 739 364 q 677 419 703 406 q 617 440 651 433 q 539 446 582 446 l 250 446 l 250 99 m 250 544 l 517 544 q 678 588 624 544 q 733 715 733 632 q 679 839 733 797 q 517 881 625 881 l 250 881 l 250 544 z "},"Ɓ":{"ha":1144,"x_min":10,"x_max":1049,"o":"m 306 0 l 306 886 l 257 886 q 146 851 181 886 q 111 740 111 817 l 111 679 l 10 679 l 10 746 q 73 920 10 861 q 267 979 136 979 l 707 979 q 942 913 860 979 q 1025 724 1025 846 q 974 574 1025 633 q 842 496 924 515 l 842 507 q 949 469 903 499 q 1022 389 996 439 q 1049 269 1049 339 q 1010 122 1049 182 q 899 31 972 63 q 721 0 825 0 l 306 0 m 424 97 l 713 97 q 876 141 822 97 q 931 271 931 185 q 876 404 931 361 q 713 447 821 447 l 424 447 l 424 97 m 424 544 l 690 544 q 852 588 797 544 q 907 715 907 631 q 853 840 907 797 q 690 882 799 882 l 424 882 l 424 544 z "},"C":{"ha":957,"x_min":94,"x_max":886,"o":"m 554 -12 q 308 49 411 -12 q 150 222 206 110 q 94 490 94 335 q 150 758 94 646 q 308 931 206 869 q 554 992 411 992 q 741 960 656 992 q 886 868 826 929 l 840 772 q 708 857 776 831 q 556 883 639 883 q 308 782 396 883 q 219 490 219 681 q 308 199 219 301 q 556 96 396 96 q 708 122 639 96 q 840 207 776 149 l 886 111 q 741 19 826 51 q 554 -12 656 -12 z "},"Ć":{"ha":957,"x_min":94,"x_max":886,"o":"m 554 -12 q 308 49 411 -12 q 150 222 206 110 q 94 490 94 335 q 150 758 94 646 q 308 931 206 869 q 554 992 411 992 q 741 960 656 992 q 886 868 826 929 l 840 772 q 708 857 776 831 q 556 883 639 883 q 308 782 396 883 q 219 490 219 681 q 308 199 219 301 q 556 96 396 96 q 708 122 639 96 q 840 207 776 149 l 886 111 q 741 19 826 51 q 554 -12 656 -12 m 500 1063 l 664 1301 l 801 1301 l 594 1063 l 500 1063 z "},"Č":{"ha":957,"x_min":94,"x_max":886,"o":"m 554 -12 q 308 49 411 -12 q 150 222 206 110 q 94 490 94 335 q 150 758 94 646 q 308 931 206 869 q 554 992 411 992 q 741 960 656 992 q 886 868 826 929 l 840 772 q 708 857 776 831 q 556 883 639 883 q 308 782 396 883 q 219 490 219 681 q 308 199 219 301 q 556 96 396 96 q 708 122 639 96 q 840 207 776 149 l 886 111 q 741 19 826 51 q 554 -12 656 -12 m 492 1063 l 319 1301 l 413 1301 l 547 1138 l 683 1301 l 775 1301 l 603 1063 l 492 1063 z "},"Ç":{"ha":957,"x_min":94,"x_max":886,"o":"m 554 -12 q 308 49 411 -12 q 150 222 206 110 q 94 490 94 335 q 150 758 94 646 q 308 931 206 869 q 554 992 411 992 q 741 960 656 992 q 886 868 826 929 l 840 772 q 708 857 776 831 q 556 883 639 883 q 308 782 396 883 q 219 490 219 681 q 308 199 219 301 q 556 96 396 96 q 708 122 639 96 q 840 207 776 149 l 886 111 q 741 19 826 51 q 554 -12 656 -12 m 550 -269 q 479 -262 514 -269 q 421 -242 444 -256 l 440 -178 q 490 -196 467 -190 q 547 -201 514 -201 q 606 -189 583 -201 q 628 -151 628 -176 q 614 -123 628 -133 q 574 -112 600 -112 q 544 -115 560 -112 q 507 -124 528 -118 l 483 -103 l 503 28 l 576 28 l 558 -79 l 524 -68 q 558 -60 540 -62 q 592 -57 576 -57 q 653 -68 626 -57 q 695 -101 679 -79 q 711 -154 711 -122 q 690 -215 711 -189 q 633 -256 669 -242 q 550 -269 597 -269 z "},"Ḉ":{"ha":957,"x_min":94,"x_max":886,"o":"m 554 -12 q 308 49 411 -12 q 150 222 206 110 q 94 490 94 335 q 150 758 94 646 q 308 931 206 869 q 554 992 411 992 q 741 960 656 992 q 886 868 826 929 l 840 772 q 708 857 776 831 q 556 883 639 883 q 308 782 396 883 q 219 490 219 681 q 308 199 219 301 q 556 96 396 96 q 708 122 639 96 q 840 207 776 149 l 886 111 q 741 19 826 51 q 554 -12 656 -12 m 550 -269 q 479 -262 514 -269 q 421 -242 444 -256 l 440 -178 q 490 -196 467 -190 q 547 -201 514 -201 q 606 -189 583 -201 q 628 -151 628 -176 q 614 -123 628 -133 q 574 -112 600 -112 q 544 -115 560 -112 q 507 -124 528 -118 l 483 -103 l 503 28 l 576 28 l 558 -79 l 524 -68 q 558 -60 540 -62 q 592 -57 576 -57 q 653 -68 626 -57 q 695 -101 679 -79 q 711 -154 711 -122 q 690 -215 711 -189 q 633 -256 669 -242 q 550 -269 597 -269 m 500 1063 l 664 1301 l 801 1301 l 594 1063 l 500 1063 z "},"Ĉ":{"ha":957,"x_min":94,"x_max":886,"o":"m 554 -12 q 308 49 411 -12 q 150 222 206 110 q 94 490 94 335 q 150 758 94 646 q 308 931 206 869 q 554 992 411 992 q 741 960 656 992 q 886 868 826 929 l 840 772 q 708 857 776 831 q 556 883 639 883 q 308 782 396 883 q 219 490 219 681 q 308 199 219 301 q 556 96 396 96 q 708 122 639 96 q 840 207 776 149 l 886 111 q 741 19 826 51 q 554 -12 656 -12 m 319 1063 l 492 1301 l 603 1301 l 775 1063 l 682 1063 l 547 1225 l 411 1063 l 319 1063 z "},"Ċ":{"ha":957,"x_min":94,"x_max":886,"o":"m 554 -12 q 308 49 411 -12 q 150 222 206 110 q 94 490 94 335 q 150 758 94 646 q 308 931 206 869 q 554 992 411 992 q 741 960 656 992 q 886 868 826 929 l 840 772 q 708 857 776 831 q 556 883 639 883 q 308 782 396 883 q 219 490 219 681 q 308 199 219 301 q 556 96 396 96 q 708 122 639 96 q 840 207 776 149 l 886 111 q 741 19 826 51 q 554 -12 656 -12 m 481 1118 l 481 1247 l 614 1247 l 614 1118 l 481 1118 z "},"D":{"ha":1057,"x_min":132,"x_max":963,"o":"m 132 0 l 132 979 l 469 979 q 738 923 628 979 q 906 758 849 867 q 963 490 963 649 q 905 223 963 332 q 738 57 847 114 q 469 0 628 0 l 132 0 m 251 103 l 463 103 q 744 199 649 103 q 839 490 839 296 q 744 781 839 685 q 463 876 649 876 l 251 876 l 251 103 z "},"Ǆ":{"ha":1869,"x_min":132,"x_max":1828,"o":"m 132 0 l 132 979 l 469 979 q 738 923 628 979 q 906 758 849 867 q 963 490 963 649 q 905 223 963 332 q 738 57 847 114 q 469 0 628 0 l 132 0 m 251 103 l 463 103 q 744 199 649 103 q 839 490 839 296 q 744 781 839 685 q 463 876 649 876 l 251 876 l 251 103 m 1106 0 l 1106 85 l 1696 925 l 1701 875 l 1106 875 l 1106 979 l 1810 979 l 1810 896 l 1218 56 l 1213 104 l 1828 104 l 1828 0 l 1106 0 m 1407 1063 l 1235 1301 l 1328 1301 l 1463 1138 l 1599 1301 l 1690 1301 l 1518 1063 l 1407 1063 z "},"Ð":{"ha":1057,"x_min":8,"x_max":963,"o":"m 132 0 l 132 979 l 469 979 q 738 923 628 979 q 906 758 849 867 q 963 490 963 649 q 905 223 963 332 q 738 57 847 114 q 469 0 628 0 l 132 0 m 251 103 l 463 103 q 744 199 649 103 q 839 490 839 296 q 744 781 839 685 q 463 876 649 876 l 251 876 l 251 103 m 7 449 l 7 544 l 529 544 l 529 449 l 7 449 z "},"Ď":{"ha":1057,"x_min":132,"x_max":963,"o":"m 132 0 l 132 979 l 469 979 q 738 923 628 979 q 906 758 849 867 q 963 490 963 649 q 905 223 963 332 q 738 57 847 114 q 469 0 628 0 l 132 0 m 251 103 l 463 103 q 744 199 649 103 q 839 490 839 296 q 744 781 839 685 q 463 876 649 876 l 251 876 l 251 103 m 474 1063 l 301 1301 l 394 1301 l 529 1138 l 665 1301 l 757 1301 l 585 1063 l 474 1063 z "},"Đ":{"ha":1057,"x_min":8,"x_max":963,"o":"m 132 0 l 132 979 l 469 979 q 738 923 628 979 q 906 758 849 867 q 963 490 963 649 q 905 223 963 332 q 738 57 847 114 q 469 0 628 0 l 132 0 m 251 103 l 463 103 q 744 199 649 103 q 839 490 839 296 q 744 781 839 685 q 463 876 649 876 l 251 876 l 251 103 m 7 449 l 7 544 l 529 544 l 529 449 l 7 449 z "},"Ḍ":{"ha":1057,"x_min":132,"x_max":963,"o":"m 132 0 l 132 979 l 469 979 q 738 923 628 979 q 906 758 849 867 q 963 490 963 649 q 905 223 963 332 q 738 57 847 114 q 469 0 628 0 l 132 0 m 251 103 l 463 103 q 744 199 649 103 q 839 490 839 296 q 744 781 839 685 q 463 876 649 876 l 251 876 l 251 103 m 464 -262 l 464 -136 l 594 -136 l 594 -262 l 464 -262 z "},"Ɗ":{"ha":1231,"x_min":10,"x_max":1136,"o":"m 306 0 l 306 886 l 257 886 q 146 851 181 886 q 111 740 111 817 l 111 679 l 10 679 l 10 746 q 72 920 10 861 q 260 979 135 979 l 643 979 q 911 923 801 979 q 1078 758 1021 867 q 1136 490 1136 649 q 1078 223 1136 332 q 910 57 1021 114 q 643 0 800 0 l 306 0 m 425 103 l 635 103 q 917 199 822 103 q 1011 490 1011 296 q 917 781 1011 685 q 635 876 822 876 l 425 876 l 425 103 z "},"Ḏ":{"ha":1057,"x_min":132,"x_max":963,"o":"m 132 0 l 132 979 l 469 979 q 738 923 628 979 q 906 758 849 867 q 963 490 963 649 q 905 223 963 332 q 738 57 847 114 q 469 0 628 0 l 132 0 m 251 103 l 463 103 q 744 199 649 103 q 839 490 839 296 q 744 781 839 685 q 463 876 649 876 l 251 876 l 251 103 m 315 -222 l 315 -137 l 743 -137 l 743 -222 l 315 -222 z "},"ǅ":{"ha":1739,"x_min":132,"x_max":1686,"o":"m 132 0 l 132 979 l 469 979 q 738 923 628 979 q 906 758 849 867 q 963 490 963 649 q 905 223 963 332 q 738 57 847 114 q 469 0 628 0 l 132 0 m 251 103 l 463 103 q 744 199 649 103 q 839 490 839 296 q 744 781 839 685 q 463 876 649 876 l 251 876 l 251 103 m 1136 0 l 1136 76 l 1558 619 l 1561 586 l 1142 586 l 1142 681 l 1671 681 l 1671 604 l 1246 58 l 1243 96 l 1686 96 l 1686 0 l 1136 0 m 1351 771 l 1197 1049 l 1283 1049 l 1408 849 l 1533 1049 l 1619 1049 l 1465 771 l 1351 771 z "},"E":{"ha":847,"x_min":132,"x_max":761,"o":"m 132 0 l 132 979 l 761 979 l 761 878 l 250 878 l 250 547 l 732 547 l 732 446 l 250 446 l 250 101 l 761 101 l 761 0 l 132 0 z "},"É":{"ha":847,"x_min":132,"x_max":761,"o":"m 132 0 l 132 979 l 761 979 l 761 878 l 250 878 l 250 547 l 732 547 l 732 446 l 250 446 l 250 101 l 761 101 l 761 0 l 132 0 m 415 1063 l 579 1301 l 717 1301 l 510 1063 l 415 1063 z "},"Ĕ":{"ha":847,"x_min":132,"x_max":761,"o":"m 132 0 l 132 979 l 761 979 l 761 878 l 250 878 l 250 547 l 732 547 l 732 446 l 250 446 l 250 101 l 761 101 l 761 0 l 132 0 m 463 1056 q 299 1119 364 1056 q 225 1292 233 1182 l 301 1301 q 350 1182 308 1225 q 463 1139 392 1139 q 576 1183 533 1139 q 624 1301 618 1226 l 701 1292 q 627 1119 692 1182 q 463 1056 563 1056 z "},"Ě":{"ha":847,"x_min":132,"x_max":761,"o":"m 132 0 l 132 979 l 761 979 l 761 878 l 250 878 l 250 547 l 732 547 l 732 446 l 250 446 l 250 101 l 761 101 l 761 0 l 132 0 m 407 1063 l 235 1301 l 328 1301 l 463 1138 l 599 1301 l 690 1301 l 518 1063 l 407 1063 z "},"Ȩ":{"ha":847,"x_min":132,"x_max":761,"o":"m 132 0 l 132 979 l 761 979 l 761 878 l 250 878 l 250 547 l 732 547 l 732 446 l 250 446 l 250 101 l 761 101 l 761 0 l 132 0 m 468 -269 q 397 -262 432 -269 q 339 -242 363 -256 l 358 -178 q 408 -196 385 -190 q 465 -201 432 -201 q 524 -189 501 -201 q 546 -151 546 -176 q 532 -123 546 -133 q 492 -112 518 -112 q 462 -115 478 -112 q 425 -124 446 -118 l 401 -103 l 421 28 l 494 28 l 476 -79 l 442 -68 q 476 -60 458 -62 q 510 -57 494 -57 q 571 -68 544 -57 q 613 -101 597 -79 q 629 -154 629 -122 q 608 -215 629 -189 q 551 -256 588 -242 q 468 -269 515 -269 z "},"Ḝ":{"ha":847,"x_min":132,"x_max":761,"o":"m 132 0 l 132 979 l 761 979 l 761 878 l 250 878 l 250 547 l 732 547 l 732 446 l 250 446 l 250 101 l 761 101 l 761 0 l 132 0 m 468 -269 q 397 -262 432 -269 q 339 -242 363 -256 l 358 -178 q 408 -196 385 -190 q 465 -201 432 -201 q 524 -189 501 -201 q 546 -151 546 -176 q 532 -123 546 -133 q 492 -112 518 -112 q 462 -115 478 -112 q 425 -124 446 -118 l 401 -103 l 421 28 l 494 28 l 476 -79 l 442 -68 q 476 -60 458 -62 q 510 -57 494 -57 q 571 -68 544 -57 q 613 -101 597 -79 q 629 -154 629 -122 q 608 -215 629 -189 q 551 -256 588 -242 q 468 -269 515 -269 m 463 1056 q 299 1119 364 1056 q 225 1292 233 1182 l 301 1301 q 350 1182 308 1225 q 463 1139 392 1139 q 576 1183 533 1139 q 624 1301 618 1226 l 701 1292 q 627 1119 692 1182 q 463 1056 563 1056 z "},"Ê":{"ha":847,"x_min":132,"x_max":761,"o":"m 132 0 l 132 979 l 761 979 l 761 878 l 250 878 l 250 547 l 732 547 l 732 446 l 250 446 l 250 101 l 761 101 l 761 0 l 132 0 m 235 1063 l 407 1301 l 518 1301 l 690 1063 l 597 1063 l 463 1225 l 326 1063 l 235 1063 z "},"Ế":{"ha":847,"x_min":132,"x_max":828,"o":"m 132 0 l 132 979 l 761 979 l 761 878 l 250 878 l 250 547 l 732 547 l 732 446 l 250 446 l 250 101 l 761 101 l 761 0 l 132 0 m 250 1064 l 406 1293 l 519 1293 l 675 1064 l 589 1064 l 463 1218 l 335 1064 l 250 1064 m 597 1215 l 713 1424 l 826 1424 l 675 1215 l 597 1215 z "},"Ệ":{"ha":847,"x_min":132,"x_max":761,"o":"m 132 0 l 132 979 l 761 979 l 761 878 l 250 878 l 250 547 l 732 547 l 732 446 l 250 446 l 250 101 l 761 101 l 761 0 l 132 0 m 397 -262 l 397 -136 l 528 -136 l 528 -262 l 397 -262 m 235 1063 l 407 1301 l 518 1301 l 690 1063 l 597 1063 l 463 1225 l 326 1063 l 235 1063 z "},"Ề":{"ha":847,"x_min":132,"x_max":761,"o":"m 132 0 l 132 979 l 761 979 l 761 878 l 250 878 l 250 547 l 732 547 l 732 446 l 250 446 l 250 101 l 761 101 l 761 0 l 132 0 m 250 1064 l 406 1293 l 519 1293 l 675 1064 l 589 1064 l 463 1218 l 335 1064 l 250 1064 m 653 1215 l 501 1424 l 615 1424 l 731 1215 l 653 1215 z "},"Ể":{"ha":847,"x_min":132,"x_max":776,"o":"m 132 0 l 132 979 l 761 979 l 761 878 l 250 878 l 250 547 l 732 547 l 732 446 l 250 446 l 250 101 l 761 101 l 761 0 l 132 0 m 250 1064 l 406 1286 l 519 1286 l 675 1064 l 589 1064 l 463 1215 l 335 1064 l 250 1064 m 606 1215 q 617 1262 606 1244 q 646 1291 629 1279 q 674 1314 663 1303 q 686 1340 686 1325 q 671 1362 686 1357 q 625 1367 656 1367 q 587 1363 607 1367 q 542 1350 567 1360 l 524 1406 q 578 1424 549 1418 q 649 1431 608 1431 q 743 1411 710 1431 q 776 1358 776 1392 q 762 1314 776 1331 q 728 1284 747 1297 q 696 1256 710 1271 q 682 1215 682 1240 l 606 1215 z "},"Ễ":{"ha":847,"x_min":132,"x_max":761,"o":"m 132 0 l 132 979 l 761 979 l 761 878 l 250 878 l 250 547 l 732 547 l 732 446 l 250 446 l 250 101 l 761 101 l 761 0 l 132 0 m 250 1064 l 406 1249 l 519 1249 l 675 1064 l 592 1064 l 463 1182 l 335 1064 l 250 1064 m 304 1283 l 238 1286 q 279 1394 244 1358 q 371 1431 314 1431 q 424 1420 399 1431 q 476 1390 449 1410 q 519 1366 503 1374 q 551 1358 536 1358 q 599 1376 583 1358 q 621 1433 614 1393 l 688 1429 q 648 1322 683 1358 q 556 1285 613 1285 q 501 1297 526 1285 q 446 1328 476 1308 q 408 1349 425 1340 q 374 1357 392 1357 q 328 1340 344 1357 q 304 1283 311 1322 z "},"Ȅ":{"ha":847,"x_min":132,"x_max":761,"o":"m 132 0 l 132 979 l 761 979 l 761 878 l 250 878 l 250 547 l 732 547 l 732 446 l 250 446 l 250 101 l 761 101 l 761 0 l 132 0 m 517 1063 l 351 1301 l 471 1301 l 589 1063 l 517 1063 m 336 1063 l 163 1301 l 282 1301 l 407 1063 l 336 1063 z "},"Ë":{"ha":847,"x_min":132,"x_max":761,"o":"m 132 0 l 132 979 l 761 979 l 761 878 l 250 878 l 250 547 l 732 547 l 732 446 l 250 446 l 250 101 l 761 101 l 761 0 l 132 0 m 526 1117 l 526 1242 l 654 1242 l 654 1117 l 526 1117 m 271 1117 l 271 1242 l 399 1242 l 399 1117 l 271 1117 z "},"Ė":{"ha":847,"x_min":132,"x_max":761,"o":"m 132 0 l 132 979 l 761 979 l 761 878 l 250 878 l 250 547 l 732 547 l 732 446 l 250 446 l 250 101 l 761 101 l 761 0 l 132 0 m 396 1118 l 396 1247 l 529 1247 l 529 1118 l 396 1118 z "},"Ẹ":{"ha":847,"x_min":132,"x_max":761,"o":"m 132 0 l 132 979 l 761 979 l 761 878 l 250 878 l 250 547 l 732 547 l 732 446 l 250 446 l 250 101 l 761 101 l 761 0 l 132 0 m 397 -262 l 397 -136 l 528 -136 l 528 -262 l 397 -262 z "},"È":{"ha":847,"x_min":132,"x_max":761,"o":"m 132 0 l 132 979 l 761 979 l 761 878 l 250 878 l 250 547 l 732 547 l 732 446 l 250 446 l 250 101 l 761 101 l 761 0 l 132 0 m 418 1063 l 210 1301 l 346 1301 l 510 1063 l 418 1063 z "},"Ẻ":{"ha":847,"x_min":132,"x_max":761,"o":"m 132 0 l 132 979 l 761 979 l 761 878 l 250 878 l 250 547 l 732 547 l 732 446 l 250 446 l 250 101 l 761 101 l 761 0 l 132 0 m 422 1063 l 422 1085 q 435 1130 422 1113 q 465 1160 449 1147 q 495 1183 482 1172 q 508 1210 508 1194 q 494 1233 508 1225 q 447 1240 479 1240 q 404 1236 426 1240 q 357 1222 382 1232 l 338 1283 q 397 1303 364 1296 q 469 1310 431 1310 q 569 1288 533 1310 q 606 1225 606 1265 q 590 1178 606 1196 q 555 1147 575 1160 q 519 1119 535 1135 q 504 1078 504 1104 l 504 1063 l 422 1063 z "},"Ȇ":{"ha":847,"x_min":132,"x_max":761,"o":"m 132 0 l 132 979 l 761 979 l 761 878 l 250 878 l 250 547 l 732 547 l 732 446 l 250 446 l 250 101 l 761 101 l 761 0 l 132 0 m 303 1056 l 225 1065 q 299 1239 233 1176 q 463 1301 364 1301 q 628 1238 563 1301 q 701 1065 693 1175 l 624 1056 q 576 1176 618 1132 q 463 1219 533 1219 q 351 1176 393 1219 q 303 1056 308 1133 z "},"Ē":{"ha":847,"x_min":132,"x_max":761,"o":"m 132 0 l 132 979 l 761 979 l 761 878 l 250 878 l 250 547 l 732 547 l 732 446 l 250 446 l 250 101 l 761 101 l 761 0 l 132 0 m 233 1129 l 233 1214 l 692 1214 l 692 1129 l 233 1129 z "},"Ḗ":{"ha":847,"x_min":132,"x_max":761,"o":"m 132 0 l 132 979 l 761 979 l 761 878 l 250 878 l 250 547 l 732 547 l 732 446 l 250 446 l 250 101 l 761 101 l 761 0 l 132 0 m 251 1099 l 251 1181 l 674 1181 l 674 1099 l 251 1099 m 418 1233 l 536 1431 l 667 1431 l 503 1233 l 418 1233 z "},"Ḕ":{"ha":847,"x_min":132,"x_max":761,"o":"m 132 0 l 132 979 l 761 979 l 761 878 l 250 878 l 250 547 l 732 547 l 732 446 l 250 446 l 250 101 l 761 101 l 761 0 l 132 0 m 422 1233 l 260 1431 l 389 1431 l 507 1233 l 422 1233 m 251 1099 l 251 1181 l 674 1181 l 674 1099 l 251 1099 z "},"Ę":{"ha":847,"x_min":132,"x_max":785,"o":"m 132 0 l 132 979 l 761 979 l 761 878 l 250 878 l 250 547 l 732 547 l 732 446 l 250 446 l 250 101 l 761 101 l 761 0 l 132 0 m 675 -269 q 566 -233 607 -269 q 525 -135 525 -196 q 562 -29 525 -79 q 660 51 599 21 l 703 0 q 660 -27 682 -10 q 625 -68 639 -44 q 611 -119 611 -92 q 634 -176 611 -158 q 689 -193 657 -193 q 726 -190 708 -193 q 764 -178 744 -186 l 785 -246 q 736 -263 764 -257 q 675 -269 708 -269 z "},"Ẽ":{"ha":847,"x_min":132,"x_max":761,"o":"m 132 0 l 132 979 l 761 979 l 761 878 l 250 878 l 250 547 l 732 547 l 732 446 l 250 446 l 250 101 l 761 101 l 761 0 l 132 0 m 242 1085 l 169 1089 q 224 1228 179 1179 q 338 1278 268 1278 q 408 1263 374 1278 q 482 1221 442 1247 q 544 1185 521 1196 q 589 1175 568 1175 q 652 1202 629 1175 q 683 1282 675 1229 l 756 1278 q 703 1138 747 1188 q 589 1089 658 1089 q 519 1105 554 1089 q 442 1147 483 1121 q 382 1181 407 1171 q 336 1192 357 1192 q 273 1165 296 1192 q 242 1085 250 1138 z "},"Ə":{"ha":1092,"x_min":94,"x_max":999,"o":"m 553 -12 q 304 49 407 -12 q 148 224 201 111 q 94 489 94 336 l 94 543 l 913 543 l 913 443 l 181 443 l 217 490 q 302 194 217 294 q 549 93 388 93 q 787 196 700 93 q 874 490 874 299 q 781 783 874 681 q 511 885 688 885 q 388 873 446 885 q 278 837 329 861 q 181 774 226 813 l 136 869 q 242 937 181 910 q 374 978 303 964 q 519 992 444 992 q 775 932 668 992 q 940 760 882 872 q 999 490 999 649 q 966 281 999 374 q 874 123 933 188 q 733 23 815 58 q 553 -12 651 -12 z "},"F":{"ha":800,"x_min":132,"x_max":753,"o":"m 132 0 l 132 979 l 753 979 l 753 878 l 251 878 l 251 543 l 724 543 l 724 442 l 251 442 l 251 0 l 132 0 z "},"G":{"ha":1040,"x_min":94,"x_max":918,"o":"m 579 -12 q 315 47 424 -12 q 151 219 207 107 q 94 489 94 332 q 151 758 94 646 q 312 931 207 871 q 563 992 417 992 q 697 978 633 992 q 815 937 761 964 q 910 869 869 910 l 864 775 q 726 858 799 833 q 563 883 653 883 q 308 782 397 883 q 219 489 219 681 q 311 193 219 293 q 582 93 403 93 q 720 106 654 93 q 842 142 786 119 l 813 74 l 813 417 l 565 417 l 565 515 l 918 515 l 918 57 q 822 22 879 38 q 702 -3 765 6 q 579 -12 639 -12 z "},"Ğ":{"ha":1040,"x_min":94,"x_max":918,"o":"m 579 -12 q 315 47 424 -12 q 151 219 207 107 q 94 489 94 332 q 151 758 94 646 q 312 931 207 871 q 563 992 417 992 q 697 978 633 992 q 815 937 761 964 q 910 869 869 910 l 864 775 q 726 858 799 833 q 563 883 653 883 q 308 782 397 883 q 219 489 219 681 q 311 193 219 293 q 582 93 403 93 q 720 106 654 93 q 842 142 786 119 l 813 74 l 813 417 l 565 417 l 565 515 l 918 515 l 918 57 q 822 22 879 38 q 702 -3 765 6 q 579 -12 639 -12 m 558 1056 q 394 1119 460 1056 q 321 1292 329 1182 l 397 1301 q 446 1182 404 1225 q 558 1139 488 1139 q 672 1183 629 1139 q 719 1301 714 1226 l 797 1292 q 723 1119 788 1182 q 558 1056 658 1056 z "},"Ǧ":{"ha":1040,"x_min":94,"x_max":918,"o":"m 579 -12 q 315 47 424 -12 q 151 219 207 107 q 94 489 94 332 q 151 758 94 646 q 312 931 207 871 q 563 992 417 992 q 697 978 633 992 q 815 937 761 964 q 910 869 869 910 l 864 775 q 726 858 799 833 q 563 883 653 883 q 308 782 397 883 q 219 489 219 681 q 311 193 219 293 q 582 93 403 93 q 720 106 654 93 q 842 142 786 119 l 813 74 l 813 417 l 565 417 l 565 515 l 918 515 l 918 57 q 822 22 879 38 q 702 -3 765 6 q 579 -12 639 -12 m 503 1063 l 331 1301 l 424 1301 l 558 1138 l 694 1301 l 786 1301 l 614 1063 l 503 1063 z "},"Ĝ":{"ha":1040,"x_min":94,"x_max":918,"o":"m 579 -12 q 315 47 424 -12 q 151 219 207 107 q 94 489 94 332 q 151 758 94 646 q 312 931 207 871 q 563 992 417 992 q 697 978 633 992 q 815 937 761 964 q 910 869 869 910 l 864 775 q 726 858 799 833 q 563 883 653 883 q 308 782 397 883 q 219 489 219 681 q 311 193 219 293 q 582 93 403 93 q 720 106 654 93 q 842 142 786 119 l 813 74 l 813 417 l 565 417 l 565 515 l 918 515 l 918 57 q 822 22 879 38 q 702 -3 765 6 q 579 -12 639 -12 m 331 1063 l 503 1301 l 614 1301 l 786 1063 l 693 1063 l 558 1225 l 422 1063 l 331 1063 z "},"Ģ":{"ha":1040,"x_min":94,"x_max":918,"o":"m 579 -12 q 315 47 424 -12 q 151 219 207 107 q 94 489 94 332 q 151 758 94 646 q 312 931 207 871 q 563 992 417 992 q 697 978 633 992 q 815 937 761 964 q 910 869 869 910 l 864 775 q 726 858 799 833 q 563 883 653 883 q 308 782 397 883 q 219 489 219 681 q 311 193 219 293 q 582 93 403 93 q 720 106 654 93 q 842 142 786 119 l 813 74 l 813 417 l 565 417 l 565 515 l 918 515 l 918 57 q 822 22 879 38 q 702 -3 765 6 q 579 -12 639 -12 m 564 -385 l 511 -347 q 555 -282 543 -314 q 567 -215 567 -250 l 593 -231 l 496 -231 l 496 -110 l 638 -110 l 638 -200 q 620 -301 638 -254 q 564 -385 603 -347 z "},"Ġ":{"ha":1040,"x_min":94,"x_max":918,"o":"m 579 -12 q 315 47 424 -12 q 151 219 207 107 q 94 489 94 332 q 151 758 94 646 q 312 931 207 871 q 563 992 417 992 q 697 978 633 992 q 815 937 761 964 q 910 869 869 910 l 864 775 q 726 858 799 833 q 563 883 653 883 q 308 782 397 883 q 219 489 219 681 q 311 193 219 293 q 582 93 403 93 q 720 106 654 93 q 842 142 786 119 l 813 74 l 813 417 l 565 417 l 565 515 l 918 515 l 918 57 q 822 22 879 38 q 702 -3 765 6 q 579 -12 639 -12 m 492 1118 l 492 1247 l 625 1247 l 625 1118 l 492 1118 z "},"Ḡ":{"ha":1040,"x_min":94,"x_max":918,"o":"m 579 -12 q 315 47 424 -12 q 151 219 207 107 q 94 489 94 332 q 151 758 94 646 q 312 931 207 871 q 563 992 417 992 q 697 978 633 992 q 815 937 761 964 q 910 869 869 910 l 864 775 q 726 858 799 833 q 563 883 653 883 q 308 782 397 883 q 219 489 219 681 q 311 193 219 293 q 582 93 403 93 q 720 106 654 93 q 842 142 786 119 l 813 74 l 813 417 l 565 417 l 565 515 l 918 515 l 918 57 q 822 22 879 38 q 702 -3 765 6 q 579 -12 639 -12 m 329 1129 l 329 1214 l 788 1214 l 788 1129 l 329 1129 z "},"H":{"ha":1083,"x_min":132,"x_max":951,"o":"m 132 0 l 132 979 l 251 979 l 251 549 l 832 549 l 832 979 l 951 979 l 951 0 l 832 0 l 832 444 l 251 444 l 251 0 l 132 0 z "},"Ħ":{"ha":1124,"x_min":22,"x_max":1103,"o":"m 153 0 l 153 718 l 22 718 l 22 813 l 153 813 l 153 979 l 272 979 l 272 813 l 851 813 l 851 979 l 971 979 l 971 813 l 1103 813 l 1103 718 l 971 718 l 971 0 l 851 0 l 851 438 l 272 438 l 272 0 l 153 0 m 272 542 l 851 542 l 851 718 l 272 718 l 272 542 z "},"Ḫ":{"ha":1083,"x_min":132,"x_max":951,"o":"m 132 0 l 132 979 l 251 979 l 251 549 l 832 549 l 832 979 l 951 979 l 951 0 l 832 0 l 832 444 l 251 444 l 251 0 l 132 0 m 543 -299 q 388 -243 447 -299 q 324 -89 329 -187 l 400 -81 q 442 -183 406 -147 q 543 -218 479 -218 q 644 -183 607 -218 q 686 -81 681 -147 l 763 -89 q 699 -242 757 -186 q 543 -299 640 -299 z "},"Ĥ":{"ha":1083,"x_min":132,"x_max":951,"o":"m 132 0 l 132 979 l 251 979 l 251 549 l 832 549 l 832 979 l 951 979 l 951 0 l 832 0 l 832 444 l 251 444 l 251 0 l 132 0 m 314 1063 l 486 1301 l 597 1301 l 769 1063 l 676 1063 l 542 1225 l 406 1063 l 314 1063 z "},"Ḥ":{"ha":1083,"x_min":132,"x_max":951,"o":"m 132 0 l 132 979 l 251 979 l 251 549 l 832 549 l 832 979 l 951 979 l 951 0 l 832 0 l 832 444 l 251 444 l 251 0 l 132 0 m 478 -262 l 478 -136 l 608 -136 l 608 -262 l 478 -262 z "},"I":{"ha":383,"x_min":132,"x_max":251,"o":"m 132 0 l 132 979 l 251 979 l 251 0 l 132 0 z "},"Ĳ":{"ha":878,"x_min":132,"x_max":746,"o":"m 132 0 l 132 979 l 251 979 l 251 0 l 132 0 m 388 -10 l 379 92 l 475 97 q 556 122 522 101 q 608 181 589 143 q 626 268 626 218 l 626 979 l 746 979 l 746 264 q 715 126 746 185 q 628 34 685 67 q 490 -4 571 1 l 388 -10 z "},"Í":{"ha":383,"x_min":132,"x_max":447,"o":"m 132 0 l 132 979 l 251 979 l 251 0 l 132 0 m 144 1063 l 308 1301 l 446 1301 l 239 1063 l 144 1063 z "},"Ĭ":{"ha":383,"x_min":-46,"x_max":431,"o":"m 132 0 l 132 979 l 251 979 l 251 0 l 132 0 m 192 1056 q 28 1119 93 1056 q -46 1292 -37 1182 l 31 1301 q 79 1182 38 1225 q 192 1139 121 1139 q 305 1183 263 1139 q 353 1301 347 1226 l 431 1292 q 356 1119 421 1182 q 192 1056 292 1056 z "},"Î":{"ha":383,"x_min":-35,"x_max":419,"o":"m 132 0 l 132 979 l 251 979 l 251 0 l 132 0 m -36 1063 l 136 1301 l 247 1301 l 419 1063 l 326 1063 l 192 1225 l 56 1063 l -36 1063 z "},"Ȉ":{"ha":383,"x_min":-107,"x_max":318,"o":"m 132 0 l 132 979 l 251 979 l 251 0 l 132 0 m 246 1063 l 81 1301 l 200 1301 l 318 1063 l 246 1063 m 65 1063 l -108 1301 l 11 1301 l 136 1063 l 65 1063 z "},"Ï":{"ha":383,"x_min":0,"x_max":383,"o":"m 132 0 l 132 979 l 251 979 l 251 0 l 132 0 m 256 1117 l 256 1242 l 383 1242 l 383 1117 l 256 1117 m 0 1117 l 0 1242 l 128 1242 l 128 1117 l 0 1117 z "},"Ḯ":{"ha":383,"x_min":3,"x_max":396,"o":"m 132 0 l 132 979 l 251 979 l 251 0 l 132 0 m 147 1231 l 267 1428 l 396 1428 l 233 1231 l 147 1231 m 3 1069 l 3 1176 l 132 1176 l 132 1069 l 3 1069 m 251 1069 l 251 1176 l 381 1176 l 381 1069 l 251 1069 z "},"İ":{"ha":383,"x_min":125,"x_max":258,"o":"m 132 0 l 132 979 l 251 979 l 251 0 l 132 0 m 125 1118 l 125 1247 l 258 1247 l 258 1118 l 125 1118 z "},"Ị":{"ha":383,"x_min":126,"x_max":258,"o":"m 132 0 l 132 979 l 251 979 l 251 0 l 132 0 m 126 -262 l 126 -136 l 257 -136 l 257 -262 l 126 -262 z "},"Ì":{"ha":383,"x_min":-60,"x_max":251,"o":"m 132 0 l 132 979 l 251 979 l 251 0 l 132 0 m 147 1063 l -61 1301 l 75 1301 l 239 1063 l 147 1063 z "},"Ỉ":{"ha":383,"x_min":67,"x_max":335,"o":"m 132 0 l 132 979 l 251 979 l 251 0 l 132 0 m 151 1063 l 151 1085 q 165 1130 151 1113 q 194 1160 178 1147 q 224 1183 211 1172 q 238 1210 238 1194 q 223 1233 238 1225 q 176 1240 208 1240 q 133 1236 156 1240 q 86 1222 111 1232 l 67 1283 q 126 1303 93 1296 q 199 1310 160 1310 q 299 1288 263 1310 q 335 1225 335 1265 q 319 1178 335 1196 q 284 1147 304 1160 q 249 1119 264 1135 q 233 1078 233 1104 l 233 1063 l 151 1063 z "},"Ȋ":{"ha":383,"x_min":-46,"x_max":431,"o":"m 132 0 l 132 979 l 251 979 l 251 0 l 132 0 m 32 1056 l -46 1065 q 28 1239 -37 1176 q 192 1301 93 1301 q 357 1238 292 1301 q 431 1065 422 1175 l 353 1056 q 305 1176 347 1132 q 192 1219 263 1219 q 80 1176 122 1219 q 32 1056 38 1133 z "},"Ī":{"ha":383,"x_min":-36,"x_max":421,"o":"m 132 0 l 132 979 l 251 979 l 251 0 l 132 0 m -37 1129 l -37 1214 l 421 1214 l 421 1129 l -37 1129 z "},"Į":{"ha":383,"x_min":57,"x_max":317,"o":"m 132 0 l 132 979 l 251 979 l 251 0 l 132 0 m 207 -269 q 98 -233 139 -269 q 57 -135 57 -196 q 94 -29 57 -79 q 192 51 131 21 l 235 0 q 192 -27 214 -10 q 157 -68 171 -44 q 143 -119 143 -92 q 166 -176 143 -158 q 221 -193 189 -193 q 258 -190 240 -193 q 296 -178 276 -186 l 317 -246 q 268 -263 296 -257 q 207 -269 240 -269 z "},"Ĩ":{"ha":383,"x_min":-100,"x_max":485,"o":"m 132 0 l 132 979 l 251 979 l 251 0 l 132 0 m -29 1085 l -101 1089 q -47 1228 -92 1179 q 67 1278 -3 1278 q 137 1263 103 1278 q 211 1221 171 1247 q 274 1185 250 1196 q 318 1175 297 1175 q 381 1202 358 1175 q 413 1282 404 1229 l 485 1278 q 432 1138 476 1188 q 318 1089 388 1089 q 248 1105 283 1089 q 171 1147 213 1121 q 111 1181 136 1171 q 65 1192 86 1192 q 2 1165 25 1192 q -29 1085 -21 1138 z "},"J":{"ha":494,"x_min":-4,"x_max":363,"o":"m 4 -10 l -4 92 l 92 97 q 172 122 139 101 q 224 181 206 143 q 243 268 243 218 l 243 979 l 363 979 l 363 264 q 332 126 363 185 q 244 34 301 67 q 107 -4 188 1 l 4 -10 z "},"Ĵ":{"ha":494,"x_min":-4,"x_max":529,"o":"m 4 -10 l -4 92 l 92 97 q 172 122 139 101 q 224 181 206 143 q 243 268 243 218 l 243 979 l 363 979 l 363 264 q 332 126 363 185 q 244 34 301 67 q 107 -4 188 1 l 4 -10 m 74 1063 l 246 1301 l 357 1301 l 529 1063 l 436 1063 l 301 1225 l 165 1063 l 74 1063 z "},"K":{"ha":897,"x_min":132,"x_max":908,"o":"m 132 0 l 132 979 l 251 979 l 251 536 l 256 536 l 725 979 l 876 979 l 335 469 l 340 535 l 908 0 l 751 0 l 256 461 l 251 461 l 251 0 l 132 0 z "},"Ķ":{"ha":897,"x_min":132,"x_max":908,"o":"m 132 0 l 132 979 l 251 979 l 251 536 l 256 536 l 725 979 l 876 979 l 335 469 l 340 535 l 908 0 l 751 0 l 256 461 l 251 461 l 251 0 l 132 0 m 454 -385 l 401 -347 q 445 -282 433 -314 q 457 -215 457 -250 l 483 -231 l 386 -231 l 386 -110 l 528 -110 l 528 -200 q 510 -301 528 -254 q 454 -385 493 -347 z "},"L":{"ha":782,"x_min":132,"x_max":749,"o":"m 132 0 l 132 979 l 251 979 l 251 106 l 749 106 l 749 0 l 132 0 z "},"Ǉ":{"ha":1332,"x_min":132,"x_max":1199,"o":"m 132 0 l 132 979 l 251 979 l 251 106 l 749 106 l 749 0 l 132 0 m 842 -10 l 833 92 l 929 97 q 1010 122 976 101 q 1062 181 1043 143 q 1081 268 1081 218 l 1081 979 l 1200 979 l 1200 264 q 1169 126 1200 185 q 1082 34 1139 67 q 944 -4 1025 1 l 842 -10 z "},"Ĺ":{"ha":782,"x_min":132,"x_max":749,"o":"m 132 0 l 132 979 l 251 979 l 251 106 l 749 106 l 749 0 l 132 0 m 144 1063 l 308 1301 l 446 1301 l 239 1063 l 144 1063 z "},"Ľ":{"ha":782,"x_min":132,"x_max":749,"o":"m 132 0 l 132 979 l 251 979 l 251 106 l 749 106 l 749 0 l 132 0 m 410 664 l 410 979 l 518 979 l 488 664 l 410 664 z "},"Ļ":{"ha":782,"x_min":132,"x_max":749,"o":"m 132 0 l 132 979 l 251 979 l 251 106 l 749 106 l 749 0 l 132 0 m 440 -385 l 388 -347 q 431 -282 419 -314 q 443 -215 443 -250 l 469 -231 l 372 -231 l 372 -110 l 514 -110 l 514 -200 q 497 -301 514 -254 q 440 -385 479 -347 z "},"Ŀ":{"ha":782,"x_min":132,"x_max":749,"o":"m 132 0 l 132 979 l 251 979 l 251 106 l 749 106 l 749 0 l 132 0 m 499 475 l 499 607 l 646 607 l 646 475 l 499 475 z "},"Ḷ":{"ha":782,"x_min":132,"x_max":749,"o":"m 132 0 l 132 979 l 251 979 l 251 106 l 749 106 l 749 0 l 132 0 m 378 -262 l 378 -136 l 508 -136 l 508 -262 l 378 -262 z "},"ǈ":{"ha":1119,"x_min":132,"x_max":1025,"o":"m 132 0 l 132 979 l 251 979 l 251 106 l 749 106 l 749 0 l 132 0 m 881 847 l 881 979 l 1025 979 l 1025 847 l 881 847 m 711 -268 l 703 -174 l 765 -167 q 861 -124 828 -160 q 894 -17 894 -89 l 894 681 l 1013 681 l 1013 -8 q 998 -113 1013 -68 q 955 -190 983 -158 q 882 -239 926 -221 q 776 -262 838 -257 l 711 -268 z "},"Ḻ":{"ha":782,"x_min":132,"x_max":749,"o":"m 132 0 l 132 979 l 251 979 l 251 106 l 749 106 l 749 0 l 132 0 m 229 -222 l 229 -137 l 657 -137 l 657 -222 l 229 -222 z "},"Ł":{"ha":782,"x_min":-25,"x_max":749,"o":"m 132 0 l 132 979 l 251 979 l 251 106 l 749 106 l 749 0 l 132 0 m 25 349 l -25 435 l 486 728 l 535 642 l 25 349 z "},"M":{"ha":1225,"x_min":135,"x_max":1090,"o":"m 135 0 l 135 979 l 253 979 l 628 257 l 601 257 l 975 979 l 1090 979 l 1090 0 l 979 0 l 979 815 l 999 815 l 656 153 l 572 153 l 226 815 l 247 815 l 247 0 l 135 0 z "},"Ṃ":{"ha":1225,"x_min":135,"x_max":1090,"o":"m 135 0 l 135 979 l 253 979 l 628 257 l 601 257 l 975 979 l 1090 979 l 1090 0 l 979 0 l 979 815 l 999 815 l 656 153 l 572 153 l 226 815 l 247 815 l 247 0 l 135 0 m 543 -262 l 543 -136 l 674 -136 l 674 -262 l 543 -262 z "},"N":{"ha":1069,"x_min":132,"x_max":936,"o":"m 132 0 l 132 979 l 232 979 l 844 165 l 824 165 l 824 979 l 936 979 l 936 0 l 836 0 l 226 813 l 244 813 l 244 0 l 132 0 z "},"Ǌ":{"ha":1564,"x_min":132,"x_max":1431,"o":"m 132 0 l 132 979 l 232 979 l 844 165 l 824 165 l 824 979 l 936 979 l 936 0 l 836 0 l 226 813 l 244 813 l 244 0 l 132 0 m 1074 -10 l 1065 92 l 1161 97 q 1242 122 1208 101 q 1294 181 1275 143 q 1313 268 1313 218 l 1313 979 l 1432 979 l 1432 264 q 1401 126 1432 185 q 1314 34 1371 67 q 1176 -4 1257 1 l 1074 -10 z "},"Ń":{"ha":1069,"x_min":132,"x_max":936,"o":"m 132 0 l 132 979 l 232 979 l 844 165 l 824 165 l 824 979 l 936 979 l 936 0 l 836 0 l 226 813 l 244 813 l 244 0 l 132 0 m 490 1063 l 654 1301 l 792 1301 l 585 1063 l 490 1063 z "},"Ň":{"ha":1069,"x_min":132,"x_max":936,"o":"m 132 0 l 132 979 l 232 979 l 844 165 l 824 165 l 824 979 l 936 979 l 936 0 l 836 0 l 226 813 l 244 813 l 244 0 l 132 0 m 482 1063 l 310 1301 l 403 1301 l 538 1138 l 674 1301 l 765 1301 l 593 1063 l 482 1063 z "},"Ņ":{"ha":1069,"x_min":132,"x_max":936,"o":"m 132 0 l 132 979 l 232 979 l 844 165 l 824 165 l 824 979 l 936 979 l 936 0 l 836 0 l 226 813 l 244 813 l 244 0 l 132 0 m 533 -385 l 481 -347 q 524 -282 513 -314 q 536 -215 536 -250 l 563 -231 l 465 -231 l 465 -110 l 607 -110 l 607 -200 q 590 -301 607 -254 q 533 -385 572 -347 z "},"Ṅ":{"ha":1069,"x_min":132,"x_max":936,"o":"m 132 0 l 132 979 l 232 979 l 844 165 l 824 165 l 824 979 l 936 979 l 936 0 l 836 0 l 226 813 l 244 813 l 244 0 l 132 0 m 471 1118 l 471 1247 l 604 1247 l 604 1118 l 471 1118 z "},"Ṇ":{"ha":1069,"x_min":132,"x_max":936,"o":"m 132 0 l 132 979 l 232 979 l 844 165 l 824 165 l 824 979 l 936 979 l 936 0 l 836 0 l 226 813 l 244 813 l 244 0 l 132 0 m 471 -262 l 471 -136 l 601 -136 l 601 -262 l 471 -262 z "},"ǋ":{"ha":1407,"x_min":132,"x_max":1313,"o":"m 132 0 l 132 979 l 232 979 l 844 165 l 824 165 l 824 979 l 936 979 l 936 0 l 836 0 l 226 813 l 244 813 l 244 0 l 132 0 m 1168 847 l 1168 979 l 1313 979 l 1313 847 l 1168 847 m 999 -268 l 990 -174 l 1053 -167 q 1149 -124 1115 -160 q 1182 -17 1182 -89 l 1182 681 l 1300 681 l 1300 -8 q 1285 -113 1300 -68 q 1242 -190 1271 -158 q 1169 -239 1214 -221 q 1064 -262 1125 -257 l 999 -268 z "},"Ṉ":{"ha":1069,"x_min":132,"x_max":936,"o":"m 132 0 l 132 979 l 232 979 l 844 165 l 824 165 l 824 979 l 936 979 l 936 0 l 836 0 l 226 813 l 244 813 l 244 0 l 132 0 m 322 -222 l 322 -137 l 750 -137 l 750 -222 l 322 -222 z "},"Ñ":{"ha":1069,"x_min":132,"x_max":936,"o":"m 132 0 l 132 979 l 232 979 l 844 165 l 824 165 l 824 979 l 936 979 l 936 0 l 836 0 l 226 813 l 244 813 l 244 0 l 132 0 m 317 1085 l 244 1089 q 299 1228 254 1179 q 413 1278 343 1278 q 483 1263 449 1278 q 557 1221 517 1247 q 619 1185 596 1196 q 664 1175 643 1175 q 727 1202 704 1175 q 758 1282 750 1229 l 831 1278 q 778 1138 822 1188 q 664 1089 733 1089 q 594 1105 629 1089 q 517 1147 558 1121 q 457 1181 482 1171 q 411 1192 432 1192 q 348 1165 371 1192 q 317 1085 325 1138 z "},"Ŋ":{"ha":1069,"x_min":132,"x_max":936,"o":"m 640 -268 l 632 -174 l 693 -168 q 791 -126 757 -161 q 825 -21 825 -92 l 825 58 l 842 -4 l 226 813 l 244 813 l 244 0 l 132 0 l 132 979 l 231 979 l 844 165 l 824 165 l 824 979 l 936 979 l 936 -8 q 928 -93 936 -56 q 901 -160 919 -131 q 856 -212 883 -190 q 789 -246 828 -233 q 701 -262 750 -258 l 640 -268 z "},"O":{"ha":1092,"x_min":94,"x_max":999,"o":"m 546 -12 q 358 22 442 -12 q 216 123 275 57 q 126 281 157 189 q 94 490 94 374 q 126 699 94 607 q 216 857 157 792 q 358 957 275 922 q 546 992 442 992 q 733 957 650 992 q 876 857 817 922 q 967 699 936 792 q 999 492 999 607 q 967 282 999 375 q 876 123 935 189 q 733 22 817 57 q 546 -12 650 -12 m 546 94 q 723 140 650 94 q 835 275 796 186 q 874 490 874 364 q 835 706 874 618 q 724 839 797 793 q 546 885 650 885 q 370 839 443 885 q 258 705 297 793 q 219 490 219 617 q 258 276 219 364 q 370 141 297 188 q 546 94 443 94 z "},"Ó":{"ha":1092,"x_min":94,"x_max":999,"o":"m 546 -12 q 358 22 442 -12 q 216 123 275 57 q 126 281 157 189 q 94 490 94 374 q 126 699 94 607 q 216 857 157 792 q 358 957 275 922 q 546 992 442 992 q 733 957 650 992 q 876 857 817 922 q 967 699 936 792 q 999 492 999 607 q 967 282 999 375 q 876 123 935 189 q 733 22 817 57 q 546 -12 650 -12 m 546 94 q 723 140 650 94 q 835 275 796 186 q 874 490 874 364 q 835 706 874 618 q 724 839 797 793 q 546 885 650 885 q 370 839 443 885 q 258 705 297 793 q 219 490 219 617 q 258 276 219 364 q 370 141 297 188 q 546 94 443 94 m 499 1063 l 663 1301 l 800 1301 l 593 1063 l 499 1063 z "},"Ŏ":{"ha":1092,"x_min":94,"x_max":999,"o":"m 546 -12 q 358 22 442 -12 q 216 123 275 57 q 126 281 157 189 q 94 490 94 374 q 126 699 94 607 q 216 857 157 792 q 358 957 275 922 q 546 992 442 992 q 733 957 650 992 q 876 857 817 922 q 967 699 936 792 q 999 492 999 607 q 967 282 999 375 q 876 123 935 189 q 733 22 817 57 q 546 -12 650 -12 m 546 94 q 723 140 650 94 q 835 275 796 186 q 874 490 874 364 q 835 706 874 618 q 724 839 797 793 q 546 885 650 885 q 370 839 443 885 q 258 705 297 793 q 219 490 219 617 q 258 276 219 364 q 370 141 297 188 q 546 94 443 94 m 546 1056 q 382 1119 447 1056 q 308 1292 317 1182 l 385 1301 q 433 1182 392 1225 q 546 1139 475 1139 q 659 1183 617 1139 q 707 1301 701 1226 l 785 1292 q 710 1119 775 1182 q 546 1056 646 1056 z "},"Ô":{"ha":1092,"x_min":94,"x_max":999,"o":"m 546 -12 q 358 22 442 -12 q 216 123 275 57 q 126 281 157 189 q 94 490 94 374 q 126 699 94 607 q 216 857 157 792 q 358 957 275 922 q 546 992 442 992 q 733 957 650 992 q 876 857 817 922 q 967 699 936 792 q 999 492 999 607 q 967 282 999 375 q 876 123 935 189 q 733 22 817 57 q 546 -12 650 -12 m 546 94 q 723 140 650 94 q 835 275 796 186 q 874 490 874 364 q 835 706 874 618 q 724 839 797 793 q 546 885 650 885 q 370 839 443 885 q 258 705 297 793 q 219 490 219 617 q 258 276 219 364 q 370 141 297 188 q 546 94 443 94 m 318 1063 l 490 1301 l 601 1301 l 774 1063 l 681 1063 l 546 1225 l 410 1063 l 318 1063 z "},"Ố":{"ha":1092,"x_min":94,"x_max":999,"o":"m 546 -12 q 358 22 442 -12 q 216 123 275 57 q 126 281 157 189 q 94 490 94 374 q 126 699 94 607 q 216 857 157 792 q 358 957 275 922 q 546 992 442 992 q 733 957 650 992 q 876 857 817 922 q 967 699 936 792 q 999 492 999 607 q 967 282 999 375 q 876 123 935 189 q 733 22 817 57 q 546 -12 650 -12 m 546 94 q 723 140 650 94 q 835 275 796 186 q 874 490 874 364 q 835 706 874 618 q 724 839 797 793 q 546 885 650 885 q 370 839 443 885 q 258 705 297 793 q 219 490 219 617 q 258 276 219 364 q 370 141 297 188 q 546 94 443 94 m 333 1064 l 489 1293 l 603 1293 l 758 1064 l 672 1064 l 546 1218 l 418 1064 l 333 1064 m 681 1215 l 796 1424 l 910 1424 l 758 1215 l 681 1215 z "},"Ộ":{"ha":1092,"x_min":94,"x_max":999,"o":"m 546 -12 q 358 22 442 -12 q 216 123 275 57 q 126 281 157 189 q 94 490 94 374 q 126 699 94 607 q 216 857 157 792 q 358 957 275 922 q 546 992 442 992 q 733 957 650 992 q 876 857 817 922 q 967 699 936 792 q 999 492 999 607 q 967 282 999 375 q 876 123 935 189 q 733 22 817 57 q 546 -12 650 -12 m 546 94 q 723 140 650 94 q 835 275 796 186 q 874 490 874 364 q 835 706 874 618 q 724 839 797 793 q 546 885 650 885 q 370 839 443 885 q 258 705 297 793 q 219 490 219 617 q 258 276 219 364 q 370 141 297 188 q 546 94 443 94 m 481 -262 l 481 -136 l 611 -136 l 611 -262 l 481 -262 m 318 1063 l 490 1301 l 601 1301 l 774 1063 l 681 1063 l 546 1225 l 410 1063 l 318 1063 z "},"Ồ":{"ha":1092,"x_min":94,"x_max":999,"o":"m 546 -12 q 358 22 442 -12 q 216 123 275 57 q 126 281 157 189 q 94 490 94 374 q 126 699 94 607 q 216 857 157 792 q 358 957 275 922 q 546 992 442 992 q 733 957 650 992 q 876 857 817 922 q 967 699 936 792 q 999 492 999 607 q 967 282 999 375 q 876 123 935 189 q 733 22 817 57 q 546 -12 650 -12 m 546 94 q 723 140 650 94 q 835 275 796 186 q 874 490 874 364 q 835 706 874 618 q 724 839 797 793 q 546 885 650 885 q 370 839 443 885 q 258 705 297 793 q 219 490 219 617 q 258 276 219 364 q 370 141 297 188 q 546 94 443 94 m 333 1064 l 489 1293 l 603 1293 l 758 1064 l 672 1064 l 546 1218 l 418 1064 l 333 1064 m 736 1215 l 585 1424 l 699 1424 l 814 1215 l 736 1215 z "},"Ổ":{"ha":1092,"x_min":94,"x_max":999,"o":"m 546 -12 q 358 22 442 -12 q 216 123 275 57 q 126 281 157 189 q 94 490 94 374 q 126 699 94 607 q 216 857 157 792 q 358 957 275 922 q 546 992 442 992 q 733 957 650 992 q 876 857 817 922 q 967 699 936 792 q 999 492 999 607 q 967 282 999 375 q 876 123 935 189 q 733 22 817 57 q 546 -12 650 -12 m 546 94 q 723 140 650 94 q 835 275 796 186 q 874 490 874 364 q 835 706 874 618 q 724 839 797 793 q 546 885 650 885 q 370 839 443 885 q 258 705 297 793 q 219 490 219 617 q 258 276 219 364 q 370 141 297 188 q 546 94 443 94 m 333 1064 l 489 1286 l 603 1286 l 758 1064 l 672 1064 l 546 1215 l 418 1064 l 333 1064 m 689 1215 q 701 1262 689 1244 q 729 1291 713 1279 q 758 1314 746 1303 q 769 1340 769 1325 q 754 1362 769 1357 q 708 1367 739 1367 q 670 1363 690 1367 q 625 1350 650 1360 l 607 1406 q 662 1424 632 1418 q 732 1431 692 1431 q 826 1411 793 1431 q 860 1358 860 1392 q 845 1314 860 1331 q 812 1284 831 1297 q 779 1256 793 1271 q 765 1215 765 1240 l 689 1215 z "},"Ỗ":{"ha":1092,"x_min":94,"x_max":999,"o":"m 546 -12 q 358 22 442 -12 q 216 123 275 57 q 126 281 157 189 q 94 490 94 374 q 126 699 94 607 q 216 857 157 792 q 358 957 275 922 q 546 992 442 992 q 733 957 650 992 q 876 857 817 922 q 967 699 936 792 q 999 492 999 607 q 967 282 999 375 q 876 123 935 189 q 733 22 817 57 q 546 -12 650 -12 m 546 94 q 723 140 650 94 q 835 275 796 186 q 874 490 874 364 q 835 706 874 618 q 724 839 797 793 q 546 885 650 885 q 370 839 443 885 q 258 705 297 793 q 219 490 219 617 q 258 276 219 364 q 370 141 297 188 q 546 94 443 94 m 333 1064 l 489 1249 l 603 1249 l 758 1064 l 675 1064 l 546 1182 l 418 1064 l 333 1064 m 388 1283 l 321 1286 q 363 1394 328 1358 q 454 1431 397 1431 q 507 1420 482 1431 q 560 1390 532 1410 q 603 1366 586 1374 q 635 1358 619 1358 q 682 1376 667 1358 q 704 1433 697 1393 l 771 1429 q 731 1322 767 1358 q 639 1285 696 1285 q 585 1297 610 1285 q 529 1328 560 1308 q 492 1349 508 1340 q 457 1357 475 1357 q 411 1340 428 1357 q 388 1283 394 1322 z "},"Ȍ":{"ha":1092,"x_min":94,"x_max":999,"o":"m 546 -12 q 358 22 442 -12 q 216 123 275 57 q 126 281 157 189 q 94 490 94 374 q 126 699 94 607 q 216 857 157 792 q 358 957 275 922 q 546 992 442 992 q 733 957 650 992 q 876 857 817 922 q 967 699 936 792 q 999 492 999 607 q 967 282 999 375 q 876 123 935 189 q 733 22 817 57 q 546 -12 650 -12 m 546 94 q 723 140 650 94 q 835 275 796 186 q 874 490 874 364 q 835 706 874 618 q 724 839 797 793 q 546 885 650 885 q 370 839 443 885 q 258 705 297 793 q 219 490 219 617 q 258 276 219 364 q 370 141 297 188 q 546 94 443 94 m 600 1063 l 435 1301 l 554 1301 l 672 1063 l 600 1063 m 419 1063 l 246 1301 l 365 1301 l 490 1063 l 419 1063 z "},"Ö":{"ha":1092,"x_min":94,"x_max":999,"o":"m 546 -12 q 358 22 442 -12 q 216 123 275 57 q 126 281 157 189 q 94 490 94 374 q 126 699 94 607 q 216 857 157 792 q 358 957 275 922 q 546 992 442 992 q 733 957 650 992 q 876 857 817 922 q 967 699 936 792 q 999 492 999 607 q 967 282 999 375 q 876 123 935 189 q 733 22 817 57 q 546 -12 650 -12 m 546 94 q 723 140 650 94 q 835 275 796 186 q 874 490 874 364 q 835 706 874 618 q 724 839 797 793 q 546 885 650 885 q 370 839 443 885 q 258 705 297 793 q 219 490 219 617 q 258 276 219 364 q 370 141 297 188 q 546 94 443 94 m 610 1117 l 610 1242 l 738 1242 l 738 1117 l 610 1117 m 354 1117 l 354 1242 l 482 1242 l 482 1117 l 354 1117 z "},"Ȫ":{"ha":1092,"x_min":94,"x_max":999,"o":"m 546 -12 q 358 22 442 -12 q 216 123 275 57 q 126 281 157 189 q 94 490 94 374 q 126 699 94 607 q 216 857 157 792 q 358 957 275 922 q 546 992 442 992 q 733 957 650 992 q 876 857 817 922 q 967 699 936 792 q 999 492 999 607 q 967 282 999 375 q 876 123 935 189 q 733 22 817 57 q 546 -12 650 -12 m 546 94 q 723 140 650 94 q 835 275 796 186 q 874 490 874 364 q 835 706 874 618 q 724 839 797 793 q 546 885 650 885 q 370 839 443 885 q 258 705 297 793 q 219 490 219 617 q 258 276 219 364 q 370 141 297 188 q 546 94 443 94 m 332 1288 l 332 1371 l 760 1371 l 760 1288 l 332 1288 m 356 1104 l 356 1211 l 483 1211 l 483 1104 l 356 1104 m 608 1104 l 608 1211 l 736 1211 l 736 1104 l 608 1104 z "},"Ȱ":{"ha":1092,"x_min":94,"x_max":999,"o":"m 546 -12 q 358 22 442 -12 q 216 123 275 57 q 126 281 157 189 q 94 490 94 374 q 126 699 94 607 q 216 857 157 792 q 358 957 275 922 q 546 992 442 992 q 733 957 650 992 q 876 857 817 922 q 967 699 936 792 q 999 492 999 607 q 967 282 999 375 q 876 123 935 189 q 733 22 817 57 q 546 -12 650 -12 m 546 94 q 723 140 650 94 q 835 275 796 186 q 874 490 874 364 q 835 706 874 618 q 724 839 797 793 q 546 885 650 885 q 370 839 443 885 q 258 705 297 793 q 219 490 219 617 q 258 276 219 364 q 370 141 297 188 q 546 94 443 94 m 338 1288 l 338 1369 l 754 1369 l 754 1288 l 338 1288 m 483 1106 l 483 1213 l 610 1213 l 610 1106 l 483 1106 z "},"Ọ":{"ha":1092,"x_min":94,"x_max":999,"o":"m 546 -12 q 358 22 442 -12 q 216 123 275 57 q 126 281 157 189 q 94 490 94 374 q 126 699 94 607 q 216 857 157 792 q 358 957 275 922 q 546 992 442 992 q 733 957 650 992 q 876 857 817 922 q 967 699 936 792 q 999 492 999 607 q 967 282 999 375 q 876 123 935 189 q 733 22 817 57 q 546 -12 650 -12 m 546 94 q 723 140 650 94 q 835 275 796 186 q 874 490 874 364 q 835 706 874 618 q 724 839 797 793 q 546 885 650 885 q 370 839 443 885 q 258 705 297 793 q 219 490 219 617 q 258 276 219 364 q 370 141 297 188 q 546 94 443 94 m 481 -262 l 481 -136 l 611 -136 l 611 -262 l 481 -262 z "},"Ò":{"ha":1092,"x_min":94,"x_max":999,"o":"m 546 -12 q 358 22 442 -12 q 216 123 275 57 q 126 281 157 189 q 94 490 94 374 q 126 699 94 607 q 216 857 157 792 q 358 957 275 922 q 546 992 442 992 q 733 957 650 992 q 876 857 817 922 q 967 699 936 792 q 999 492 999 607 q 967 282 999 375 q 876 123 935 189 q 733 22 817 57 q 546 -12 650 -12 m 546 94 q 723 140 650 94 q 835 275 796 186 q 874 490 874 364 q 835 706 874 618 q 724 839 797 793 q 546 885 650 885 q 370 839 443 885 q 258 705 297 793 q 219 490 219 617 q 258 276 219 364 q 370 141 297 188 q 546 94 443 94 m 501 1063 l 293 1301 l 429 1301 l 593 1063 l 501 1063 z "},"Ỏ":{"ha":1092,"x_min":94,"x_max":999,"o":"m 546 -12 q 358 22 442 -12 q 216 123 275 57 q 126 281 157 189 q 94 490 94 374 q 126 699 94 607 q 216 857 157 792 q 358 957 275 922 q 546 992 442 992 q 733 957 650 992 q 876 857 817 922 q 967 699 936 792 q 999 492 999 607 q 967 282 999 375 q 876 123 935 189 q 733 22 817 57 q 546 -12 650 -12 m 546 94 q 723 140 650 94 q 835 275 796 186 q 874 490 874 364 q 835 706 874 618 q 724 839 797 793 q 546 885 650 885 q 370 839 443 885 q 258 705 297 793 q 219 490 219 617 q 258 276 219 364 q 370 141 297 188 q 546 94 443 94 m 506 1063 l 506 1085 q 519 1130 506 1113 q 549 1160 532 1147 q 578 1183 565 1172 q 592 1210 592 1194 q 577 1233 592 1225 q 531 1240 563 1240 q 488 1236 510 1240 q 440 1222 465 1232 l 421 1283 q 481 1303 447 1296 q 553 1310 514 1310 q 653 1288 617 1310 q 689 1225 689 1265 q 674 1178 689 1196 q 638 1147 658 1160 q 603 1119 618 1135 q 588 1078 588 1104 l 588 1063 l 506 1063 z "},"Ơ":{"ha":1092,"x_min":94,"x_max":999,"o":"m 546 -12 q 358 22 442 -12 q 216 123 275 57 q 126 281 157 189 q 94 490 94 374 q 126 699 94 607 q 216 857 157 792 q 358 957 275 922 q 546 992 442 992 q 733 957 650 992 q 876 857 817 922 q 967 699 936 792 q 999 492 999 607 q 967 282 999 375 q 876 123 935 189 q 733 22 817 57 q 546 -12 650 -12 m 546 94 q 723 140 650 94 q 835 275 796 186 q 874 490 874 364 q 835 706 874 618 q 724 839 797 793 q 546 885 650 885 q 370 839 443 885 q 258 705 297 793 q 219 490 219 617 q 258 276 219 364 q 370 141 297 188 q 546 94 443 94 m 693 906 l 626 985 q 687 981 660 982 q 738 979 714 979 q 830 996 797 979 q 875 1047 863 1013 q 888 1135 888 1082 l 888 1158 l 997 1158 l 997 1118 q 973 1008 997 1056 q 904 933 949 960 q 799 906 860 906 l 693 906 z "},"Ớ":{"ha":1092,"x_min":94,"x_max":999,"o":"m 546 -12 q 358 22 442 -12 q 216 123 275 57 q 126 281 157 189 q 94 490 94 374 q 126 699 94 607 q 216 857 157 792 q 358 957 275 922 q 546 992 442 992 q 733 957 650 992 q 876 857 817 922 q 967 699 936 792 q 999 492 999 607 q 967 282 999 375 q 876 123 935 189 q 733 22 817 57 q 546 -12 650 -12 m 546 94 q 723 140 650 94 q 835 275 796 186 q 874 490 874 364 q 835 706 874 618 q 724 839 797 793 q 546 885 650 885 q 370 839 443 885 q 258 705 297 793 q 219 490 219 617 q 258 276 219 364 q 370 141 297 188 q 546 94 443 94 m 693 906 l 626 985 q 687 981 660 982 q 738 979 714 979 q 830 996 797 979 q 875 1047 863 1013 q 888 1135 888 1082 l 888 1158 l 997 1158 l 997 1118 q 973 1008 997 1056 q 904 933 949 960 q 799 906 860 906 l 693 906 m 485 1063 l 649 1301 l 786 1301 l 579 1063 l 485 1063 z "},"Ợ":{"ha":1092,"x_min":94,"x_max":999,"o":"m 546 -12 q 358 22 442 -12 q 216 123 275 57 q 126 281 157 189 q 94 490 94 374 q 126 699 94 607 q 216 857 157 792 q 358 957 275 922 q 546 992 442 992 q 733 957 650 992 q 876 857 817 922 q 967 699 936 792 q 999 492 999 607 q 967 282 999 375 q 876 123 935 189 q 733 22 817 57 q 546 -12 650 -12 m 546 94 q 723 140 650 94 q 835 275 796 186 q 874 490 874 364 q 835 706 874 618 q 724 839 797 793 q 546 885 650 885 q 370 839 443 885 q 258 705 297 793 q 219 490 219 617 q 258 276 219 364 q 370 141 297 188 q 546 94 443 94 m 693 906 l 626 985 q 687 981 660 982 q 738 979 714 979 q 830 996 797 979 q 875 1047 863 1013 q 888 1135 888 1082 l 888 1158 l 997 1158 l 997 1118 q 973 1008 997 1056 q 904 933 949 960 q 799 906 860 906 l 693 906 m 481 -262 l 481 -136 l 611 -136 l 611 -262 l 481 -262 z "},"Ờ":{"ha":1092,"x_min":94,"x_max":999,"o":"m 546 -12 q 358 22 442 -12 q 216 123 275 57 q 126 281 157 189 q 94 490 94 374 q 126 699 94 607 q 216 857 157 792 q 358 957 275 922 q 546 992 442 992 q 733 957 650 992 q 876 857 817 922 q 967 699 936 792 q 999 492 999 607 q 967 282 999 375 q 876 123 935 189 q 733 22 817 57 q 546 -12 650 -12 m 546 94 q 723 140 650 94 q 835 275 796 186 q 874 490 874 364 q 835 706 874 618 q 724 839 797 793 q 546 885 650 885 q 370 839 443 885 q 258 705 297 793 q 219 490 219 617 q 258 276 219 364 q 370 141 297 188 q 546 94 443 94 m 693 906 l 626 985 q 687 981 660 982 q 738 979 714 979 q 830 996 797 979 q 875 1047 863 1013 q 888 1135 888 1082 l 888 1158 l 997 1158 l 997 1118 q 973 1008 997 1056 q 904 933 949 960 q 799 906 860 906 l 693 906 m 488 1063 l 279 1301 l 415 1301 l 579 1063 l 488 1063 z "},"Ở":{"ha":1092,"x_min":94,"x_max":999,"o":"m 546 -12 q 358 22 442 -12 q 216 123 275 57 q 126 281 157 189 q 94 490 94 374 q 126 699 94 607 q 216 857 157 792 q 358 957 275 922 q 546 992 442 992 q 733 957 650 992 q 876 857 817 922 q 967 699 936 792 q 999 492 999 607 q 967 282 999 375 q 876 123 935 189 q 733 22 817 57 q 546 -12 650 -12 m 546 94 q 723 140 650 94 q 835 275 796 186 q 874 490 874 364 q 835 706 874 618 q 724 839 797 793 q 546 885 650 885 q 370 839 443 885 q 258 705 297 793 q 219 490 219 617 q 258 276 219 364 q 370 141 297 188 q 546 94 443 94 m 693 906 l 626 985 q 687 981 660 982 q 738 979 714 979 q 830 996 797 979 q 875 1047 863 1013 q 888 1135 888 1082 l 888 1158 l 997 1158 l 997 1118 q 973 1008 997 1056 q 904 933 949 960 q 799 906 860 906 l 693 906 m 492 1063 l 492 1085 q 505 1130 492 1113 q 535 1160 518 1147 q 565 1183 551 1172 q 578 1210 578 1194 q 563 1233 578 1225 q 517 1240 549 1240 q 474 1236 496 1240 q 426 1222 451 1232 l 407 1283 q 467 1303 433 1296 q 539 1310 500 1310 q 639 1288 603 1310 q 675 1225 675 1265 q 660 1178 675 1196 q 624 1147 644 1160 q 589 1119 604 1135 q 574 1078 574 1104 l 574 1063 l 492 1063 z "},"Ỡ":{"ha":1092,"x_min":94,"x_max":999,"o":"m 546 -12 q 358 22 442 -12 q 216 123 275 57 q 126 281 157 189 q 94 490 94 374 q 126 699 94 607 q 216 857 157 792 q 358 957 275 922 q 546 992 442 992 q 733 957 650 992 q 876 857 817 922 q 967 699 936 792 q 999 492 999 607 q 967 282 999 375 q 876 123 935 189 q 733 22 817 57 q 546 -12 650 -12 m 546 94 q 723 140 650 94 q 835 275 796 186 q 874 490 874 364 q 835 706 874 618 q 724 839 797 793 q 546 885 650 885 q 370 839 443 885 q 258 705 297 793 q 219 490 219 617 q 258 276 219 364 q 370 141 297 188 q 546 94 443 94 m 693 906 l 626 985 q 687 981 660 982 q 738 979 714 979 q 830 996 797 979 q 875 1047 863 1013 q 888 1135 888 1082 l 888 1158 l 997 1158 l 997 1118 q 973 1008 997 1056 q 904 933 949 960 q 799 906 860 906 l 693 906 m 325 1085 l 254 1089 q 281 1192 260 1150 q 337 1256 301 1235 q 417 1278 372 1278 q 481 1263 451 1278 q 543 1221 511 1247 q 592 1186 571 1199 q 636 1174 614 1174 q 698 1202 676 1174 q 729 1282 719 1231 l 799 1278 q 773 1176 794 1218 q 717 1111 751 1133 q 638 1089 683 1089 q 570 1106 600 1089 q 510 1147 540 1124 q 461 1181 483 1169 q 418 1193 439 1193 q 355 1165 376 1193 q 325 1085 333 1138 z "},"Ő":{"ha":1092,"x_min":94,"x_max":999,"o":"m 546 -12 q 358 22 442 -12 q 216 123 275 57 q 126 281 157 189 q 94 490 94 374 q 126 699 94 607 q 216 857 157 792 q 358 957 275 922 q 546 992 442 992 q 733 957 650 992 q 876 857 817 922 q 967 699 936 792 q 999 492 999 607 q 967 282 999 375 q 876 123 935 189 q 733 22 817 57 q 546 -12 650 -12 m 546 94 q 723 140 650 94 q 835 275 796 186 q 874 490 874 364 q 835 706 874 618 q 724 839 797 793 q 546 885 650 885 q 370 839 443 885 q 258 705 297 793 q 219 490 219 617 q 258 276 219 364 q 370 141 297 188 q 546 94 443 94 m 419 1063 l 539 1301 l 658 1301 l 492 1063 l 419 1063 m 600 1063 l 726 1301 l 846 1301 l 672 1063 l 600 1063 z "},"Ȏ":{"ha":1092,"x_min":94,"x_max":999,"o":"m 546 -12 q 358 22 442 -12 q 216 123 275 57 q 126 281 157 189 q 94 490 94 374 q 126 699 94 607 q 216 857 157 792 q 358 957 275 922 q 546 992 442 992 q 733 957 650 992 q 876 857 817 922 q 967 699 936 792 q 999 492 999 607 q 967 282 999 375 q 876 123 935 189 q 733 22 817 57 q 546 -12 650 -12 m 546 94 q 723 140 650 94 q 835 275 796 186 q 874 490 874 364 q 835 706 874 618 q 724 839 797 793 q 546 885 650 885 q 370 839 443 885 q 258 705 297 793 q 219 490 219 617 q 258 276 219 364 q 370 141 297 188 q 546 94 443 94 m 386 1056 l 308 1065 q 382 1239 317 1176 q 546 1301 447 1301 q 711 1238 646 1301 q 785 1065 776 1175 l 707 1056 q 659 1176 701 1132 q 546 1219 617 1219 q 434 1176 476 1219 q 386 1056 392 1133 z "},"Ō":{"ha":1092,"x_min":94,"x_max":999,"o":"m 546 -12 q 358 22 442 -12 q 216 123 275 57 q 126 281 157 189 q 94 490 94 374 q 126 699 94 607 q 216 857 157 792 q 358 957 275 922 q 546 992 442 992 q 733 957 650 992 q 876 857 817 922 q 967 699 936 792 q 999 492 999 607 q 967 282 999 375 q 876 123 935 189 q 733 22 817 57 q 546 -12 650 -12 m 546 94 q 723 140 650 94 q 835 275 796 186 q 874 490 874 364 q 835 706 874 618 q 724 839 797 793 q 546 885 650 885 q 370 839 443 885 q 258 705 297 793 q 219 490 219 617 q 258 276 219 364 q 370 141 297 188 q 546 94 443 94 m 317 1129 l 317 1214 l 775 1214 l 775 1129 l 317 1129 z "},"Ṓ":{"ha":1092,"x_min":94,"x_max":999,"o":"m 546 -12 q 358 22 442 -12 q 216 123 275 57 q 126 281 157 189 q 94 490 94 374 q 126 699 94 607 q 216 857 157 792 q 358 957 275 922 q 546 992 442 992 q 733 957 650 992 q 876 857 817 922 q 967 699 936 792 q 999 492 999 607 q 967 282 999 375 q 876 123 935 189 q 733 22 817 57 q 546 -12 650 -12 m 546 94 q 723 140 650 94 q 835 275 796 186 q 874 490 874 364 q 835 706 874 618 q 724 839 797 793 q 546 885 650 885 q 370 839 443 885 q 258 705 297 793 q 219 490 219 617 q 258 276 219 364 q 370 141 297 188 q 546 94 443 94 m 335 1099 l 335 1181 l 757 1181 l 757 1099 l 335 1099 m 501 1233 l 619 1431 l 750 1431 l 586 1233 l 501 1233 z "},"Ṑ":{"ha":1092,"x_min":94,"x_max":999,"o":"m 546 -12 q 358 22 442 -12 q 216 123 275 57 q 126 281 157 189 q 94 490 94 374 q 126 699 94 607 q 216 857 157 792 q 358 957 275 922 q 546 992 442 992 q 733 957 650 992 q 876 857 817 922 q 967 699 936 792 q 999 492 999 607 q 967 282 999 375 q 876 123 935 189 q 733 22 817 57 q 546 -12 650 -12 m 546 94 q 723 140 650 94 q 835 275 796 186 q 874 490 874 364 q 835 706 874 618 q 724 839 797 793 q 546 885 650 885 q 370 839 443 885 q 258 705 297 793 q 219 490 219 617 q 258 276 219 364 q 370 141 297 188 q 546 94 443 94 m 506 1233 l 343 1431 l 472 1431 l 590 1233 l 506 1233 m 335 1099 l 335 1181 l 757 1181 l 757 1099 l 335 1099 z "},"Ǫ":{"ha":1092,"x_min":94,"x_max":999,"o":"m 546 -12 q 358 22 442 -12 q 216 123 275 57 q 126 281 157 189 q 94 490 94 374 q 126 699 94 607 q 216 857 157 792 q 358 957 275 922 q 546 992 442 992 q 733 957 650 992 q 876 857 817 922 q 967 699 936 792 q 999 492 999 607 q 967 282 999 375 q 876 123 935 189 q 733 22 817 57 q 546 -12 650 -12 m 546 94 q 723 140 650 94 q 835 275 796 186 q 874 490 874 364 q 835 706 874 618 q 724 839 797 793 q 546 885 650 885 q 370 839 443 885 q 258 705 297 793 q 219 490 219 617 q 258 276 219 364 q 370 141 297 188 q 546 94 443 94 m 603 -269 q 494 -233 535 -269 q 453 -135 453 -196 q 490 -29 453 -79 q 588 51 526 21 l 631 0 q 588 -27 610 -10 q 553 -68 567 -44 q 539 -119 539 -92 q 562 -176 539 -158 q 617 -193 585 -193 q 654 -190 636 -193 q 692 -178 672 -186 l 713 -246 q 664 -263 692 -257 q 603 -269 636 -269 z "},"Ø":{"ha":1092,"x_min":94,"x_max":999,"o":"m 546 -12 q 358 22 442 -12 q 216 123 275 57 q 126 281 157 189 q 94 490 94 374 q 126 699 94 607 q 216 857 157 792 q 358 957 275 922 q 546 992 442 992 q 733 957 650 992 q 876 857 817 922 q 967 699 936 792 q 999 492 999 607 q 967 282 999 375 q 876 123 935 189 q 733 22 817 57 q 546 -12 650 -12 m 546 94 q 723 140 650 94 q 835 275 796 186 q 874 490 874 364 q 835 706 874 618 q 724 839 797 793 q 546 885 650 885 q 370 839 443 885 q 258 705 297 793 q 219 490 219 617 q 258 276 219 364 q 370 141 297 188 q 546 94 443 94 m 283 -65 l 197 -15 l 275 117 l 313 175 l 715 865 l 742 918 l 819 1050 l 904 1000 l 826 868 l 789 810 l 386 119 l 360 67 l 283 -65 z "},"Ǿ":{"ha":1092,"x_min":94,"x_max":999,"o":"m 546 -12 q 358 22 442 -12 q 216 123 275 57 q 126 281 157 189 q 94 490 94 374 q 126 699 94 607 q 216 857 157 792 q 358 957 275 922 q 546 992 442 992 q 733 957 650 992 q 876 857 817 922 q 967 699 936 792 q 999 492 999 607 q 967 282 999 375 q 876 123 935 189 q 733 22 817 57 q 546 -12 650 -12 m 546 94 q 723 140 650 94 q 835 275 796 186 q 874 490 874 364 q 835 706 874 618 q 724 839 797 793 q 546 885 650 885 q 370 839 443 885 q 258 705 297 793 q 219 490 219 617 q 258 276 219 364 q 370 141 297 188 q 546 94 443 94 m 283 -65 l 197 -15 l 275 117 l 313 175 l 715 865 l 742 918 l 819 1050 l 904 1000 l 826 868 l 789 810 l 386 119 l 360 67 l 283 -65 m 499 1063 l 663 1301 l 800 1301 l 593 1063 l 499 1063 z "},"Õ":{"ha":1092,"x_min":94,"x_max":999,"o":"m 546 -12 q 358 22 442 -12 q 216 123 275 57 q 126 281 157 189 q 94 490 94 374 q 126 699 94 607 q 216 857 157 792 q 358 957 275 922 q 546 992 442 992 q 733 957 650 992 q 876 857 817 922 q 967 699 936 792 q 999 492 999 607 q 967 282 999 375 q 876 123 935 189 q 733 22 817 57 q 546 -12 650 -12 m 546 94 q 723 140 650 94 q 835 275 796 186 q 874 490 874 364 q 835 706 874 618 q 724 839 797 793 q 546 885 650 885 q 370 839 443 885 q 258 705 297 793 q 219 490 219 617 q 258 276 219 364 q 370 141 297 188 q 546 94 443 94 m 325 1085 l 253 1089 q 307 1228 263 1179 q 421 1278 351 1278 q 491 1263 457 1278 q 565 1221 525 1247 q 628 1185 604 1196 q 672 1175 651 1175 q 735 1202 713 1175 q 767 1282 758 1229 l 839 1278 q 786 1138 831 1188 q 672 1089 742 1089 q 602 1105 638 1089 q 525 1147 567 1121 q 465 1181 490 1171 q 419 1192 440 1192 q 356 1165 379 1192 q 325 1085 333 1138 z "},"Ṍ":{"ha":1092,"x_min":94,"x_max":999,"o":"m 546 -12 q 358 22 442 -12 q 216 123 275 57 q 126 281 157 189 q 94 490 94 374 q 126 699 94 607 q 216 857 157 792 q 358 957 275 922 q 546 992 442 992 q 733 957 650 992 q 876 857 817 922 q 967 699 936 792 q 999 492 999 607 q 967 282 999 375 q 876 123 935 189 q 733 22 817 57 q 546 -12 650 -12 m 546 94 q 723 140 650 94 q 835 275 796 186 q 874 490 874 364 q 835 706 874 618 q 724 839 797 793 q 546 885 650 885 q 370 839 443 885 q 258 705 297 793 q 219 490 219 617 q 258 276 219 364 q 370 141 297 188 q 546 94 443 94 m 503 1232 l 622 1429 l 751 1429 l 589 1232 l 503 1232 m 639 1065 q 585 1076 610 1065 q 531 1107 561 1088 q 490 1132 507 1125 q 457 1139 474 1139 q 410 1121 426 1139 q 388 1064 394 1103 l 321 1067 q 342 1148 325 1115 q 387 1197 358 1181 q 454 1213 415 1213 q 505 1203 481 1213 q 558 1174 529 1193 q 602 1149 585 1157 q 635 1140 619 1140 q 682 1158 667 1140 q 704 1215 697 1176 l 771 1211 q 731 1102 765 1139 q 639 1065 696 1065 z "},"Ṏ":{"ha":1092,"x_min":94,"x_max":999,"o":"m 546 -12 q 358 22 442 -12 q 216 123 275 57 q 126 281 157 189 q 94 490 94 374 q 126 699 94 607 q 216 857 157 792 q 358 957 275 922 q 546 992 442 992 q 733 957 650 992 q 876 857 817 922 q 967 699 936 792 q 999 492 999 607 q 967 282 999 375 q 876 123 935 189 q 733 22 817 57 q 546 -12 650 -12 m 546 94 q 723 140 650 94 q 835 275 796 186 q 874 490 874 364 q 835 706 874 618 q 724 839 797 793 q 546 885 650 885 q 370 839 443 885 q 258 705 297 793 q 219 490 219 617 q 258 276 219 364 q 370 141 297 188 q 546 94 443 94 m 639 1065 q 585 1076 610 1065 q 531 1107 561 1088 q 490 1132 507 1125 q 457 1139 474 1139 q 410 1121 426 1139 q 388 1064 394 1103 l 321 1067 q 342 1148 325 1115 q 387 1197 358 1181 q 454 1213 415 1213 q 505 1203 481 1213 q 558 1174 529 1193 q 602 1149 585 1157 q 635 1140 619 1140 q 682 1158 667 1140 q 704 1215 697 1176 l 771 1211 q 731 1102 765 1139 q 639 1065 696 1065 m 356 1271 l 356 1378 l 483 1378 l 483 1271 l 356 1271 m 608 1271 l 608 1378 l 736 1378 l 736 1271 l 608 1271 z "},"Ȭ":{"ha":1092,"x_min":94,"x_max":999,"o":"m 546 -12 q 358 22 442 -12 q 216 123 275 57 q 126 281 157 189 q 94 490 94 374 q 126 699 94 607 q 216 857 157 792 q 358 957 275 922 q 546 992 442 992 q 733 957 650 992 q 876 857 817 922 q 967 699 936 792 q 999 492 999 607 q 967 282 999 375 q 876 123 935 189 q 733 22 817 57 q 546 -12 650 -12 m 546 94 q 723 140 650 94 q 835 275 796 186 q 874 490 874 364 q 835 706 874 618 q 724 839 797 793 q 546 885 650 885 q 370 839 443 885 q 258 705 297 793 q 219 490 219 617 q 258 276 219 364 q 370 141 297 188 q 546 94 443 94 m 332 1289 l 332 1371 l 760 1371 l 760 1289 l 332 1289 m 639 1065 q 585 1076 610 1065 q 531 1107 561 1088 q 490 1132 507 1125 q 457 1139 474 1139 q 410 1121 426 1139 q 388 1064 394 1103 l 321 1067 q 342 1148 325 1115 q 387 1197 358 1181 q 454 1213 415 1213 q 505 1203 481 1213 q 558 1174 529 1193 q 602 1149 585 1157 q 635 1140 619 1140 q 682 1158 667 1140 q 704 1215 697 1176 l 771 1211 q 731 1102 765 1139 q 639 1065 696 1065 z "},"Œ":{"ha":1497,"x_min":94,"x_max":1410,"o":"m 589 0 q 377 33 469 0 q 222 128 285 65 q 127 282 160 192 q 94 490 94 372 q 127 698 94 607 q 223 852 160 789 q 378 947 286 915 q 589 979 469 979 l 1410 979 l 1410 878 l 899 878 l 899 547 l 1381 547 l 1381 446 l 899 446 l 899 101 l 1410 101 l 1410 0 l 589 0 m 596 103 l 782 103 l 782 876 l 596 876 q 314 780 408 876 q 219 490 219 683 q 314 199 219 296 q 596 103 408 103 z "},"P":{"ha":917,"x_min":132,"x_max":857,"o":"m 132 0 l 132 979 l 528 979 q 707 944 633 979 q 819 844 781 910 q 857 685 857 779 q 818 526 857 592 q 706 424 779 460 q 528 389 633 389 l 251 389 l 251 0 l 132 0 m 251 489 l 513 489 q 681 538 624 489 q 738 685 738 588 q 681 831 738 782 q 513 879 624 879 l 251 879 l 251 489 z "},"Þ":{"ha":911,"x_min":132,"x_max":858,"o":"m 132 0 l 132 979 l 251 979 l 251 801 l 529 801 q 707 767 633 801 q 819 668 781 733 q 858 508 858 603 q 819 350 858 417 q 707 249 781 283 q 529 214 633 214 l 251 214 l 251 0 l 132 0 m 251 314 l 513 314 q 682 363 625 314 q 739 508 739 411 q 682 653 739 606 q 513 701 625 701 l 251 701 l 251 314 z "},"Q":{"ha":1092,"x_min":94,"x_max":999,"o":"m 819 -279 l 703 -90 q 642 -33 681 -53 q 550 -12 603 -12 l 643 28 q 721 19 689 28 q 778 -12 753 10 q 828 -76 804 -35 l 921 -225 l 819 -279 m 546 -12 q 358 22 442 -12 q 216 123 275 57 q 126 281 157 189 q 94 490 94 374 q 126 699 94 607 q 216 857 157 792 q 358 957 275 922 q 546 992 442 992 q 733 957 650 992 q 876 857 817 922 q 967 699 936 792 q 999 492 999 607 q 967 282 999 375 q 876 123 935 189 q 733 22 817 57 q 546 -12 650 -12 m 546 94 q 723 140 650 94 q 835 275 796 186 q 874 490 874 364 q 835 706 874 618 q 724 839 797 793 q 546 885 650 885 q 370 839 443 885 q 258 705 297 793 q 219 490 219 617 q 258 276 219 364 q 370 141 297 188 q 546 94 443 94 z "},"R":{"ha":963,"x_min":132,"x_max":911,"o":"m 132 0 l 132 979 l 528 979 q 771 906 686 979 q 856 697 856 833 q 821 554 856 614 q 722 461 786 494 q 567 422 657 428 l 576 433 l 597 432 q 675 403 642 429 q 739 322 708 378 l 911 0 l 781 0 l 614 310 q 568 372 593 350 q 510 401 543 393 q 432 410 478 410 l 251 410 l 251 0 l 132 0 m 251 507 l 515 507 q 683 554 628 507 q 738 694 738 601 q 682 833 738 788 q 513 879 626 879 l 251 879 l 251 507 z "},"Ŕ":{"ha":963,"x_min":132,"x_max":911,"o":"m 132 0 l 132 979 l 528 979 q 771 906 686 979 q 856 697 856 833 q 821 554 856 614 q 722 461 786 494 q 567 422 657 428 l 576 433 l 597 432 q 675 403 642 429 q 739 322 708 378 l 911 0 l 781 0 l 614 310 q 568 372 593 350 q 510 401 543 393 q 432 410 478 410 l 251 410 l 251 0 l 132 0 m 251 507 l 515 507 q 683 554 628 507 q 738 694 738 601 q 682 833 738 788 q 513 879 626 879 l 251 879 l 251 507 m 439 1063 l 603 1301 l 740 1301 l 533 1063 l 439 1063 z "},"Ř":{"ha":963,"x_min":132,"x_max":911,"o":"m 132 0 l 132 979 l 528 979 q 771 906 686 979 q 856 697 856 833 q 821 554 856 614 q 722 461 786 494 q 567 422 657 428 l 576 433 l 597 432 q 675 403 642 429 q 739 322 708 378 l 911 0 l 781 0 l 614 310 q 568 372 593 350 q 510 401 543 393 q 432 410 478 410 l 251 410 l 251 0 l 132 0 m 251 507 l 515 507 q 683 554 628 507 q 738 694 738 601 q 682 833 738 788 q 513 879 626 879 l 251 879 l 251 507 m 431 1063 l 258 1301 l 351 1301 l 486 1138 l 622 1301 l 714 1301 l 542 1063 l 431 1063 z "},"Ŗ":{"ha":963,"x_min":132,"x_max":911,"o":"m 132 0 l 132 979 l 528 979 q 771 906 686 979 q 856 697 856 833 q 821 554 856 614 q 722 461 786 494 q 567 422 657 428 l 576 433 l 597 432 q 675 403 642 429 q 739 322 708 378 l 911 0 l 781 0 l 614 310 q 568 372 593 350 q 510 401 543 393 q 432 410 478 410 l 251 410 l 251 0 l 132 0 m 251 507 l 515 507 q 683 554 628 507 q 738 694 738 601 q 682 833 738 788 q 513 879 626 879 l 251 879 l 251 507 m 485 -385 l 432 -347 q 476 -282 464 -314 q 488 -215 488 -250 l 514 -231 l 417 -231 l 417 -110 l 558 -110 l 558 -200 q 541 -301 558 -254 q 485 -385 524 -347 z "},"Ȑ":{"ha":963,"x_min":132,"x_max":911,"o":"m 132 0 l 132 979 l 528 979 q 771 906 686 979 q 856 697 856 833 q 821 554 856 614 q 722 461 786 494 q 567 422 657 428 l 576 433 l 597 432 q 675 403 642 429 q 739 322 708 378 l 911 0 l 781 0 l 614 310 q 568 372 593 350 q 510 401 543 393 q 432 410 478 410 l 251 410 l 251 0 l 132 0 m 251 507 l 515 507 q 683 554 628 507 q 738 694 738 601 q 682 833 738 788 q 513 879 626 879 l 251 879 l 251 507 m 540 1063 l 375 1301 l 494 1301 l 613 1063 l 540 1063 m 360 1063 l 186 1301 l 306 1301 l 431 1063 l 360 1063 z "},"Ṛ":{"ha":963,"x_min":132,"x_max":911,"o":"m 132 0 l 132 979 l 528 979 q 771 906 686 979 q 856 697 856 833 q 821 554 856 614 q 722 461 786 494 q 567 422 657 428 l 576 433 l 597 432 q 675 403 642 429 q 739 322 708 378 l 911 0 l 781 0 l 614 310 q 568 372 593 350 q 510 401 543 393 q 432 410 478 410 l 251 410 l 251 0 l 132 0 m 251 507 l 515 507 q 683 554 628 507 q 738 694 738 601 q 682 833 738 788 q 513 879 626 879 l 251 879 l 251 507 m 422 -262 l 422 -136 l 553 -136 l 553 -262 l 422 -262 z "},"Ȓ":{"ha":963,"x_min":132,"x_max":911,"o":"m 132 0 l 132 979 l 528 979 q 771 906 686 979 q 856 697 856 833 q 821 554 856 614 q 722 461 786 494 q 567 422 657 428 l 576 433 l 597 432 q 675 403 642 429 q 739 322 708 378 l 911 0 l 781 0 l 614 310 q 568 372 593 350 q 510 401 543 393 q 432 410 478 410 l 251 410 l 251 0 l 132 0 m 251 507 l 515 507 q 683 554 628 507 q 738 694 738 601 q 682 833 738 788 q 513 879 626 879 l 251 879 l 251 507 m 326 1056 l 249 1065 q 322 1239 257 1176 q 486 1301 388 1301 q 651 1238 586 1301 q 725 1065 717 1175 l 647 1056 q 599 1176 642 1132 q 486 1219 557 1219 q 374 1176 417 1219 q 326 1056 332 1133 z "},"Ṟ":{"ha":963,"x_min":132,"x_max":911,"o":"m 132 0 l 132 979 l 528 979 q 771 906 686 979 q 856 697 856 833 q 821 554 856 614 q 722 461 786 494 q 567 422 657 428 l 576 433 l 597 432 q 675 403 642 429 q 739 322 708 378 l 911 0 l 781 0 l 614 310 q 568 372 593 350 q 510 401 543 393 q 432 410 478 410 l 251 410 l 251 0 l 132 0 m 251 507 l 515 507 q 683 554 628 507 q 738 694 738 601 q 682 833 738 788 q 513 879 626 879 l 251 879 l 251 507 m 274 -222 l 274 -137 l 701 -137 l 701 -222 l 274 -222 z "},"S":{"ha":882,"x_min":75,"x_max":817,"o":"m 454 -12 q 307 1 376 -12 q 179 39 238 14 q 75 101 121 64 l 118 199 q 218 139 167 163 q 328 104 269 115 q 454 93 386 93 q 636 140 575 93 q 697 264 697 186 q 678 334 697 306 q 616 382 658 363 q 506 414 574 401 l 354 444 q 159 537 221 472 q 97 706 97 601 q 144 856 97 792 q 274 956 190 921 q 464 992 357 992 q 592 978 532 992 q 703 938 651 965 q 793 874 754 911 l 750 778 q 619 860 689 835 q 463 886 549 886 q 335 865 390 886 q 248 803 279 843 q 217 707 217 763 q 256 606 217 643 q 390 550 296 569 l 540 519 q 749 431 682 492 q 817 269 817 371 q 773 124 817 188 q 647 24 729 60 q 454 -12 565 -12 z "},"Ś":{"ha":882,"x_min":75,"x_max":817,"o":"m 454 -12 q 307 1 376 -12 q 179 39 238 14 q 75 101 121 64 l 118 199 q 218 139 167 163 q 328 104 269 115 q 454 93 386 93 q 636 140 575 93 q 697 264 697 186 q 678 334 697 306 q 616 382 658 363 q 506 414 574 401 l 354 444 q 159 537 221 472 q 97 706 97 601 q 144 856 97 792 q 274 956 190 921 q 464 992 357 992 q 592 978 532 992 q 703 938 651 965 q 793 874 754 911 l 750 778 q 619 860 689 835 q 463 886 549 886 q 335 865 390 886 q 248 803 279 843 q 217 707 217 763 q 256 606 217 643 q 390 550 296 569 l 540 519 q 749 431 682 492 q 817 269 817 371 q 773 124 817 188 q 647 24 729 60 q 454 -12 565 -12 m 408 1063 l 572 1301 l 710 1301 l 503 1063 l 408 1063 z "},"Ṥ":{"ha":882,"x_min":75,"x_max":817,"o":"m 454 -12 q 307 1 376 -12 q 179 39 238 14 q 75 101 121 64 l 118 199 q 218 139 167 163 q 328 104 269 115 q 454 93 386 93 q 636 140 575 93 q 697 264 697 186 q 678 334 697 306 q 616 382 658 363 q 506 414 574 401 l 354 444 q 159 537 221 472 q 97 706 97 601 q 144 856 97 792 q 274 956 190 921 q 464 992 357 992 q 592 978 532 992 q 703 938 651 965 q 793 874 754 911 l 750 778 q 619 860 689 835 q 463 886 549 886 q 335 865 390 886 q 248 803 279 843 q 217 707 217 763 q 256 606 217 643 q 390 550 296 569 l 540 519 q 749 431 682 492 q 817 269 817 371 q 773 124 817 188 q 647 24 729 60 q 454 -12 565 -12 m 326 1318 l 326 1424 l 454 1424 l 454 1318 l 326 1318 m 410 1063 l 568 1315 l 704 1315 l 503 1063 l 410 1063 z "},"Š":{"ha":882,"x_min":75,"x_max":817,"o":"m 454 -12 q 307 1 376 -12 q 179 39 238 14 q 75 101 121 64 l 118 199 q 218 139 167 163 q 328 104 269 115 q 454 93 386 93 q 636 140 575 93 q 697 264 697 186 q 678 334 697 306 q 616 382 658 363 q 506 414 574 401 l 354 444 q 159 537 221 472 q 97 706 97 601 q 144 856 97 792 q 274 956 190 921 q 464 992 357 992 q 592 978 532 992 q 703 938 651 965 q 793 874 754 911 l 750 778 q 619 860 689 835 q 463 886 549 886 q 335 865 390 886 q 248 803 279 843 q 217 707 217 763 q 256 606 217 643 q 390 550 296 569 l 540 519 q 749 431 682 492 q 817 269 817 371 q 773 124 817 188 q 647 24 729 60 q 454 -12 565 -12 m 400 1063 l 228 1301 l 321 1301 l 456 1138 l 592 1301 l 683 1301 l 511 1063 l 400 1063 z "},"Ṧ":{"ha":882,"x_min":75,"x_max":817,"o":"m 454 -12 q 307 1 376 -12 q 179 39 238 14 q 75 101 121 64 l 118 199 q 218 139 167 163 q 328 104 269 115 q 454 93 386 93 q 636 140 575 93 q 697 264 697 186 q 678 334 697 306 q 616 382 658 363 q 506 414 574 401 l 354 444 q 159 537 221 472 q 97 706 97 601 q 144 856 97 792 q 274 956 190 921 q 464 992 357 992 q 592 978 532 992 q 703 938 651 965 q 793 874 754 911 l 750 778 q 619 860 689 835 q 463 886 549 886 q 335 865 390 886 q 248 803 279 843 q 217 707 217 763 q 256 606 217 643 q 390 550 296 569 l 540 519 q 749 431 682 492 q 817 269 817 371 q 773 124 817 188 q 647 24 729 60 q 454 -12 565 -12 m 399 1063 l 244 1283 l 331 1283 l 456 1138 l 581 1283 l 667 1283 l 513 1063 l 399 1063 m 392 1346 l 392 1453 l 521 1453 l 521 1346 l 392 1346 z "},"Ş":{"ha":882,"x_min":75,"x_max":817,"o":"m 454 -12 q 307 1 376 -12 q 179 39 238 14 q 75 101 121 64 l 118 199 q 218 139 167 163 q 328 104 269 115 q 454 93 386 93 q 636 140 575 93 q 697 264 697 186 q 678 334 697 306 q 616 382 658 363 q 506 414 574 401 l 354 444 q 159 537 221 472 q 97 706 97 601 q 144 856 97 792 q 274 956 190 921 q 464 992 357 992 q 592 978 532 992 q 703 938 651 965 q 793 874 754 911 l 750 778 q 619 860 689 835 q 463 886 549 886 q 335 865 390 886 q 248 803 279 843 q 217 707 217 763 q 256 606 217 643 q 390 550 296 569 l 540 519 q 749 431 682 492 q 817 269 817 371 q 773 124 817 188 q 647 24 729 60 q 454 -12 565 -12 m 454 -269 q 383 -262 418 -269 q 325 -242 349 -256 l 344 -178 q 394 -196 371 -190 q 451 -201 418 -201 q 510 -189 488 -201 q 532 -151 532 -176 q 518 -123 532 -133 q 478 -112 504 -112 q 448 -115 464 -112 q 411 -124 432 -118 l 388 -103 l 407 28 l 481 28 l 463 -79 l 428 -68 q 463 -60 444 -62 q 496 -57 481 -57 q 557 -68 531 -57 q 599 -101 583 -79 q 615 -154 615 -122 q 594 -215 615 -189 q 538 -256 574 -242 q 454 -269 501 -269 z "},"Ŝ":{"ha":882,"x_min":75,"x_max":817,"o":"m 454 -12 q 307 1 376 -12 q 179 39 238 14 q 75 101 121 64 l 118 199 q 218 139 167 163 q 328 104 269 115 q 454 93 386 93 q 636 140 575 93 q 697 264 697 186 q 678 334 697 306 q 616 382 658 363 q 506 414 574 401 l 354 444 q 159 537 221 472 q 97 706 97 601 q 144 856 97 792 q 274 956 190 921 q 464 992 357 992 q 592 978 532 992 q 703 938 651 965 q 793 874 754 911 l 750 778 q 619 860 689 835 q 463 886 549 886 q 335 865 390 886 q 248 803 279 843 q 217 707 217 763 q 256 606 217 643 q 390 550 296 569 l 540 519 q 749 431 682 492 q 817 269 817 371 q 773 124 817 188 q 647 24 729 60 q 454 -12 565 -12 m 228 1063 l 400 1301 l 511 1301 l 683 1063 l 590 1063 l 456 1225 l 319 1063 l 228 1063 z "},"Ș":{"ha":882,"x_min":75,"x_max":817,"o":"m 454 -12 q 307 1 376 -12 q 179 39 238 14 q 75 101 121 64 l 118 199 q 218 139 167 163 q 328 104 269 115 q 454 93 386 93 q 636 140 575 93 q 697 264 697 186 q 678 334 697 306 q 616 382 658 363 q 506 414 574 401 l 354 444 q 159 537 221 472 q 97 706 97 601 q 144 856 97 792 q 274 956 190 921 q 464 992 357 992 q 592 978 532 992 q 703 938 651 965 q 793 874 754 911 l 750 778 q 619 860 689 835 q 463 886 549 886 q 335 865 390 886 q 248 803 279 843 q 217 707 217 763 q 256 606 217 643 q 390 550 296 569 l 540 519 q 749 431 682 492 q 817 269 817 371 q 773 124 817 188 q 647 24 729 60 q 454 -12 565 -12 m 446 -385 l 393 -347 q 437 -282 425 -314 q 449 -215 449 -250 l 475 -231 l 378 -231 l 378 -110 l 519 -110 l 519 -200 q 502 -301 519 -254 q 446 -385 485 -347 z "},"Ṡ":{"ha":882,"x_min":75,"x_max":817,"o":"m 454 -12 q 307 1 376 -12 q 179 39 238 14 q 75 101 121 64 l 118 199 q 218 139 167 163 q 328 104 269 115 q 454 93 386 93 q 636 140 575 93 q 697 264 697 186 q 678 334 697 306 q 616 382 658 363 q 506 414 574 401 l 354 444 q 159 537 221 472 q 97 706 97 601 q 144 856 97 792 q 274 956 190 921 q 464 992 357 992 q 592 978 532 992 q 703 938 651 965 q 793 874 754 911 l 750 778 q 619 860 689 835 q 463 886 549 886 q 335 865 390 886 q 248 803 279 843 q 217 707 217 763 q 256 606 217 643 q 390 550 296 569 l 540 519 q 749 431 682 492 q 817 269 817 371 q 773 124 817 188 q 647 24 729 60 q 454 -12 565 -12 m 389 1118 l 389 1247 l 522 1247 l 522 1118 l 389 1118 z "},"Ṣ":{"ha":882,"x_min":75,"x_max":817,"o":"m 454 -12 q 307 1 376 -12 q 179 39 238 14 q 75 101 121 64 l 118 199 q 218 139 167 163 q 328 104 269 115 q 454 93 386 93 q 636 140 575 93 q 697 264 697 186 q 678 334 697 306 q 616 382 658 363 q 506 414 574 401 l 354 444 q 159 537 221 472 q 97 706 97 601 q 144 856 97 792 q 274 956 190 921 q 464 992 357 992 q 592 978 532 992 q 703 938 651 965 q 793 874 754 911 l 750 778 q 619 860 689 835 q 463 886 549 886 q 335 865 390 886 q 248 803 279 843 q 217 707 217 763 q 256 606 217 643 q 390 550 296 569 l 540 519 q 749 431 682 492 q 817 269 817 371 q 773 124 817 188 q 647 24 729 60 q 454 -12 565 -12 m 383 -262 l 383 -136 l 514 -136 l 514 -262 l 383 -262 z "},"Ṩ":{"ha":882,"x_min":75,"x_max":817,"o":"m 454 -12 q 307 1 376 -12 q 179 39 238 14 q 75 101 121 64 l 118 199 q 218 139 167 163 q 328 104 269 115 q 454 93 386 93 q 636 140 575 93 q 697 264 697 186 q 678 334 697 306 q 616 382 658 363 q 506 414 574 401 l 354 444 q 159 537 221 472 q 97 706 97 601 q 144 856 97 792 q 274 956 190 921 q 464 992 357 992 q 592 978 532 992 q 703 938 651 965 q 793 874 754 911 l 750 778 q 619 860 689 835 q 463 886 549 886 q 335 865 390 886 q 248 803 279 843 q 217 707 217 763 q 256 606 217 643 q 390 550 296 569 l 540 519 q 749 431 682 492 q 817 269 817 371 q 773 124 817 188 q 647 24 729 60 q 454 -12 565 -12 m 383 -262 l 383 -136 l 514 -136 l 514 -262 l 383 -262 m 389 1118 l 389 1247 l 522 1247 l 522 1118 l 389 1118 z "},"ẞ":{"ha":1024,"x_min":132,"x_max":926,"o":"m 617 -12 q 467 9 533 -12 q 346 75 400 31 l 388 167 q 492 108 442 125 q 607 90 543 90 q 756 138 704 90 q 808 269 808 185 q 752 399 808 356 q 585 443 696 443 l 408 443 l 408 542 l 550 542 q 656 562 610 542 q 727 622 701 582 q 753 718 753 661 q 694 846 753 803 q 526 889 636 889 q 321 827 390 889 q 251 633 251 765 l 251 0 l 132 0 l 132 638 q 178 833 132 754 q 314 951 225 911 q 529 992 403 992 q 711 960 635 992 q 830 870 788 928 q 872 732 872 813 q 852 628 872 675 q 795 547 832 581 q 708 497 758 514 l 708 510 q 867 431 807 496 q 926 265 926 367 q 890 117 926 179 q 783 21 853 54 q 617 -12 714 -12 z "},"T":{"ha":863,"x_min":18,"x_max":846,"o":"m 372 0 l 372 875 l 18 875 l 18 979 l 846 979 l 846 875 l 492 875 l 492 0 l 372 0 z "},"Ŧ":{"ha":863,"x_min":18,"x_max":846,"o":"m 372 0 l 372 875 l 18 875 l 18 979 l 846 979 l 846 875 l 492 875 l 492 0 l 372 0 m 171 442 l 171 538 l 693 538 l 693 442 l 171 442 z "},"Ť":{"ha":863,"x_min":18,"x_max":846,"o":"m 372 0 l 372 875 l 18 875 l 18 979 l 846 979 l 846 875 l 492 875 l 492 0 l 372 0 m 376 1063 l 204 1301 l 297 1301 l 432 1138 l 568 1301 l 660 1301 l 488 1063 l 376 1063 z "},"Ţ":{"ha":863,"x_min":18,"x_max":846,"o":"m 372 0 l 372 875 l 18 875 l 18 979 l 846 979 l 846 875 l 492 875 l 492 0 l 372 0 m 438 -269 q 367 -262 401 -269 q 308 -242 332 -256 l 328 -178 q 378 -196 354 -190 q 435 -201 401 -201 q 493 -189 471 -201 q 515 -151 515 -176 q 501 -123 515 -133 q 461 -112 488 -112 q 431 -115 447 -112 q 394 -124 415 -118 l 371 -103 l 390 28 l 464 28 l 446 -79 l 411 -68 q 446 -60 428 -62 q 479 -57 464 -57 q 540 -68 514 -57 q 583 -101 567 -79 q 599 -154 599 -122 q 578 -215 599 -189 q 521 -256 557 -242 q 438 -269 485 -269 z "},"Ț":{"ha":863,"x_min":18,"x_max":846,"o":"m 372 0 l 372 875 l 18 875 l 18 979 l 846 979 l 846 875 l 492 875 l 492 0 l 372 0 m 429 -385 l 376 -347 q 420 -282 408 -314 q 432 -215 432 -250 l 458 -231 l 361 -231 l 361 -110 l 503 -110 l 503 -200 q 485 -301 503 -254 q 429 -385 468 -347 z "},"Ṭ":{"ha":863,"x_min":18,"x_max":846,"o":"m 372 0 l 372 875 l 18 875 l 18 979 l 846 979 l 846 875 l 492 875 l 492 0 l 372 0 m 367 -262 l 367 -136 l 497 -136 l 497 -262 l 367 -262 z "},"Ṯ":{"ha":863,"x_min":18,"x_max":846,"o":"m 372 0 l 372 875 l 18 875 l 18 979 l 846 979 l 846 875 l 492 875 l 492 0 l 372 0 m 218 -222 l 218 -137 l 646 -137 l 646 -222 l 218 -222 z "},"U":{"ha":1031,"x_min":124,"x_max":907,"o":"m 515 -12 q 224 88 324 -12 q 124 385 124 189 l 124 979 l 242 979 l 242 388 q 312 167 242 239 q 515 96 382 96 q 719 167 650 96 q 789 388 789 239 l 789 979 l 907 979 l 907 385 q 807 88 907 189 q 515 -12 707 -12 z "},"Ú":{"ha":1031,"x_min":124,"x_max":907,"o":"m 515 -12 q 224 88 324 -12 q 124 385 124 189 l 124 979 l 242 979 l 242 388 q 312 167 242 239 q 515 96 382 96 q 719 167 650 96 q 789 388 789 239 l 789 979 l 907 979 l 907 385 q 807 88 907 189 q 515 -12 707 -12 m 468 1063 l 632 1301 l 769 1301 l 563 1063 l 468 1063 z "},"Ŭ":{"ha":1031,"x_min":124,"x_max":907,"o":"m 515 -12 q 224 88 324 -12 q 124 385 124 189 l 124 979 l 242 979 l 242 388 q 312 167 242 239 q 515 96 382 96 q 719 167 650 96 q 789 388 789 239 l 789 979 l 907 979 l 907 385 q 807 88 907 189 q 515 -12 707 -12 m 515 1056 q 351 1119 417 1056 q 278 1292 286 1182 l 354 1301 q 403 1182 361 1225 q 515 1139 444 1139 q 628 1183 586 1139 q 676 1301 671 1226 l 754 1292 q 680 1119 744 1182 q 515 1056 615 1056 z "},"Û":{"ha":1031,"x_min":124,"x_max":907,"o":"m 515 -12 q 224 88 324 -12 q 124 385 124 189 l 124 979 l 242 979 l 242 388 q 312 167 242 239 q 515 96 382 96 q 719 167 650 96 q 789 388 789 239 l 789 979 l 907 979 l 907 385 q 807 88 907 189 q 515 -12 707 -12 m 288 1063 l 460 1301 l 571 1301 l 743 1063 l 650 1063 l 515 1225 l 379 1063 l 288 1063 z "},"Ȕ":{"ha":1031,"x_min":124,"x_max":907,"o":"m 515 -12 q 224 88 324 -12 q 124 385 124 189 l 124 979 l 242 979 l 242 388 q 312 167 242 239 q 515 96 382 96 q 719 167 650 96 q 789 388 789 239 l 789 979 l 907 979 l 907 385 q 807 88 907 189 q 515 -12 707 -12 m 569 1063 l 404 1301 l 524 1301 l 642 1063 l 569 1063 m 389 1063 l 215 1301 l 335 1301 l 460 1063 l 389 1063 z "},"Ü":{"ha":1031,"x_min":124,"x_max":907,"o":"m 515 -12 q 224 88 324 -12 q 124 385 124 189 l 124 979 l 242 979 l 242 388 q 312 167 242 239 q 515 96 382 96 q 719 167 650 96 q 789 388 789 239 l 789 979 l 907 979 l 907 385 q 807 88 907 189 q 515 -12 707 -12 m 579 1117 l 579 1242 l 707 1242 l 707 1117 l 579 1117 m 324 1117 l 324 1242 l 451 1242 l 451 1117 l 324 1117 z "},"Ụ":{"ha":1031,"x_min":124,"x_max":907,"o":"m 515 -12 q 224 88 324 -12 q 124 385 124 189 l 124 979 l 242 979 l 242 388 q 312 167 242 239 q 515 96 382 96 q 719 167 650 96 q 789 388 789 239 l 789 979 l 907 979 l 907 385 q 807 88 907 189 q 515 -12 707 -12 m 450 -262 l 450 -136 l 581 -136 l 581 -262 l 450 -262 z "},"Ù":{"ha":1031,"x_min":124,"x_max":907,"o":"m 515 -12 q 224 88 324 -12 q 124 385 124 189 l 124 979 l 242 979 l 242 388 q 312 167 242 239 q 515 96 382 96 q 719 167 650 96 q 789 388 789 239 l 789 979 l 907 979 l 907 385 q 807 88 907 189 q 515 -12 707 -12 m 471 1063 l 263 1301 l 399 1301 l 563 1063 l 471 1063 z "},"Ủ":{"ha":1031,"x_min":124,"x_max":907,"o":"m 515 -12 q 224 88 324 -12 q 124 385 124 189 l 124 979 l 242 979 l 242 388 q 312 167 242 239 q 515 96 382 96 q 719 167 650 96 q 789 388 789 239 l 789 979 l 907 979 l 907 385 q 807 88 907 189 q 515 -12 707 -12 m 475 1063 l 475 1085 q 488 1130 475 1113 q 518 1160 501 1147 q 548 1183 535 1172 q 561 1210 561 1194 q 547 1233 561 1225 q 500 1240 532 1240 q 457 1236 479 1240 q 410 1222 435 1232 l 390 1283 q 450 1303 417 1296 q 522 1310 483 1310 q 622 1288 586 1310 q 658 1225 658 1265 q 643 1178 658 1196 q 608 1147 628 1160 q 572 1119 588 1135 q 557 1078 557 1104 l 557 1063 l 475 1063 z "},"Ư":{"ha":1031,"x_min":124,"x_max":1069,"o":"m 515 -12 q 224 88 324 -12 q 124 385 124 189 l 124 979 l 242 979 l 242 388 q 312 167 242 239 q 515 96 382 96 q 719 167 650 96 q 789 388 789 239 l 789 979 l 907 979 l 907 385 q 807 88 907 189 q 515 -12 707 -12 m 875 906 l 810 950 l 810 979 q 900 997 868 981 q 946 1047 932 1013 q 960 1135 960 1081 l 960 1158 l 1069 1158 l 1069 1118 q 1047 1010 1069 1056 q 980 937 1024 964 q 875 906 936 910 z "},"Ứ":{"ha":1031,"x_min":124,"x_max":1069,"o":"m 515 -12 q 224 88 324 -12 q 124 385 124 189 l 124 979 l 242 979 l 242 388 q 312 167 242 239 q 515 96 382 96 q 719 167 650 96 q 789 388 789 239 l 789 979 l 907 979 l 907 385 q 807 88 907 189 q 515 -12 707 -12 m 875 906 l 810 950 l 810 979 q 900 997 868 981 q 946 1047 932 1013 q 960 1135 960 1081 l 960 1158 l 1069 1158 l 1069 1118 q 1047 1010 1069 1056 q 980 937 1024 964 q 875 906 936 910 m 468 1063 l 632 1301 l 769 1301 l 563 1063 l 468 1063 z "},"Ự":{"ha":1031,"x_min":124,"x_max":1069,"o":"m 515 -12 q 224 88 324 -12 q 124 385 124 189 l 124 979 l 242 979 l 242 388 q 312 167 242 239 q 515 96 382 96 q 719 167 650 96 q 789 388 789 239 l 789 979 l 907 979 l 907 385 q 807 88 907 189 q 515 -12 707 -12 m 875 906 l 810 950 l 810 979 q 900 997 868 981 q 946 1047 932 1013 q 960 1135 960 1081 l 960 1158 l 1069 1158 l 1069 1118 q 1047 1010 1069 1056 q 980 937 1024 964 q 875 906 936 910 m 450 -262 l 450 -136 l 581 -136 l 581 -262 l 450 -262 z "},"Ừ":{"ha":1031,"x_min":124,"x_max":1069,"o":"m 515 -12 q 224 88 324 -12 q 124 385 124 189 l 124 979 l 242 979 l 242 388 q 312 167 242 239 q 515 96 382 96 q 719 167 650 96 q 789 388 789 239 l 789 979 l 907 979 l 907 385 q 807 88 907 189 q 515 -12 707 -12 m 875 906 l 810 950 l 810 979 q 900 997 868 981 q 946 1047 932 1013 q 960 1135 960 1081 l 960 1158 l 1069 1158 l 1069 1118 q 1047 1010 1069 1056 q 980 937 1024 964 q 875 906 936 910 m 471 1063 l 263 1301 l 399 1301 l 563 1063 l 471 1063 z "},"Ử":{"ha":1031,"x_min":124,"x_max":1069,"o":"m 515 -12 q 224 88 324 -12 q 124 385 124 189 l 124 979 l 242 979 l 242 388 q 312 167 242 239 q 515 96 382 96 q 719 167 650 96 q 789 388 789 239 l 789 979 l 907 979 l 907 385 q 807 88 907 189 q 515 -12 707 -12 m 875 906 l 810 950 l 810 979 q 900 997 868 981 q 946 1047 932 1013 q 960 1135 960 1081 l 960 1158 l 1069 1158 l 1069 1118 q 1047 1010 1069 1056 q 980 937 1024 964 q 875 906 936 910 m 475 1063 l 475 1085 q 488 1130 475 1113 q 518 1160 501 1147 q 548 1183 535 1172 q 561 1210 561 1194 q 547 1233 561 1225 q 500 1240 532 1240 q 457 1236 479 1240 q 410 1222 435 1232 l 390 1283 q 450 1303 417 1296 q 522 1310 483 1310 q 622 1288 586 1310 q 658 1225 658 1265 q 643 1178 658 1196 q 608 1147 628 1160 q 572 1119 588 1135 q 557 1078 557 1104 l 557 1063 l 475 1063 z "},"Ữ":{"ha":1031,"x_min":124,"x_max":1069,"o":"m 515 -12 q 224 88 324 -12 q 124 385 124 189 l 124 979 l 242 979 l 242 388 q 312 167 242 239 q 515 96 382 96 q 719 167 650 96 q 789 388 789 239 l 789 979 l 907 979 l 907 385 q 807 88 907 189 q 515 -12 707 -12 m 875 906 l 810 950 l 810 979 q 900 997 868 981 q 946 1047 932 1013 q 960 1135 960 1081 l 960 1158 l 1069 1158 l 1069 1118 q 1047 1010 1069 1056 q 980 937 1024 964 q 875 906 936 910 m 308 1085 l 238 1089 q 264 1192 243 1150 q 320 1256 285 1235 q 400 1278 356 1278 q 465 1263 435 1278 q 526 1221 494 1247 q 576 1186 554 1199 q 619 1174 597 1174 q 681 1202 660 1174 q 713 1282 703 1231 l 782 1278 q 756 1176 778 1218 q 701 1111 735 1133 q 621 1089 667 1089 q 553 1106 583 1089 q 493 1147 524 1124 q 444 1181 467 1169 q 401 1193 422 1193 q 338 1165 360 1193 q 308 1085 317 1138 z "},"Ű":{"ha":1031,"x_min":124,"x_max":907,"o":"m 515 -12 q 224 88 324 -12 q 124 385 124 189 l 124 979 l 242 979 l 242 388 q 312 167 242 239 q 515 96 382 96 q 719 167 650 96 q 789 388 789 239 l 789 979 l 907 979 l 907 385 q 807 88 907 189 q 515 -12 707 -12 m 389 1063 l 508 1301 l 628 1301 l 461 1063 l 389 1063 m 569 1063 l 696 1301 l 815 1301 l 642 1063 l 569 1063 z "},"Ȗ":{"ha":1031,"x_min":124,"x_max":907,"o":"m 515 -12 q 224 88 324 -12 q 124 385 124 189 l 124 979 l 242 979 l 242 388 q 312 167 242 239 q 515 96 382 96 q 719 167 650 96 q 789 388 789 239 l 789 979 l 907 979 l 907 385 q 807 88 907 189 q 515 -12 707 -12 m 356 1056 l 278 1065 q 351 1239 286 1176 q 515 1301 417 1301 q 681 1238 615 1301 q 754 1065 746 1175 l 676 1056 q 628 1176 671 1132 q 515 1219 586 1219 q 403 1176 446 1219 q 356 1056 361 1133 z "},"Ū":{"ha":1031,"x_min":124,"x_max":907,"o":"m 515 -12 q 224 88 324 -12 q 124 385 124 189 l 124 979 l 242 979 l 242 388 q 312 167 242 239 q 515 96 382 96 q 719 167 650 96 q 789 388 789 239 l 789 979 l 907 979 l 907 385 q 807 88 907 189 q 515 -12 707 -12 m 286 1129 l 286 1214 l 744 1214 l 744 1129 l 286 1129 z "},"Ṻ":{"ha":1031,"x_min":124,"x_max":907,"o":"m 515 -12 q 224 88 324 -12 q 124 385 124 189 l 124 979 l 242 979 l 242 388 q 312 167 242 239 q 515 96 382 96 q 719 167 650 96 q 789 388 789 239 l 789 979 l 907 979 l 907 385 q 807 88 907 189 q 515 -12 707 -12 m 301 1108 l 301 1192 l 729 1192 l 729 1108 l 301 1108 m 325 1268 l 325 1375 l 453 1375 l 453 1268 l 325 1268 m 578 1268 l 578 1375 l 706 1375 l 706 1268 l 578 1268 z "},"Ų":{"ha":1031,"x_min":124,"x_max":907,"o":"m 515 -12 q 224 88 324 -12 q 124 385 124 189 l 124 979 l 242 979 l 242 388 q 312 167 242 239 q 515 96 382 96 q 719 167 650 96 q 789 388 789 239 l 789 979 l 907 979 l 907 385 q 807 88 907 189 q 515 -12 707 -12 m 567 -269 q 458 -233 499 -269 q 417 -135 417 -196 q 453 -29 417 -79 q 551 51 490 21 l 594 0 q 552 -27 574 -10 q 517 -68 531 -44 q 503 -119 503 -92 q 526 -176 503 -158 q 581 -193 549 -193 q 618 -190 600 -193 q 656 -178 636 -186 l 676 -246 q 628 -263 656 -257 q 567 -269 600 -269 z "},"Ů":{"ha":1031,"x_min":124,"x_max":907,"o":"m 515 -12 q 224 88 324 -12 q 124 385 124 189 l 124 979 l 242 979 l 242 388 q 312 167 242 239 q 515 96 382 96 q 719 167 650 96 q 789 388 789 239 l 789 979 l 907 979 l 907 385 q 807 88 907 189 q 515 -12 707 -12 m 515 1051 q 431 1074 468 1051 q 371 1133 393 1096 q 349 1214 349 1169 q 370 1296 349 1260 q 430 1353 392 1332 q 515 1375 468 1375 q 601 1353 563 1375 q 660 1296 639 1332 q 682 1214 682 1260 q 660 1133 682 1169 q 601 1074 639 1096 q 515 1051 564 1051 m 515 1115 q 586 1144 558 1115 q 614 1214 614 1172 q 587 1284 614 1256 q 515 1313 560 1313 q 444 1284 472 1313 q 417 1214 417 1256 q 444 1144 417 1172 q 515 1115 472 1115 z "},"Ũ":{"ha":1031,"x_min":124,"x_max":907,"o":"m 515 -12 q 224 88 324 -12 q 124 385 124 189 l 124 979 l 242 979 l 242 388 q 312 167 242 239 q 515 96 382 96 q 719 167 650 96 q 789 388 789 239 l 789 979 l 907 979 l 907 385 q 807 88 907 189 q 515 -12 707 -12 m 294 1085 l 222 1089 q 276 1228 232 1179 q 390 1278 321 1278 q 460 1263 426 1278 q 535 1221 494 1247 q 597 1185 574 1196 q 642 1175 621 1175 q 705 1202 682 1175 q 736 1282 728 1229 l 808 1278 q 756 1138 800 1188 q 642 1089 711 1089 q 572 1105 607 1089 q 494 1147 536 1121 q 435 1181 460 1171 q 389 1192 410 1192 q 326 1165 349 1192 q 294 1085 303 1138 z "},"Ṹ":{"ha":1031,"x_min":124,"x_max":907,"o":"m 515 -12 q 224 88 324 -12 q 124 385 124 189 l 124 979 l 242 979 l 242 388 q 312 167 242 239 q 515 96 382 96 q 719 167 650 96 q 789 388 789 239 l 789 979 l 907 979 l 907 385 q 807 88 907 189 q 515 -12 707 -12 m 472 1232 l 592 1429 l 721 1429 l 558 1232 l 472 1232 m 608 1065 q 555 1076 579 1065 q 500 1107 531 1088 q 460 1132 476 1125 q 426 1139 443 1139 q 380 1121 396 1139 q 357 1064 364 1103 l 290 1067 q 311 1148 294 1115 q 356 1197 328 1181 q 424 1213 385 1213 q 474 1203 450 1213 q 528 1174 499 1193 q 572 1149 554 1157 q 604 1140 589 1140 q 651 1158 636 1140 q 674 1215 667 1176 l 740 1211 q 700 1102 735 1139 q 608 1065 665 1065 z "},"V":{"ha":960,"x_min":1,"x_max":958,"o":"m 426 0 l 1 979 l 129 979 l 496 118 l 468 118 l 833 979 l 958 979 l 533 0 l 426 0 z "},"W":{"ha":1535,"x_min":53,"x_max":1483,"o":"m 381 0 l 53 979 l 176 979 l 456 124 l 425 124 l 721 979 l 817 979 l 1110 122 l 1083 122 l 1364 979 l 1483 979 l 1154 0 l 1044 0 l 760 828 l 776 828 l 488 0 l 381 0 z "},"Ẃ":{"ha":1535,"x_min":53,"x_max":1483,"o":"m 381 0 l 53 979 l 176 979 l 456 124 l 425 124 l 721 979 l 817 979 l 1110 122 l 1083 122 l 1364 979 l 1483 979 l 1154 0 l 1044 0 l 760 828 l 776 828 l 488 0 l 381 0 m 721 1063 l 885 1301 l 1022 1301 l 815 1063 l 721 1063 z "},"Ŵ":{"ha":1535,"x_min":53,"x_max":1483,"o":"m 381 0 l 53 979 l 176 979 l 456 124 l 425 124 l 721 979 l 817 979 l 1110 122 l 1083 122 l 1364 979 l 1483 979 l 1154 0 l 1044 0 l 760 828 l 776 828 l 488 0 l 381 0 m 540 1063 l 713 1301 l 824 1301 l 996 1063 l 903 1063 l 768 1225 l 632 1063 l 540 1063 z "},"Ẅ":{"ha":1535,"x_min":53,"x_max":1483,"o":"m 381 0 l 53 979 l 176 979 l 456 124 l 425 124 l 721 979 l 817 979 l 1110 122 l 1083 122 l 1364 979 l 1483 979 l 1154 0 l 1044 0 l 760 828 l 776 828 l 488 0 l 381 0 m 832 1117 l 832 1242 l 960 1242 l 960 1117 l 832 1117 m 576 1117 l 576 1242 l 704 1242 l 704 1117 l 576 1117 z "},"Ẁ":{"ha":1535,"x_min":53,"x_max":1483,"o":"m 381 0 l 53 979 l 176 979 l 456 124 l 425 124 l 721 979 l 817 979 l 1110 122 l 1083 122 l 1364 979 l 1483 979 l 1154 0 l 1044 0 l 760 828 l 776 828 l 488 0 l 381 0 m 724 1063 l 515 1301 l 651 1301 l 815 1063 l 724 1063 z "},"X":{"ha":921,"x_min":24,"x_max":897,"o":"m 24 0 l 399 524 l 400 479 l 42 979 l 181 979 l 472 567 l 450 567 l 742 979 l 881 979 l 521 479 l 521 524 l 897 0 l 757 0 l 446 439 l 474 439 l 164 0 l 24 0 z "},"Y":{"ha":846,"x_min":-8,"x_max":854,"o":"m 363 0 l 363 508 l 388 422 l -8 979 l 128 979 l 433 550 l 415 550 l 721 979 l 854 979 l 458 422 l 482 508 l 482 0 l 363 0 z "},"Ý":{"ha":846,"x_min":-8,"x_max":854,"o":"m 363 0 l 363 508 l 388 422 l -8 979 l 128 979 l 433 550 l 415 550 l 721 979 l 854 979 l 458 422 l 482 508 l 482 0 l 363 0 m 375 1063 l 539 1301 l 676 1301 l 469 1063 l 375 1063 z "},"Ŷ":{"ha":846,"x_min":-8,"x_max":854,"o":"m 363 0 l 363 508 l 388 422 l -8 979 l 128 979 l 433 550 l 415 550 l 721 979 l 854 979 l 458 422 l 482 508 l 482 0 l 363 0 m 194 1063 l 367 1301 l 478 1301 l 650 1063 l 557 1063 l 422 1225 l 286 1063 l 194 1063 z "},"Ÿ":{"ha":846,"x_min":-8,"x_max":854,"o":"m 363 0 l 363 508 l 388 422 l -8 979 l 128 979 l 433 550 l 415 550 l 721 979 l 854 979 l 458 422 l 482 508 l 482 0 l 363 0 m 486 1117 l 486 1242 l 614 1242 l 614 1117 l 486 1117 m 231 1117 l 231 1242 l 358 1242 l 358 1117 l 231 1117 z "},"Ẏ":{"ha":846,"x_min":-8,"x_max":854,"o":"m 363 0 l 363 508 l 388 422 l -8 979 l 128 979 l 433 550 l 415 550 l 721 979 l 854 979 l 458 422 l 482 508 l 482 0 l 363 0 m 356 1118 l 356 1247 l 489 1247 l 489 1118 l 356 1118 z "},"Ỵ":{"ha":846,"x_min":-8,"x_max":854,"o":"m 363 0 l 363 508 l 388 422 l -8 979 l 128 979 l 433 550 l 415 550 l 721 979 l 854 979 l 458 422 l 482 508 l 482 0 l 363 0 m 357 -262 l 357 -136 l 488 -136 l 488 -262 l 357 -262 z "},"Ỳ":{"ha":846,"x_min":-8,"x_max":854,"o":"m 363 0 l 363 508 l 388 422 l -8 979 l 128 979 l 433 550 l 415 550 l 721 979 l 854 979 l 458 422 l 482 508 l 482 0 l 363 0 m 378 1063 l 169 1301 l 306 1301 l 469 1063 l 378 1063 z "},"Ƴ":{"ha":875,"x_min":-8,"x_max":926,"o":"m 363 0 l 363 508 l 388 422 l -8 979 l 128 979 l 433 550 l 417 550 l 644 878 q 735 964 686 938 q 846 990 783 990 q 890 988 871 990 q 926 978 908 985 l 926 885 q 897 894 913 892 q 860 896 882 896 q 796 880 825 896 q 740 826 767 864 l 458 422 l 482 508 l 482 0 l 363 0 z "},"Ỷ":{"ha":846,"x_min":-8,"x_max":854,"o":"m 363 0 l 363 508 l 388 422 l -8 979 l 128 979 l 433 550 l 415 550 l 721 979 l 854 979 l 458 422 l 482 508 l 482 0 l 363 0 m 382 1063 l 382 1085 q 395 1130 382 1113 q 425 1160 408 1147 q 455 1183 442 1172 q 468 1210 468 1194 q 453 1233 468 1225 q 407 1240 439 1240 q 364 1236 386 1240 q 317 1222 342 1232 l 297 1283 q 357 1303 324 1296 q 429 1310 390 1310 q 529 1288 493 1310 q 565 1225 565 1265 q 550 1178 565 1196 q 515 1147 535 1160 q 479 1119 494 1135 q 464 1078 464 1104 l 464 1063 l 382 1063 z "},"Ȳ":{"ha":846,"x_min":-8,"x_max":854,"o":"m 363 0 l 363 508 l 388 422 l -8 979 l 128 979 l 433 550 l 415 550 l 721 979 l 854 979 l 458 422 l 482 508 l 482 0 l 363 0 m 193 1129 l 193 1214 l 651 1214 l 651 1129 l 193 1129 z "},"Ỹ":{"ha":846,"x_min":-8,"x_max":854,"o":"m 363 0 l 363 508 l 388 422 l -8 979 l 128 979 l 433 550 l 415 550 l 721 979 l 854 979 l 458 422 l 482 508 l 482 0 l 363 0 m 201 1085 l 129 1089 q 183 1228 139 1179 q 297 1278 228 1278 q 367 1263 333 1278 q 442 1221 401 1247 q 504 1185 481 1196 q 549 1175 528 1175 q 612 1202 589 1175 q 643 1282 635 1229 l 715 1278 q 663 1138 707 1188 q 549 1089 618 1089 q 478 1105 514 1089 q 401 1147 443 1121 q 342 1181 367 1171 q 296 1192 317 1192 q 233 1165 256 1192 q 201 1085 210 1138 z "},"Z":{"ha":832,"x_min":69,"x_max":792,"o":"m 69 0 l 69 85 l 660 925 l 665 875 l 69 875 l 69 979 l 774 979 l 774 896 l 182 56 l 176 104 l 792 104 l 792 0 l 69 0 z "},"Ź":{"ha":832,"x_min":69,"x_max":792,"o":"m 69 0 l 69 85 l 660 925 l 665 875 l 69 875 l 69 979 l 774 979 l 774 896 l 182 56 l 176 104 l 792 104 l 792 0 l 69 0 m 379 1063 l 543 1301 l 681 1301 l 474 1063 l 379 1063 z "},"Ž":{"ha":832,"x_min":69,"x_max":792,"o":"m 69 0 l 69 85 l 660 925 l 665 875 l 69 875 l 69 979 l 774 979 l 774 896 l 182 56 l 176 104 l 792 104 l 792 0 l 69 0 m 371 1063 l 199 1301 l 292 1301 l 426 1138 l 563 1301 l 654 1301 l 482 1063 l 371 1063 z "},"Ż":{"ha":832,"x_min":69,"x_max":792,"o":"m 69 0 l 69 85 l 660 925 l 665 875 l 69 875 l 69 979 l 774 979 l 774 896 l 182 56 l 176 104 l 792 104 l 792 0 l 69 0 m 360 1118 l 360 1247 l 493 1247 l 493 1118 l 360 1118 z "},"Ẓ":{"ha":832,"x_min":69,"x_max":792,"o":"m 69 0 l 69 85 l 660 925 l 665 875 l 69 875 l 69 979 l 774 979 l 774 896 l 182 56 l 176 104 l 792 104 l 792 0 l 69 0 m 365 -262 l 365 -136 l 496 -136 l 496 -262 l 365 -262 z "},"a":{"ha":785,"x_min":86,"x_max":674,"o":"m 335 -12 q 208 15 264 -12 q 119 89 151 42 q 86 194 86 136 q 127 315 86 271 q 258 378 168 360 q 497 397 349 397 l 578 397 l 578 318 l 501 318 q 361 313 418 318 q 269 294 304 307 q 219 258 235 281 q 204 201 204 236 q 246 111 204 144 q 356 78 288 78 q 459 105 414 78 q 531 178 504 132 q 558 281 558 224 l 558 439 q 518 560 558 522 q 393 599 478 599 q 274 581 333 599 q 153 525 215 564 l 114 611 q 201 656 153 638 q 300 683 249 674 q 400 693 351 693 q 549 665 489 693 q 642 579 610 638 q 674 429 674 521 l 674 0 l 567 0 l 567 154 l 572 154 q 524 68 557 106 q 444 9 492 31 q 335 -12 396 -12 z "},"á":{"ha":785,"x_min":86,"x_max":674,"o":"m 335 -12 q 208 15 264 -12 q 119 89 151 42 q 86 194 86 136 q 127 315 86 271 q 258 378 168 360 q 497 397 349 397 l 578 397 l 578 318 l 501 318 q 361 313 418 318 q 269 294 304 307 q 219 258 235 281 q 204 201 204 236 q 246 111 204 144 q 356 78 288 78 q 459 105 414 78 q 531 178 504 132 q 558 281 558 224 l 558 439 q 518 560 558 522 q 393 599 478 599 q 274 581 333 599 q 153 525 215 564 l 114 611 q 201 656 153 638 q 300 683 249 674 q 400 693 351 693 q 549 665 489 693 q 642 579 610 638 q 674 429 674 521 l 674 0 l 567 0 l 567 154 l 572 154 q 524 68 557 106 q 444 9 492 31 q 335 -12 396 -12 m 354 771 l 499 1049 l 628 1049 l 443 771 l 354 771 z "},"ă":{"ha":785,"x_min":86,"x_max":674,"o":"m 335 -12 q 208 15 264 -12 q 119 89 151 42 q 86 194 86 136 q 127 315 86 271 q 258 378 168 360 q 497 397 349 397 l 578 397 l 578 318 l 501 318 q 361 313 418 318 q 269 294 304 307 q 219 258 235 281 q 204 201 204 236 q 246 111 204 144 q 356 78 288 78 q 459 105 414 78 q 531 178 504 132 q 558 281 558 224 l 558 439 q 518 560 558 522 q 393 599 478 599 q 274 581 333 599 q 153 525 215 564 l 114 611 q 201 656 153 638 q 300 683 249 674 q 400 693 351 693 q 549 665 489 693 q 642 579 610 638 q 674 429 674 521 l 674 0 l 567 0 l 567 154 l 572 154 q 524 68 557 106 q 444 9 492 31 q 335 -12 396 -12 m 400 767 q 288 799 336 767 q 213 892 240 832 q 182 1035 186 953 l 260 1042 q 301 900 265 950 q 400 850 336 850 q 499 900 464 850 q 540 1042 535 950 l 618 1035 q 588 892 615 953 q 513 799 561 832 q 400 767 465 767 z "},"ắ":{"ha":785,"x_min":86,"x_max":674,"o":"m 335 -12 q 208 15 264 -12 q 119 89 151 42 q 86 194 86 136 q 127 315 86 271 q 258 378 168 360 q 497 397 349 397 l 578 397 l 578 318 l 501 318 q 361 313 418 318 q 269 294 304 307 q 219 258 235 281 q 204 201 204 236 q 246 111 204 144 q 356 78 288 78 q 459 105 414 78 q 531 178 504 132 q 558 281 558 224 l 558 439 q 518 560 558 522 q 393 599 478 599 q 274 581 333 599 q 153 525 215 564 l 114 611 q 201 656 153 638 q 300 683 249 674 q 400 693 351 693 q 549 665 489 693 q 642 579 610 638 q 674 429 674 521 l 674 0 l 567 0 l 567 154 l 572 154 q 524 68 557 106 q 444 9 492 31 q 335 -12 396 -12 m 400 767 q 244 824 303 767 q 178 978 185 881 l 249 986 q 296 881 257 918 q 400 844 335 844 q 506 881 467 844 q 551 986 544 917 l 622 978 q 557 824 617 881 q 400 767 497 767 m 350 933 l 469 1131 l 596 1131 l 433 933 l 350 933 z "},"ặ":{"ha":785,"x_min":86,"x_max":674,"o":"m 335 -12 q 208 15 264 -12 q 119 89 151 42 q 86 194 86 136 q 127 315 86 271 q 258 378 168 360 q 497 397 349 397 l 578 397 l 578 318 l 501 318 q 361 313 418 318 q 269 294 304 307 q 219 258 235 281 q 204 201 204 236 q 246 111 204 144 q 356 78 288 78 q 459 105 414 78 q 531 178 504 132 q 558 281 558 224 l 558 439 q 518 560 558 522 q 393 599 478 599 q 274 581 333 599 q 153 525 215 564 l 114 611 q 201 656 153 638 q 300 683 249 674 q 400 693 351 693 q 549 665 489 693 q 642 579 610 638 q 674 429 674 521 l 674 0 l 567 0 l 567 154 l 572 154 q 524 68 557 106 q 444 9 492 31 q 335 -12 396 -12 m 311 -262 l 311 -136 l 442 -136 l 442 -262 l 311 -262 m 400 767 q 288 799 336 767 q 213 892 240 832 q 182 1035 186 953 l 260 1042 q 301 900 265 950 q 400 850 336 850 q 499 900 464 850 q 540 1042 535 950 l 618 1035 q 588 892 615 953 q 513 799 561 832 q 400 767 465 767 z "},"ằ":{"ha":785,"x_min":86,"x_max":674,"o":"m 335 -12 q 208 15 264 -12 q 119 89 151 42 q 86 194 86 136 q 127 315 86 271 q 258 378 168 360 q 497 397 349 397 l 578 397 l 578 318 l 501 318 q 361 313 418 318 q 269 294 304 307 q 219 258 235 281 q 204 201 204 236 q 246 111 204 144 q 356 78 288 78 q 459 105 414 78 q 531 178 504 132 q 558 281 558 224 l 558 439 q 518 560 558 522 q 393 599 478 599 q 274 581 333 599 q 153 525 215 564 l 114 611 q 201 656 153 638 q 300 683 249 674 q 400 693 351 693 q 549 665 489 693 q 642 579 610 638 q 674 429 674 521 l 674 0 l 567 0 l 567 154 l 572 154 q 524 68 557 106 q 444 9 492 31 q 335 -12 396 -12 m 400 767 q 244 824 303 767 q 178 978 185 881 l 249 986 q 296 881 257 918 q 400 844 335 844 q 506 881 467 844 q 551 986 544 917 l 622 978 q 557 824 617 881 q 400 767 497 767 m 368 933 l 208 1131 l 333 1131 l 451 933 l 368 933 z "},"ẳ":{"ha":785,"x_min":86,"x_max":674,"o":"m 335 -12 q 208 15 264 -12 q 119 89 151 42 q 86 194 86 136 q 127 315 86 271 q 258 378 168 360 q 497 397 349 397 l 578 397 l 578 318 l 501 318 q 361 313 418 318 q 269 294 304 307 q 219 258 235 281 q 204 201 204 236 q 246 111 204 144 q 356 78 288 78 q 459 105 414 78 q 531 178 504 132 q 558 281 558 224 l 558 439 q 518 560 558 522 q 393 599 478 599 q 274 581 333 599 q 153 525 215 564 l 114 611 q 201 656 153 638 q 300 683 249 674 q 400 693 351 693 q 549 665 489 693 q 642 579 610 638 q 674 429 674 521 l 674 0 l 567 0 l 567 154 l 572 154 q 524 68 557 106 q 444 9 492 31 q 335 -12 396 -12 m 400 767 q 244 824 303 767 q 178 978 185 881 l 249 986 q 296 881 257 918 q 400 844 335 844 q 506 881 467 844 q 551 986 544 917 l 622 978 q 557 824 617 882 q 400 767 497 767 m 361 933 q 374 979 361 963 q 402 1007 386 996 q 431 1029 418 1018 q 443 1056 443 1040 q 427 1076 443 1071 q 382 1082 411 1082 q 342 1078 364 1082 q 297 1065 321 1075 l 279 1122 q 335 1140 304 1135 q 406 1146 365 1146 q 501 1126 467 1146 q 535 1074 535 1107 q 520 1030 535 1046 q 487 1001 506 1014 q 453 974 468 989 q 439 933 439 958 l 361 933 z "},"ẵ":{"ha":785,"x_min":86,"x_max":674,"o":"m 335 -12 q 208 15 264 -12 q 119 89 151 42 q 86 194 86 136 q 127 315 86 271 q 258 378 168 360 q 497 397 349 397 l 578 397 l 578 318 l 501 318 q 361 313 418 318 q 269 294 304 307 q 219 258 235 281 q 204 201 204 236 q 246 111 204 144 q 356 78 288 78 q 459 105 414 78 q 531 178 504 132 q 558 281 558 224 l 558 439 q 518 560 558 522 q 393 599 478 599 q 274 581 333 599 q 153 525 215 564 l 114 611 q 201 656 153 638 q 300 683 249 674 q 400 693 351 693 q 549 665 489 693 q 642 579 610 638 q 674 429 674 521 l 674 0 l 567 0 l 567 154 l 572 154 q 524 68 557 106 q 444 9 492 31 q 335 -12 396 -12 m 400 767 q 253 810 313 767 q 178 928 194 854 l 249 940 q 302 869 263 894 q 400 844 342 844 q 499 869 460 844 q 551 940 538 894 l 622 928 q 547 810 607 854 q 400 767 488 767 m 242 996 l 175 1000 q 196 1080 179 1047 q 241 1128 213 1113 q 308 1144 269 1144 q 361 1134 336 1144 q 414 1104 386 1124 q 457 1080 440 1088 q 489 1072 474 1072 q 536 1091 521 1072 q 558 1147 551 1110 l 625 1143 q 585 1035 619 1072 q 493 999 550 999 q 439 1010 464 999 q 383 1040 414 1021 q 346 1063 363 1054 q 311 1071 329 1071 q 265 1053 281 1071 q 242 996 249 1035 z "},"ǎ":{"ha":785,"x_min":86,"x_max":674,"o":"m 335 -12 q 208 15 264 -12 q 119 89 151 42 q 86 194 86 136 q 127 315 86 271 q 258 378 168 360 q 497 397 349 397 l 578 397 l 578 318 l 501 318 q 361 313 418 318 q 269 294 304 307 q 219 258 235 281 q 204 201 204 236 q 246 111 204 144 q 356 78 288 78 q 459 105 414 78 q 531 178 504 132 q 558 281 558 224 l 558 439 q 518 560 558 522 q 393 599 478 599 q 274 581 333 599 q 153 525 215 564 l 114 611 q 201 656 153 638 q 300 683 249 674 q 400 693 351 693 q 549 665 489 693 q 642 579 610 638 q 674 429 674 521 l 674 0 l 567 0 l 567 154 l 572 154 q 524 68 557 106 q 444 9 492 31 q 335 -12 396 -12 m 343 771 l 189 1049 l 275 1049 l 400 849 l 525 1049 l 611 1049 l 457 771 l 343 771 z "},"â":{"ha":785,"x_min":86,"x_max":674,"o":"m 335 -12 q 208 15 264 -12 q 119 89 151 42 q 86 194 86 136 q 127 315 86 271 q 258 378 168 360 q 497 397 349 397 l 578 397 l 578 318 l 501 318 q 361 313 418 318 q 269 294 304 307 q 219 258 235 281 q 204 201 204 236 q 246 111 204 144 q 356 78 288 78 q 459 105 414 78 q 531 178 504 132 q 558 281 558 224 l 558 439 q 518 560 558 522 q 393 599 478 599 q 274 581 333 599 q 153 525 215 564 l 114 611 q 201 656 153 638 q 300 683 249 674 q 400 693 351 693 q 549 665 489 693 q 642 579 610 638 q 674 429 674 521 l 674 0 l 567 0 l 567 154 l 572 154 q 524 68 557 106 q 444 9 492 31 q 335 -12 396 -12 m 189 774 l 343 1049 l 457 1049 l 611 774 l 525 774 l 400 969 l 275 774 l 189 774 z "},"ấ":{"ha":785,"x_min":86,"x_max":764,"o":"m 335 -12 q 208 15 264 -12 q 119 89 151 42 q 86 194 86 136 q 127 315 86 271 q 258 378 168 360 q 497 397 349 397 l 578 397 l 578 318 l 501 318 q 361 313 418 318 q 269 294 304 307 q 219 258 235 281 q 204 201 204 236 q 246 111 204 144 q 356 78 288 78 q 459 105 414 78 q 531 178 504 132 q 558 281 558 224 l 558 439 q 518 560 558 522 q 393 599 478 599 q 274 581 333 599 q 153 525 215 564 l 114 611 q 201 656 153 638 q 300 683 249 674 q 400 693 351 693 q 549 665 489 693 q 642 579 610 638 q 674 429 674 521 l 674 0 l 567 0 l 567 154 l 572 154 q 524 68 557 106 q 444 9 492 31 q 335 -12 396 -12 m 188 775 l 343 1004 l 457 1004 l 613 775 l 526 775 l 400 929 l 272 775 l 188 775 m 535 925 l 650 1133 l 763 1133 l 611 925 l 535 925 z "},"ậ":{"ha":785,"x_min":86,"x_max":674,"o":"m 335 -12 q 208 15 264 -12 q 119 89 151 42 q 86 194 86 136 q 127 315 86 271 q 258 378 168 360 q 497 397 349 397 l 578 397 l 578 318 l 501 318 q 361 313 418 318 q 269 294 304 307 q 219 258 235 281 q 204 201 204 236 q 246 111 204 144 q 356 78 288 78 q 459 105 414 78 q 531 178 504 132 q 558 281 558 224 l 558 439 q 518 560 558 522 q 393 599 478 599 q 274 581 333 599 q 153 525 215 564 l 114 611 q 201 656 153 638 q 300 683 249 674 q 400 693 351 693 q 549 665 489 693 q 642 579 610 638 q 674 429 674 521 l 674 0 l 567 0 l 567 154 l 572 154 q 524 68 557 106 q 444 9 492 31 q 335 -12 396 -12 m 311 -262 l 311 -136 l 442 -136 l 442 -262 l 311 -262 m 189 774 l 343 1049 l 457 1049 l 611 774 l 525 774 l 400 969 l 275 774 l 189 774 z "},"ầ":{"ha":785,"x_min":86,"x_max":674,"o":"m 335 -12 q 208 15 264 -12 q 119 89 151 42 q 86 194 86 136 q 127 315 86 271 q 258 378 168 360 q 497 397 349 397 l 578 397 l 578 318 l 501 318 q 361 313 418 318 q 269 294 304 307 q 219 258 235 281 q 204 201 204 236 q 246 111 204 144 q 356 78 288 78 q 459 105 414 78 q 531 178 504 132 q 558 281 558 224 l 558 439 q 518 560 558 522 q 393 599 478 599 q 274 581 333 599 q 153 525 215 564 l 114 611 q 201 656 153 638 q 300 683 249 674 q 400 693 351 693 q 549 665 489 693 q 642 579 610 638 q 674 429 674 521 l 674 0 l 567 0 l 567 154 l 572 154 q 524 68 557 106 q 444 9 492 31 q 335 -12 396 -12 m 188 775 l 343 1004 l 457 1004 l 613 775 l 526 775 l 400 929 l 272 775 l 188 775 m 590 925 l 439 1133 l 553 1133 l 668 925 l 590 925 z "},"ẩ":{"ha":785,"x_min":86,"x_max":715,"o":"m 335 -12 q 208 15 264 -12 q 119 89 151 42 q 86 194 86 136 q 127 315 86 271 q 258 378 168 360 q 497 397 349 397 l 578 397 l 578 318 l 501 318 q 361 313 418 318 q 269 294 304 307 q 219 258 235 281 q 204 201 204 236 q 246 111 204 144 q 356 78 288 78 q 459 105 414 78 q 531 178 504 132 q 558 281 558 224 l 558 439 q 518 560 558 522 q 393 599 478 599 q 274 581 333 599 q 153 525 215 564 l 114 611 q 201 656 153 638 q 300 683 249 674 q 400 693 351 693 q 549 665 489 693 q 642 579 610 638 q 674 429 674 521 l 674 0 l 567 0 l 567 154 l 572 154 q 524 68 557 106 q 444 9 492 31 q 335 -12 396 -12 m 188 775 l 343 1004 l 457 1004 l 613 775 l 526 775 l 400 929 l 272 775 l 188 775 m 544 926 q 556 973 544 956 q 585 1002 568 990 q 613 1025 601 1014 q 625 1051 625 1036 q 609 1073 625 1068 q 564 1078 593 1078 q 525 1074 546 1078 q 481 1063 504 1071 l 463 1118 q 517 1135 488 1129 q 588 1142 547 1142 q 682 1122 649 1142 q 715 1069 715 1103 q 701 1025 715 1042 q 667 995 686 1008 q 634 967 649 982 q 619 926 619 951 l 544 926 z "},"ẫ":{"ha":785,"x_min":86,"x_max":674,"o":"m 335 -12 q 208 15 264 -12 q 119 89 151 42 q 86 194 86 136 q 127 315 86 271 q 258 378 168 360 q 497 397 349 397 l 578 397 l 578 318 l 501 318 q 361 313 418 318 q 269 294 304 307 q 219 258 235 281 q 204 201 204 236 q 246 111 204 144 q 356 78 288 78 q 459 105 414 78 q 531 178 504 132 q 558 281 558 224 l 558 439 q 518 560 558 522 q 393 599 478 599 q 274 581 333 599 q 153 525 215 564 l 114 611 q 201 656 153 638 q 300 683 249 674 q 400 693 351 693 q 549 665 489 693 q 642 579 610 638 q 674 429 674 521 l 674 0 l 567 0 l 567 154 l 572 154 q 524 68 557 106 q 444 9 492 31 q 335 -12 396 -12 m 188 775 l 343 964 l 457 964 l 613 775 l 528 775 l 400 896 l 272 775 l 188 775 m 242 999 l 175 1003 q 196 1083 179 1051 q 241 1132 213 1115 q 308 1149 269 1149 q 361 1138 336 1149 q 414 1108 386 1126 q 457 1084 440 1092 q 489 1076 474 1076 q 536 1094 521 1076 q 558 1151 551 1111 l 625 1146 q 585 1038 619 1075 q 493 1001 551 1001 q 439 1013 464 1001 q 383 1044 414 1024 q 346 1065 363 1057 q 311 1074 329 1074 q 265 1056 282 1074 q 242 999 249 1039 z "},"ȁ":{"ha":785,"x_min":86,"x_max":674,"o":"m 335 -12 q 208 15 264 -12 q 119 89 151 42 q 86 194 86 136 q 127 315 86 271 q 258 378 168 360 q 497 397 349 397 l 578 397 l 578 318 l 501 318 q 361 313 418 318 q 269 294 304 307 q 219 258 235 281 q 204 201 204 236 q 246 111 204 144 q 356 78 288 78 q 459 105 414 78 q 531 178 504 132 q 558 281 558 224 l 558 439 q 518 560 558 522 q 393 599 478 599 q 274 581 333 599 q 153 525 215 564 l 114 611 q 201 656 153 638 q 300 683 249 674 q 400 693 351 693 q 549 665 489 693 q 642 579 610 638 q 674 429 674 521 l 674 0 l 567 0 l 567 154 l 572 154 q 524 68 557 106 q 444 9 492 31 q 335 -12 396 -12 m 458 771 l 342 1049 l 453 1049 l 526 771 l 458 771 m 276 771 l 160 1049 l 269 1049 l 344 771 l 276 771 z "},"ä":{"ha":785,"x_min":86,"x_max":674,"o":"m 335 -12 q 208 15 264 -12 q 119 89 151 42 q 86 194 86 136 q 127 315 86 271 q 258 378 168 360 q 497 397 349 397 l 578 397 l 578 318 l 501 318 q 361 313 418 318 q 269 294 304 307 q 219 258 235 281 q 204 201 204 236 q 246 111 204 144 q 356 78 288 78 q 459 105 414 78 q 531 178 504 132 q 558 281 558 224 l 558 439 q 518 560 558 522 q 393 599 478 599 q 274 581 333 599 q 153 525 215 564 l 114 611 q 201 656 153 638 q 300 683 249 674 q 400 693 351 693 q 549 665 489 693 q 642 579 610 638 q 674 429 674 521 l 674 0 l 567 0 l 567 154 l 572 154 q 524 68 557 106 q 444 9 492 31 q 335 -12 396 -12 m 464 849 l 464 975 l 592 975 l 592 849 l 464 849 m 208 849 l 208 975 l 336 975 l 336 849 l 208 849 z "},"ȧ":{"ha":785,"x_min":86,"x_max":674,"o":"m 335 -12 q 208 15 264 -12 q 119 89 151 42 q 86 194 86 136 q 127 315 86 271 q 258 378 168 360 q 497 397 349 397 l 578 397 l 578 318 l 501 318 q 361 313 418 318 q 269 294 304 307 q 219 258 235 281 q 204 201 204 236 q 246 111 204 144 q 356 78 288 78 q 459 105 414 78 q 531 178 504 132 q 558 281 558 224 l 558 439 q 518 560 558 522 q 393 599 478 599 q 274 581 333 599 q 153 525 215 564 l 114 611 q 201 656 153 638 q 300 683 249 674 q 400 693 351 693 q 549 665 489 693 q 642 579 610 638 q 674 429 674 521 l 674 0 l 567 0 l 567 154 l 572 154 q 524 68 557 106 q 444 9 492 31 q 335 -12 396 -12 m 335 850 l 335 976 l 465 976 l 465 850 l 335 850 z "},"ạ":{"ha":785,"x_min":86,"x_max":674,"o":"m 335 -12 q 208 15 264 -12 q 119 89 151 42 q 86 194 86 136 q 127 315 86 271 q 258 378 168 360 q 497 397 349 397 l 578 397 l 578 318 l 501 318 q 361 313 418 318 q 269 294 304 307 q 219 258 235 281 q 204 201 204 236 q 246 111 204 144 q 356 78 288 78 q 459 105 414 78 q 531 178 504 132 q 558 281 558 224 l 558 439 q 518 560 558 522 q 393 599 478 599 q 274 581 333 599 q 153 525 215 564 l 114 611 q 201 656 153 638 q 300 683 249 674 q 400 693 351 693 q 549 665 489 693 q 642 579 610 638 q 674 429 674 521 l 674 0 l 567 0 l 567 154 l 572 154 q 524 68 557 106 q 444 9 492 31 q 335 -12 396 -12 m 311 -262 l 311 -136 l 442 -136 l 442 -262 l 311 -262 z "},"à":{"ha":785,"x_min":86,"x_max":674,"o":"m 335 -12 q 208 15 264 -12 q 119 89 151 42 q 86 194 86 136 q 127 315 86 271 q 258 378 168 360 q 497 397 349 397 l 578 397 l 578 318 l 501 318 q 361 313 418 318 q 269 294 304 307 q 219 258 235 281 q 204 201 204 236 q 246 111 204 144 q 356 78 288 78 q 459 105 414 78 q 531 178 504 132 q 558 281 558 224 l 558 439 q 518 560 558 522 q 393 599 478 599 q 274 581 333 599 q 153 525 215 564 l 114 611 q 201 656 153 638 q 300 683 249 674 q 400 693 351 693 q 549 665 489 693 q 642 579 610 638 q 674 429 674 521 l 674 0 l 567 0 l 567 154 l 572 154 q 524 68 557 106 q 444 9 492 31 q 335 -12 396 -12 m 357 772 l 174 1049 l 303 1049 l 446 772 l 357 772 z "},"ả":{"ha":785,"x_min":86,"x_max":674,"o":"m 335 -12 q 208 15 264 -12 q 119 89 151 42 q 86 194 86 136 q 127 315 86 271 q 258 378 168 360 q 497 397 349 397 l 578 397 l 578 318 l 501 318 q 361 313 418 318 q 269 294 304 307 q 219 258 235 281 q 204 201 204 236 q 246 111 204 144 q 356 78 288 78 q 459 105 414 78 q 531 178 504 132 q 558 281 558 224 l 558 439 q 518 560 558 522 q 393 599 478 599 q 274 581 333 599 q 153 525 215 564 l 114 611 q 201 656 153 638 q 300 683 249 674 q 400 693 351 693 q 549 665 489 693 q 642 579 610 638 q 674 429 674 521 l 674 0 l 567 0 l 567 154 l 572 154 q 524 68 557 106 q 444 9 492 31 q 335 -12 396 -12 m 358 772 l 358 800 q 372 853 358 832 q 401 888 385 874 q 431 917 418 903 q 444 953 444 932 q 429 982 444 972 q 381 992 414 992 q 339 987 360 992 q 293 969 318 982 l 272 1032 q 333 1056 299 1049 q 406 1064 367 1064 q 509 1039 472 1064 q 546 968 546 1014 q 531 911 546 932 q 494 875 515 890 q 458 841 474 860 q 442 793 442 822 l 442 772 l 358 772 z "},"ȃ":{"ha":785,"x_min":86,"x_max":674,"o":"m 335 -12 q 208 15 264 -12 q 119 89 151 42 q 86 194 86 136 q 127 315 86 271 q 258 378 168 360 q 497 397 349 397 l 578 397 l 578 318 l 501 318 q 361 313 418 318 q 269 294 304 307 q 219 258 235 281 q 204 201 204 236 q 246 111 204 144 q 356 78 288 78 q 459 105 414 78 q 531 178 504 132 q 558 281 558 224 l 558 439 q 518 560 558 522 q 393 599 478 599 q 274 581 333 599 q 153 525 215 564 l 114 611 q 201 656 153 638 q 300 683 249 674 q 400 693 351 693 q 549 665 489 693 q 642 579 610 638 q 674 429 674 521 l 674 0 l 567 0 l 567 154 l 572 154 q 524 68 557 106 q 444 9 492 31 q 335 -12 396 -12 m 260 767 l 182 775 q 213 917 186 857 q 288 1009 240 976 q 400 1042 336 1042 q 513 1009 465 1042 q 588 917 561 976 q 618 775 615 857 l 540 767 q 499 908 535 858 q 400 958 464 958 q 301 908 336 958 q 260 767 265 858 z "},"ā":{"ha":785,"x_min":86,"x_max":674,"o":"m 335 -12 q 208 15 264 -12 q 119 89 151 42 q 86 194 86 136 q 127 315 86 271 q 258 378 168 360 q 497 397 349 397 l 578 397 l 578 318 l 501 318 q 361 313 418 318 q 269 294 304 307 q 219 258 235 281 q 204 201 204 236 q 246 111 204 144 q 356 78 288 78 q 459 105 414 78 q 531 178 504 132 q 558 281 558 224 l 558 439 q 518 560 558 522 q 393 599 478 599 q 274 581 333 599 q 153 525 215 564 l 114 611 q 201 656 153 638 q 300 683 249 674 q 400 693 351 693 q 549 665 489 693 q 642 579 610 638 q 674 429 674 521 l 674 0 l 567 0 l 567 154 l 572 154 q 524 68 557 106 q 444 9 492 31 q 335 -12 396 -12 m 186 871 l 186 956 l 614 956 l 614 871 l 186 871 z "},"ą":{"ha":785,"x_min":86,"x_max":731,"o":"m 335 -12 q 208 15 264 -12 q 119 89 151 42 q 86 194 86 136 q 127 315 86 271 q 258 378 168 360 q 497 397 349 397 l 578 397 l 578 318 l 501 318 q 361 313 418 318 q 269 294 304 307 q 219 258 235 281 q 204 201 204 236 q 246 111 204 144 q 356 78 288 78 q 459 105 414 78 q 531 178 504 132 q 558 281 558 224 l 558 439 q 518 560 558 522 q 393 599 478 599 q 274 581 333 599 q 153 525 215 564 l 114 611 q 201 656 153 638 q 300 683 249 674 q 400 693 351 693 q 549 665 489 693 q 642 579 610 638 q 674 429 674 521 l 674 0 l 567 0 l 567 154 l 572 154 q 524 68 557 106 q 444 9 492 31 q 335 -12 396 -12 m 621 -269 q 512 -233 553 -269 q 471 -135 471 -196 q 508 -29 471 -79 q 606 51 544 21 l 649 0 q 606 -27 628 -10 q 571 -68 585 -44 q 557 -119 557 -92 q 580 -176 557 -158 q 635 -193 603 -193 q 672 -190 654 -193 q 710 -178 690 -186 l 731 -246 q 682 -263 710 -257 q 621 -269 654 -269 z "},"å":{"ha":785,"x_min":86,"x_max":674,"o":"m 335 -12 q 208 15 264 -12 q 119 89 151 42 q 86 194 86 136 q 127 315 86 271 q 258 378 168 360 q 497 397 349 397 l 578 397 l 578 318 l 501 318 q 361 313 418 318 q 269 294 304 307 q 219 258 235 281 q 204 201 204 236 q 246 111 204 144 q 356 78 288 78 q 459 105 414 78 q 531 178 504 132 q 558 281 558 224 l 558 439 q 518 560 558 522 q 393 599 478 599 q 274 581 333 599 q 153 525 215 564 l 114 611 q 201 656 153 638 q 300 683 249 674 q 400 693 351 693 q 549 665 489 693 q 642 579 610 638 q 674 429 674 521 l 674 0 l 567 0 l 567 154 l 572 154 q 524 68 557 106 q 444 9 492 31 q 335 -12 396 -12 m 400 764 q 315 786 353 764 q 253 845 276 808 q 231 928 231 882 q 253 1011 231 975 q 314 1069 275 1047 q 400 1092 353 1092 q 487 1069 449 1092 q 547 1010 525 1047 q 569 928 569 974 q 547 845 569 882 q 487 786 525 808 q 400 764 449 764 m 400 828 q 472 856 444 828 q 500 928 500 885 q 472 999 500 971 q 400 1028 444 1028 q 328 999 357 1028 q 300 928 300 971 q 328 856 300 885 q 400 828 357 828 z "},"ǻ":{"ha":785,"x_min":86,"x_max":707,"o":"m 335 -12 q 208 15 264 -12 q 119 89 151 42 q 86 194 86 136 q 127 315 86 271 q 258 378 168 360 q 497 397 349 397 l 578 397 l 578 318 l 501 318 q 361 313 418 318 q 269 294 304 307 q 219 258 235 281 q 204 201 204 236 q 246 111 204 144 q 356 78 288 78 q 459 105 414 78 q 531 178 504 132 q 558 281 558 224 l 558 439 q 518 560 558 522 q 393 599 478 599 q 274 581 333 599 q 153 525 215 564 l 114 611 q 201 656 153 638 q 300 683 249 674 q 400 693 351 693 q 549 665 489 693 q 642 579 610 638 q 674 429 674 521 l 674 0 l 567 0 l 567 154 l 572 154 q 524 68 557 106 q 444 9 492 31 q 335 -12 396 -12 m 400 761 q 315 783 353 761 q 256 842 278 806 q 233 924 233 878 q 256 1005 233 968 q 315 1063 278 1042 q 400 1085 353 1085 q 451 1077 428 1085 q 496 1057 475 1069 l 589 1144 l 707 1144 l 544 1006 q 561 967 556 988 q 567 924 567 946 q 545 842 567 878 q 485 783 524 806 q 400 761 447 761 m 400 824 q 472 852 444 824 q 500 924 500 881 q 472 994 500 967 q 400 1022 444 1022 q 328 994 357 1022 q 300 924 300 967 q 328 852 300 881 q 400 824 357 824 z "},"ã":{"ha":785,"x_min":86,"x_max":674,"o":"m 335 -12 q 208 15 264 -12 q 119 89 151 42 q 86 194 86 136 q 127 315 86 271 q 258 378 168 360 q 497 397 349 397 l 578 397 l 578 318 l 501 318 q 361 313 418 318 q 269 294 304 307 q 219 258 235 281 q 204 201 204 236 q 246 111 204 144 q 356 78 288 78 q 459 105 414 78 q 531 178 504 132 q 558 281 558 224 l 558 439 q 518 560 558 522 q 393 599 478 599 q 274 581 333 599 q 153 525 215 564 l 114 611 q 201 656 153 638 q 300 683 249 674 q 400 693 351 693 q 549 665 489 693 q 642 579 610 638 q 674 429 674 521 l 674 0 l 567 0 l 567 154 l 572 154 q 524 68 557 106 q 444 9 492 31 q 335 -12 396 -12 m 217 822 l 147 826 q 194 965 156 915 q 297 1015 233 1015 q 357 999 331 1015 q 414 957 383 983 q 460 922 442 933 q 499 911 479 911 q 555 939 535 911 q 583 1019 575 967 l 653 1015 q 606 876 646 925 q 504 826 567 826 q 445 842 472 826 q 385 885 418 857 q 340 919 358 907 q 301 931 322 931 q 246 903 267 931 q 217 822 225 875 z "},"æ":{"ha":1260,"x_min":86,"x_max":1192,"o":"m 339 -12 q 208 15 265 -12 q 119 90 151 43 q 86 194 86 136 q 128 316 86 272 q 260 378 169 360 q 500 397 351 397 l 583 397 l 583 317 l 503 317 q 326 308 392 317 q 232 273 260 299 q 204 201 204 247 q 246 111 204 144 q 356 78 288 78 q 463 106 417 78 q 535 181 508 133 q 561 286 561 228 l 561 438 q 520 560 561 522 q 396 599 479 599 q 274 581 333 599 q 153 525 215 564 l 114 611 q 200 656 153 638 q 299 683 247 674 q 401 693 351 693 q 563 652 501 693 q 647 536 624 611 l 628 536 q 734 653 664 613 q 893 693 804 693 q 1053 651 986 693 q 1156 534 1121 610 q 1192 353 1192 458 l 1192 314 l 657 314 l 657 394 l 1114 394 l 1090 372 q 1067 495 1090 443 q 1001 576 1044 547 q 892 604 957 604 q 734 538 793 604 q 675 356 675 471 l 675 342 q 736 151 675 219 q 917 83 797 83 q 1033 102 979 83 q 1139 161 1088 121 l 1179 76 q 1060 11 1131 35 q 915 -12 989 -12 q 772 11 835 -12 q 666 80 708 35 q 603 190 624 125 l 618 190 q 563 84 601 131 q 469 13 525 38 q 339 -12 413 -12 z "},"ǽ":{"ha":1260,"x_min":86,"x_max":1192,"o":"m 339 -12 q 208 15 265 -12 q 119 90 151 43 q 86 194 86 136 q 128 316 86 272 q 260 378 169 360 q 500 397 351 397 l 583 397 l 583 317 l 503 317 q 326 308 392 317 q 232 273 260 299 q 204 201 204 247 q 246 111 204 144 q 356 78 288 78 q 463 106 417 78 q 535 181 508 133 q 561 286 561 228 l 561 438 q 520 560 561 522 q 396 599 479 599 q 274 581 333 599 q 153 525 215 564 l 114 611 q 200 656 153 638 q 299 683 247 674 q 401 693 351 693 q 563 652 501 693 q 647 536 624 611 l 628 536 q 734 653 664 613 q 893 693 804 693 q 1053 651 986 693 q 1156 534 1121 610 q 1192 353 1192 458 l 1192 314 l 657 314 l 657 394 l 1114 394 l 1090 372 q 1067 495 1090 443 q 1001 576 1044 547 q 892 604 957 604 q 734 538 793 604 q 675 356 675 471 l 675 342 q 736 151 675 219 q 917 83 797 83 q 1033 102 979 83 q 1139 161 1088 121 l 1179 76 q 1060 11 1131 35 q 915 -12 989 -12 q 772 11 835 -12 q 666 80 708 35 q 603 190 624 125 l 618 190 q 563 84 601 131 q 469 13 525 38 q 339 -12 413 -12 m 575 771 l 719 1049 l 849 1049 l 664 771 l 575 771 z "},"b":{"ha":849,"x_min":114,"x_max":775,"o":"m 468 -12 q 312 33 378 -12 q 219 156 246 78 l 226 156 l 226 0 l 114 0 l 114 979 l 232 979 l 232 531 l 224 531 q 315 649 250 606 q 469 693 379 693 q 631 649 563 693 q 738 527 700 606 q 775 340 775 449 q 737 155 775 235 q 630 31 699 75 q 468 -12 561 -12 m 443 83 q 599 151 542 83 q 656 340 656 219 q 599 530 656 463 q 443 597 542 597 q 288 530 346 597 q 231 340 231 463 q 288 151 231 219 q 443 83 346 83 z "},"ɓ":{"ha":849,"x_min":114,"x_max":775,"o":"m 468 -12 q 312 33 378 -12 q 219 156 246 78 l 226 156 l 226 0 l 114 0 l 114 751 q 140 880 114 826 q 219 963 167 933 q 349 992 271 992 q 396 988 372 992 q 436 979 419 985 l 424 886 q 391 893 407 892 q 358 894 375 894 q 263 858 294 894 q 232 751 232 822 l 232 531 l 224 531 q 315 649 250 606 q 468 693 379 693 q 630 649 561 693 q 737 527 699 606 q 775 340 775 449 q 737 155 775 235 q 630 31 699 75 q 468 -12 561 -12 m 443 83 q 599 151 542 83 q 656 340 656 219 q 599 530 656 463 q 443 597 542 597 q 288 530 346 597 q 231 340 231 463 q 288 151 231 219 q 443 83 346 83 z "},"c":{"ha":674,"x_min":74,"x_max":643,"o":"m 411 -12 q 231 32 307 -12 q 115 156 156 76 q 74 343 74 236 q 115 530 74 451 q 232 651 156 608 q 411 693 308 693 q 540 670 478 693 q 643 607 603 647 l 603 519 q 514 576 563 557 q 419 594 465 594 q 253 529 313 594 q 193 342 193 464 q 253 154 193 222 q 419 86 313 86 q 513 105 464 86 q 601 160 561 124 l 642 74 q 539 10 601 33 q 411 -12 476 -12 z "},"ć":{"ha":674,"x_min":74,"x_max":643,"o":"m 411 -12 q 231 32 307 -12 q 115 156 156 76 q 74 343 74 236 q 115 530 74 451 q 232 651 156 608 q 411 693 308 693 q 540 670 478 693 q 643 607 603 647 l 603 519 q 514 576 563 557 q 419 594 465 594 q 253 529 313 594 q 193 342 193 464 q 253 154 193 222 q 419 86 313 86 q 513 105 464 86 q 601 160 561 124 l 642 74 q 539 10 601 33 q 411 -12 476 -12 m 358 771 l 503 1049 l 632 1049 l 447 771 l 358 771 z "},"č":{"ha":674,"x_min":74,"x_max":643,"o":"m 411 -12 q 231 32 307 -12 q 115 156 156 76 q 74 343 74 236 q 115 530 74 451 q 232 651 156 608 q 411 693 308 693 q 540 670 478 693 q 643 607 603 647 l 603 519 q 514 576 563 557 q 419 594 465 594 q 253 529 313 594 q 193 342 193 464 q 253 154 193 222 q 419 86 313 86 q 513 105 464 86 q 601 160 561 124 l 642 74 q 539 10 601 33 q 411 -12 476 -12 m 347 771 l 193 1049 l 279 1049 l 404 849 l 529 1049 l 615 1049 l 461 771 l 347 771 z "},"ç":{"ha":674,"x_min":74,"x_max":643,"o":"m 411 -12 q 231 32 307 -12 q 115 156 156 76 q 74 343 74 236 q 115 530 74 451 q 232 651 156 608 q 411 693 308 693 q 540 670 478 693 q 643 607 603 647 l 603 519 q 514 576 563 557 q 419 594 465 594 q 253 529 313 594 q 193 342 193 464 q 253 154 193 222 q 419 86 313 86 q 513 105 464 86 q 601 160 561 124 l 642 74 q 539 10 601 33 q 411 -12 476 -12 m 410 -269 q 339 -262 374 -269 q 281 -242 304 -256 l 300 -178 q 350 -196 326 -190 q 407 -201 374 -201 q 465 -189 443 -201 q 488 -151 488 -176 q 474 -123 488 -133 q 433 -112 460 -112 q 403 -115 419 -112 q 367 -124 388 -118 l 343 -103 l 363 28 l 436 28 l 418 -79 l 383 -68 q 418 -60 400 -62 q 451 -57 436 -57 q 513 -68 486 -57 q 555 -101 539 -79 q 571 -154 571 -122 q 550 -215 571 -189 q 493 -256 529 -242 q 410 -269 457 -269 z "},"ḉ":{"ha":674,"x_min":74,"x_max":643,"o":"m 411 -12 q 231 32 307 -12 q 115 156 156 76 q 74 343 74 236 q 115 530 74 451 q 232 651 156 608 q 411 693 308 693 q 540 670 478 693 q 643 607 603 647 l 603 519 q 514 576 563 557 q 419 594 465 594 q 253 529 313 594 q 193 342 193 464 q 253 154 193 222 q 419 86 313 86 q 513 105 464 86 q 601 160 561 124 l 642 74 q 539 10 601 33 q 411 -12 476 -12 m 410 -269 q 339 -262 374 -269 q 281 -242 304 -256 l 300 -178 q 350 -196 326 -190 q 407 -201 374 -201 q 465 -189 443 -201 q 488 -151 488 -176 q 474 -123 488 -133 q 433 -112 460 -112 q 403 -115 419 -112 q 367 -124 388 -118 l 343 -103 l 363 28 l 436 28 l 418 -79 l 383 -68 q 418 -60 400 -62 q 451 -57 436 -57 q 513 -68 486 -57 q 555 -101 539 -79 q 571 -154 571 -122 q 550 -215 571 -189 q 493 -256 529 -242 q 410 -269 457 -269 m 358 771 l 503 1049 l 632 1049 l 447 771 l 358 771 z "},"ĉ":{"ha":674,"x_min":74,"x_max":643,"o":"m 411 -12 q 231 32 307 -12 q 115 156 156 76 q 74 343 74 236 q 115 530 74 451 q 232 651 156 608 q 411 693 308 693 q 540 670 478 693 q 643 607 603 647 l 603 519 q 514 576 563 557 q 419 594 465 594 q 253 529 313 594 q 193 342 193 464 q 253 154 193 222 q 419 86 313 86 q 513 105 464 86 q 601 160 561 124 l 642 74 q 539 10 601 33 q 411 -12 476 -12 m 193 774 l 347 1049 l 461 1049 l 615 774 l 529 774 l 404 969 l 279 774 l 193 774 z "},"ċ":{"ha":674,"x_min":74,"x_max":643,"o":"m 411 -12 q 231 32 307 -12 q 115 156 156 76 q 74 343 74 236 q 115 530 74 451 q 232 651 156 608 q 411 693 308 693 q 540 670 478 693 q 643 607 603 647 l 603 519 q 514 576 563 557 q 419 594 465 594 q 253 529 313 594 q 193 342 193 464 q 253 154 193 222 q 419 86 313 86 q 513 105 464 86 q 601 160 561 124 l 642 74 q 539 10 601 33 q 411 -12 476 -12 m 339 850 l 339 976 l 469 976 l 469 850 l 339 850 z "},"d":{"ha":849,"x_min":74,"x_max":733,"o":"m 381 -12 q 218 31 288 -12 q 111 155 149 75 q 74 340 74 235 q 111 527 74 449 q 217 649 149 606 q 379 693 286 693 q 534 649 469 693 q 624 531 599 606 l 615 531 l 615 979 l 733 979 l 733 0 l 622 0 l 622 156 l 628 156 q 537 33 603 78 q 381 -12 471 -12 m 404 83 q 560 151 503 83 q 618 340 618 219 q 560 530 618 463 q 406 597 503 597 q 249 530 307 597 q 192 340 192 463 q 249 151 192 219 q 404 83 307 83 z "},"ð":{"ha":807,"x_min":74,"x_max":740,"o":"m 401 -12 q 229 28 303 -12 q 115 141 156 68 q 74 311 74 214 q 114 481 74 408 q 226 593 154 553 q 393 633 297 633 q 551 588 486 633 q 643 447 617 542 l 625 447 q 567 667 622 571 q 415 824 511 763 l 446 824 l 208 722 l 176 794 l 358 872 l 361 854 q 293 885 331 871 q 214 908 256 899 l 239 989 q 364 951 307 975 q 465 901 421 928 l 432 904 l 632 989 l 664 917 l 511 851 l 515 868 q 639 742 589 814 q 715 585 689 671 q 740 399 740 499 q 701 176 740 268 q 585 36 661 85 q 401 -12 510 -12 m 403 85 q 559 145 503 85 q 615 313 615 206 q 559 478 615 418 q 404 539 503 539 q 249 478 307 539 q 192 313 192 417 q 249 145 192 206 q 403 85 306 85 z "},"ď":{"ha":849,"x_min":74,"x_max":897,"o":"m 381 -12 q 218 31 288 -12 q 111 155 149 75 q 74 340 74 235 q 111 527 74 449 q 217 649 149 606 q 379 693 286 693 q 534 649 469 693 q 624 531 599 606 l 615 531 l 615 979 l 733 979 l 733 0 l 622 0 l 622 156 l 628 156 q 537 33 603 78 q 381 -12 471 -12 m 404 83 q 560 151 503 83 q 618 340 618 219 q 560 530 618 463 q 406 597 503 597 q 249 530 307 597 q 192 340 192 463 q 249 151 192 219 q 404 83 307 83 m 799 714 l 799 979 l 897 979 l 864 714 l 799 714 z "},"đ":{"ha":854,"x_min":74,"x_max":858,"o":"m 381 -12 q 219 31 288 -12 q 112 153 150 74 q 74 338 74 232 q 111 522 74 443 q 218 643 149 600 q 379 686 288 686 q 534 643 469 686 q 624 525 599 600 l 617 525 l 617 769 l 350 769 l 350 854 l 617 854 l 617 979 l 735 979 l 735 856 l 858 856 l 858 769 l 735 769 l 735 0 l 621 0 l 621 156 l 629 156 q 537 33 603 78 q 381 -12 471 -12 m 406 82 q 561 149 504 82 q 618 336 618 215 q 561 524 618 457 q 406 592 504 592 q 292 561 340 592 q 218 474 244 531 q 192 336 192 418 q 249 149 192 215 q 406 82 307 82 z "},"ḍ":{"ha":849,"x_min":74,"x_max":733,"o":"m 381 -12 q 218 31 288 -12 q 111 155 149 75 q 74 340 74 235 q 111 527 74 449 q 217 649 149 606 q 379 693 286 693 q 534 649 469 693 q 624 531 599 606 l 615 531 l 615 979 l 733 979 l 733 0 l 622 0 l 622 156 l 628 156 q 537 33 603 78 q 381 -12 471 -12 m 404 83 q 560 151 503 83 q 618 340 618 219 q 560 530 618 463 q 406 597 503 597 q 249 530 307 597 q 192 340 192 463 q 249 151 192 219 q 404 83 307 83 m 350 -262 l 350 -136 l 481 -136 l 481 -262 l 350 -262 z "},"ɗ":{"ha":849,"x_min":74,"x_max":938,"o":"m 379 -12 q 218 31 288 -12 q 111 155 149 75 q 74 340 74 235 q 111 527 74 449 q 217 649 149 606 q 379 693 286 693 q 534 649 469 693 q 624 531 599 606 l 615 531 l 615 751 q 642 881 615 828 q 720 963 668 933 q 850 992 772 992 q 897 988 874 992 q 938 979 921 985 l 925 886 q 892 893 907 892 q 860 894 876 894 q 765 859 797 894 q 733 751 733 824 l 733 0 l 622 0 l 622 156 l 628 156 q 536 33 601 78 q 379 -12 471 -12 m 404 83 q 560 151 503 83 q 618 340 618 219 q 560 530 618 463 q 404 597 503 597 q 249 530 307 597 q 192 340 192 463 q 249 151 192 219 q 404 83 307 83 z "},"ḏ":{"ha":849,"x_min":74,"x_max":733,"o":"m 381 -12 q 218 31 288 -12 q 111 155 149 75 q 74 340 74 235 q 111 527 74 449 q 217 649 149 606 q 379 693 286 693 q 534 649 469 693 q 624 531 599 606 l 615 531 l 615 979 l 733 979 l 733 0 l 622 0 l 622 156 l 628 156 q 537 33 603 78 q 381 -12 471 -12 m 404 83 q 560 151 503 83 q 618 340 618 219 q 560 530 618 463 q 406 597 503 597 q 249 530 307 597 q 192 340 192 463 q 249 151 192 219 q 404 83 307 83 m 201 -222 l 201 -137 l 629 -137 l 629 -222 l 201 -222 z "},"ǆ":{"ha":1531,"x_min":74,"x_max":1478,"o":"m 381 -12 q 218 31 288 -12 q 111 155 149 75 q 74 340 74 235 q 111 527 74 449 q 217 649 149 606 q 379 693 286 693 q 534 649 469 693 q 624 531 599 606 l 615 531 l 615 979 l 733 979 l 733 0 l 622 0 l 622 156 l 628 156 q 537 33 603 78 q 381 -12 471 -12 m 404 83 q 560 151 503 83 q 618 340 618 219 q 560 530 618 463 q 406 597 503 597 q 249 530 307 597 q 192 340 192 463 q 249 151 192 219 q 404 83 307 83 m 928 0 l 928 76 l 1350 619 l 1353 586 l 933 586 l 933 681 l 1463 681 l 1463 604 l 1038 58 l 1035 96 l 1478 96 l 1478 0 l 928 0 m 1142 771 l 988 1049 l 1074 1049 l 1199 849 l 1324 1049 l 1410 1049 l 1256 771 l 1142 771 z "},"e":{"ha":778,"x_min":74,"x_max":710,"o":"m 432 -12 q 240 30 321 -12 q 117 151 160 72 q 74 340 74 231 q 115 524 74 444 q 231 648 156 603 q 406 693 306 693 q 570 651 503 693 q 674 534 638 610 q 710 353 710 458 l 710 311 l 163 311 l 163 392 l 632 392 l 608 369 q 557 542 608 481 q 407 604 506 604 q 290 573 339 604 q 214 485 240 542 q 188 353 188 429 l 188 342 q 216 200 188 257 q 300 113 244 143 q 433 83 356 83 q 549 101 492 83 q 657 160 606 118 l 697 76 q 576 10 647 33 q 432 -12 504 -12 z "},"é":{"ha":778,"x_min":74,"x_max":710,"o":"m 432 -12 q 240 30 321 -12 q 117 151 160 72 q 74 340 74 231 q 115 524 74 444 q 231 648 156 603 q 406 693 306 693 q 570 651 503 693 q 674 534 638 610 q 710 353 710 458 l 710 311 l 163 311 l 163 392 l 632 392 l 608 369 q 557 542 608 481 q 407 604 506 604 q 290 573 339 604 q 214 485 240 542 q 188 353 188 429 l 188 342 q 216 200 188 257 q 300 113 244 143 q 433 83 356 83 q 549 101 492 83 q 657 160 606 118 l 697 76 q 576 10 647 33 q 432 -12 504 -12 m 361 771 l 506 1049 l 635 1049 l 450 771 l 361 771 z "},"ĕ":{"ha":778,"x_min":74,"x_max":710,"o":"m 432 -12 q 240 30 321 -12 q 117 151 160 72 q 74 340 74 231 q 115 524 74 444 q 231 648 156 603 q 406 693 306 693 q 570 651 503 693 q 674 534 638 610 q 710 353 710 458 l 710 311 l 163 311 l 163 392 l 632 392 l 608 369 q 557 542 608 481 q 407 604 506 604 q 290 573 339 604 q 214 485 240 542 q 188 353 188 429 l 188 342 q 216 200 188 257 q 300 113 244 143 q 433 83 356 83 q 549 101 492 83 q 657 160 606 118 l 697 76 q 576 10 647 33 q 432 -12 504 -12 m 407 767 q 295 799 343 767 q 220 892 247 832 q 189 1035 193 953 l 267 1042 q 308 900 272 950 q 407 850 343 850 q 506 900 471 850 q 547 1042 542 950 l 625 1035 q 595 892 622 953 q 520 799 568 832 q 407 767 472 767 z "},"ě":{"ha":778,"x_min":74,"x_max":710,"o":"m 432 -12 q 240 30 321 -12 q 117 151 160 72 q 74 340 74 231 q 115 524 74 444 q 231 648 156 603 q 406 693 306 693 q 570 651 503 693 q 674 534 638 610 q 710 353 710 458 l 710 311 l 163 311 l 163 392 l 632 392 l 608 369 q 557 542 608 481 q 407 604 506 604 q 290 573 339 604 q 214 485 240 542 q 188 353 188 429 l 188 342 q 216 200 188 257 q 300 113 244 143 q 433 83 356 83 q 549 101 492 83 q 657 160 606 118 l 697 76 q 576 10 647 33 q 432 -12 504 -12 m 350 771 l 196 1049 l 282 1049 l 407 849 l 532 1049 l 618 1049 l 464 771 l 350 771 z "},"ḝ":{"ha":778,"x_min":74,"x_max":710,"o":"m 432 -12 q 240 30 321 -12 q 117 151 160 72 q 74 340 74 231 q 115 524 74 444 q 231 648 156 603 q 406 693 306 693 q 570 651 503 693 q 674 534 638 610 q 710 353 710 458 l 710 311 l 163 311 l 163 392 l 632 392 l 608 369 q 557 542 608 481 q 407 604 506 604 q 290 573 339 604 q 214 485 240 542 q 188 353 188 429 l 188 342 q 216 200 188 257 q 300 113 244 143 q 433 83 356 83 q 549 101 492 83 q 657 160 606 118 l 697 76 q 576 10 647 33 q 432 -12 504 -12 m 411 -269 q 340 -262 375 -269 q 282 -242 306 -256 l 301 -178 q 351 -196 328 -190 q 408 -201 375 -201 q 467 -189 444 -201 q 489 -151 489 -176 q 475 -123 489 -133 q 435 -112 461 -112 q 405 -115 421 -112 q 368 -124 389 -118 l 344 -103 l 364 28 l 438 28 l 419 -79 l 385 -68 q 419 -60 401 -62 q 453 -57 438 -57 q 514 -68 488 -57 q 556 -101 540 -79 q 572 -154 572 -122 q 551 -215 572 -189 q 494 -256 531 -242 q 411 -269 458 -269 m 407 767 q 295 799 343 767 q 220 892 247 832 q 189 1035 193 953 l 267 1042 q 308 900 272 950 q 407 850 343 850 q 506 900 471 850 q 547 1042 542 950 l 625 1035 q 595 892 622 953 q 520 799 568 832 q 407 767 472 767 z "},"ê":{"ha":778,"x_min":74,"x_max":710,"o":"m 432 -12 q 240 30 321 -12 q 117 151 160 72 q 74 340 74 231 q 115 524 74 444 q 231 648 156 603 q 406 693 306 693 q 570 651 503 693 q 674 534 638 610 q 710 353 710 458 l 710 311 l 163 311 l 163 392 l 632 392 l 608 369 q 557 542 608 481 q 407 604 506 604 q 290 573 339 604 q 214 485 240 542 q 188 353 188 429 l 188 342 q 216 200 188 257 q 300 113 244 143 q 433 83 356 83 q 549 101 492 83 q 657 160 606 118 l 697 76 q 576 10 647 33 q 432 -12 504 -12 m 196 774 l 350 1049 l 464 1049 l 618 774 l 532 774 l 407 969 l 282 774 l 196 774 z "},"ế":{"ha":778,"x_min":74,"x_max":769,"o":"m 432 -12 q 240 30 321 -12 q 117 151 160 72 q 74 340 74 231 q 115 524 74 444 q 231 648 156 603 q 406 693 306 693 q 570 651 503 693 q 674 534 638 610 q 710 353 710 458 l 710 311 l 163 311 l 163 392 l 632 392 l 608 369 q 557 542 608 481 q 407 604 506 604 q 290 573 339 604 q 214 485 240 542 q 188 353 188 429 l 188 342 q 216 200 188 257 q 300 113 244 143 q 433 83 356 83 q 549 101 492 83 q 657 160 606 118 l 697 76 q 576 10 647 33 q 432 -12 504 -12 m 194 775 l 350 1004 l 464 1004 l 619 775 l 533 775 l 407 929 l 279 775 l 194 775 m 542 925 l 657 1133 l 769 1133 l 618 925 l 542 925 z "},"ệ":{"ha":778,"x_min":74,"x_max":710,"o":"m 432 -12 q 240 30 321 -12 q 117 151 160 72 q 74 340 74 231 q 115 524 74 444 q 231 648 156 603 q 406 693 306 693 q 570 651 503 693 q 674 534 638 610 q 710 353 710 458 l 710 311 l 163 311 l 163 392 l 632 392 l 608 369 q 557 542 608 481 q 407 604 506 604 q 290 573 339 604 q 214 485 240 542 q 188 353 188 429 l 188 342 q 216 200 188 257 q 300 113 244 143 q 433 83 356 83 q 549 101 492 83 q 657 160 606 118 l 697 76 q 576 10 647 33 q 432 -12 504 -12 m 340 -262 l 340 -136 l 471 -136 l 471 -262 l 340 -262 m 196 774 l 350 1049 l 464 1049 l 618 774 l 532 774 l 407 969 l 282 774 l 196 774 z "},"ề":{"ha":778,"x_min":74,"x_max":710,"o":"m 432 -12 q 240 30 321 -12 q 117 151 160 72 q 74 340 74 231 q 115 524 74 444 q 231 648 156 603 q 406 693 306 693 q 570 651 503 693 q 674 534 638 610 q 710 353 710 458 l 710 311 l 163 311 l 163 392 l 632 392 l 608 369 q 557 542 608 481 q 407 604 506 604 q 290 573 339 604 q 214 485 240 542 q 188 353 188 429 l 188 342 q 216 200 188 257 q 300 113 244 143 q 433 83 356 83 q 549 101 492 83 q 657 160 606 118 l 697 76 q 576 10 647 33 q 432 -12 504 -12 m 194 775 l 350 1004 l 464 1004 l 619 775 l 533 775 l 407 929 l 279 775 l 194 775 m 597 925 l 446 1133 l 560 1133 l 675 925 l 597 925 z "},"ể":{"ha":778,"x_min":74,"x_max":722,"o":"m 432 -12 q 240 30 321 -12 q 117 151 160 72 q 74 340 74 231 q 115 524 74 444 q 231 648 156 603 q 406 693 306 693 q 570 651 503 693 q 674 534 638 610 q 710 353 710 458 l 710 311 l 163 311 l 163 392 l 632 392 l 608 369 q 557 542 608 481 q 407 604 506 604 q 290 573 339 604 q 214 485 240 542 q 188 353 188 429 l 188 342 q 216 200 188 257 q 300 113 244 143 q 433 83 356 83 q 549 101 492 83 q 657 160 606 118 l 697 76 q 576 10 647 33 q 432 -12 504 -12 m 194 775 l 350 1004 l 464 1004 l 619 775 l 533 775 l 407 929 l 279 775 l 194 775 m 551 926 q 563 973 551 956 q 592 1002 575 990 q 620 1025 608 1014 q 632 1051 632 1036 q 616 1073 632 1068 q 571 1078 600 1078 q 532 1074 553 1078 q 488 1063 511 1071 l 469 1118 q 524 1135 494 1129 q 594 1142 554 1142 q 689 1122 656 1142 q 722 1069 722 1103 q 708 1025 722 1042 q 674 995 693 1008 q 641 967 656 982 q 626 926 626 951 l 551 926 z "},"ễ":{"ha":778,"x_min":74,"x_max":710,"o":"m 432 -12 q 240 30 321 -12 q 117 151 160 72 q 74 340 74 231 q 115 524 74 444 q 231 648 156 603 q 406 693 306 693 q 570 651 503 693 q 674 534 638 610 q 710 353 710 458 l 710 311 l 163 311 l 163 392 l 632 392 l 608 369 q 557 542 608 481 q 407 604 506 604 q 290 573 339 604 q 214 485 240 542 q 188 353 188 429 l 188 342 q 216 200 188 257 q 300 113 244 143 q 433 83 356 83 q 549 101 492 83 q 657 160 606 118 l 697 76 q 576 10 647 33 q 432 -12 504 -12 m 194 775 l 350 964 l 464 964 l 619 775 l 535 775 l 407 896 l 279 775 l 194 775 m 249 999 l 182 1003 q 203 1083 186 1051 q 248 1132 219 1115 q 315 1149 276 1149 q 368 1138 343 1149 q 421 1108 393 1126 q 464 1084 447 1092 q 496 1076 481 1076 q 543 1094 528 1076 q 565 1151 558 1111 l 632 1146 q 592 1038 626 1075 q 500 1001 558 1001 q 446 1013 471 1001 q 390 1044 421 1024 q 353 1065 369 1057 q 318 1074 336 1074 q 272 1056 289 1074 q 249 999 256 1039 z "},"ȅ":{"ha":778,"x_min":74,"x_max":710,"o":"m 432 -12 q 240 30 321 -12 q 117 151 160 72 q 74 340 74 231 q 115 524 74 444 q 231 648 156 603 q 406 693 306 693 q 570 651 503 693 q 674 534 638 610 q 710 353 710 458 l 710 311 l 163 311 l 163 392 l 632 392 l 608 369 q 557 542 608 481 q 407 604 506 604 q 290 573 339 604 q 214 485 240 542 q 188 353 188 429 l 188 342 q 216 200 188 257 q 300 113 244 143 q 433 83 356 83 q 549 101 492 83 q 657 160 606 118 l 697 76 q 576 10 647 33 q 432 -12 504 -12 m 465 771 l 349 1049 l 460 1049 l 533 771 l 465 771 m 283 771 l 167 1049 l 276 1049 l 351 771 l 283 771 z "},"ë":{"ha":778,"x_min":74,"x_max":710,"o":"m 432 -12 q 240 30 321 -12 q 117 151 160 72 q 74 340 74 231 q 115 524 74 444 q 231 648 156 603 q 406 693 306 693 q 570 651 503 693 q 674 534 638 610 q 710 353 710 458 l 710 311 l 163 311 l 163 392 l 632 392 l 608 369 q 557 542 608 481 q 407 604 506 604 q 290 573 339 604 q 214 485 240 542 q 188 353 188 429 l 188 342 q 216 200 188 257 q 300 113 244 143 q 433 83 356 83 q 549 101 492 83 q 657 160 606 118 l 697 76 q 576 10 647 33 q 432 -12 504 -12 m 471 849 l 471 975 l 599 975 l 599 849 l 471 849 m 215 849 l 215 975 l 343 975 l 343 849 l 215 849 z "},"ė":{"ha":778,"x_min":74,"x_max":710,"o":"m 432 -12 q 240 30 321 -12 q 117 151 160 72 q 74 340 74 231 q 115 524 74 444 q 231 648 156 603 q 406 693 306 693 q 570 651 503 693 q 674 534 638 610 q 710 353 710 458 l 710 311 l 163 311 l 163 392 l 632 392 l 608 369 q 557 542 608 481 q 407 604 506 604 q 290 573 339 604 q 214 485 240 542 q 188 353 188 429 l 188 342 q 216 200 188 257 q 300 113 244 143 q 433 83 356 83 q 549 101 492 83 q 657 160 606 118 l 697 76 q 576 10 647 33 q 432 -12 504 -12 m 342 850 l 342 976 l 472 976 l 472 850 l 342 850 z "},"ẹ":{"ha":778,"x_min":74,"x_max":710,"o":"m 432 -12 q 240 30 321 -12 q 117 151 160 72 q 74 340 74 231 q 115 524 74 444 q 231 648 156 603 q 406 693 306 693 q 570 651 503 693 q 674 534 638 610 q 710 353 710 458 l 710 311 l 163 311 l 163 392 l 632 392 l 608 369 q 557 542 608 481 q 407 604 506 604 q 290 573 339 604 q 214 485 240 542 q 188 353 188 429 l 188 342 q 216 200 188 257 q 300 113 244 143 q 433 83 356 83 q 549 101 492 83 q 657 160 606 118 l 697 76 q 576 10 647 33 q 432 -12 504 -12 m 340 -262 l 340 -136 l 471 -136 l 471 -262 l 340 -262 z "},"è":{"ha":778,"x_min":74,"x_max":710,"o":"m 432 -12 q 240 30 321 -12 q 117 151 160 72 q 74 340 74 231 q 115 524 74 444 q 231 648 156 603 q 406 693 306 693 q 570 651 503 693 q 674 534 638 610 q 710 353 710 458 l 710 311 l 163 311 l 163 392 l 632 392 l 608 369 q 557 542 608 481 q 407 604 506 604 q 290 573 339 604 q 214 485 240 542 q 188 353 188 429 l 188 342 q 216 200 188 257 q 300 113 244 143 q 433 83 356 83 q 549 101 492 83 q 657 160 606 118 l 697 76 q 576 10 647 33 q 432 -12 504 -12 m 364 772 l 181 1049 l 310 1049 l 453 772 l 364 772 z "},"ẻ":{"ha":778,"x_min":74,"x_max":710,"o":"m 432 -12 q 240 30 321 -12 q 117 151 160 72 q 74 340 74 231 q 115 524 74 444 q 231 648 156 603 q 406 693 306 693 q 570 651 503 693 q 674 534 638 610 q 710 353 710 458 l 710 311 l 163 311 l 163 392 l 632 392 l 608 369 q 557 542 608 481 q 407 604 506 604 q 290 573 339 604 q 214 485 240 542 q 188 353 188 429 l 188 342 q 216 200 188 257 q 300 113 244 143 q 433 83 356 83 q 549 101 492 83 q 657 160 606 118 l 697 76 q 576 10 647 33 q 432 -12 504 -12 m 365 772 l 365 800 q 378 853 365 832 q 408 888 392 874 q 438 917 425 903 q 451 953 451 932 q 436 982 451 972 q 388 992 421 992 q 346 987 367 992 q 300 969 325 982 l 279 1032 q 340 1056 306 1049 q 413 1064 374 1064 q 516 1039 479 1064 q 553 968 553 1014 q 538 911 553 932 q 501 875 522 890 q 465 841 481 860 q 449 793 449 822 l 449 772 l 365 772 z "},"ȇ":{"ha":778,"x_min":74,"x_max":710,"o":"m 432 -12 q 240 30 321 -12 q 117 151 160 72 q 74 340 74 231 q 115 524 74 444 q 231 648 156 603 q 406 693 306 693 q 570 651 503 693 q 674 534 638 610 q 710 353 710 458 l 710 311 l 163 311 l 163 392 l 632 392 l 608 369 q 557 542 608 481 q 407 604 506 604 q 290 573 339 604 q 214 485 240 542 q 188 353 188 429 l 188 342 q 216 200 188 257 q 300 113 244 143 q 433 83 356 83 q 549 101 492 83 q 657 160 606 118 l 697 76 q 576 10 647 33 q 432 -12 504 -12 m 267 767 l 189 775 q 220 917 193 857 q 295 1009 247 976 q 407 1042 343 1042 q 520 1009 472 1042 q 595 917 568 976 q 625 775 622 857 l 547 767 q 506 908 542 858 q 407 958 471 958 q 308 908 343 958 q 267 767 272 858 z "},"ē":{"ha":778,"x_min":74,"x_max":710,"o":"m 432 -12 q 240 30 321 -12 q 117 151 160 72 q 74 340 74 231 q 115 524 74 444 q 231 648 156 603 q 406 693 306 693 q 570 651 503 693 q 674 534 638 610 q 710 353 710 458 l 710 311 l 163 311 l 163 392 l 632 392 l 608 369 q 557 542 608 481 q 407 604 506 604 q 290 573 339 604 q 214 485 240 542 q 188 353 188 429 l 188 342 q 216 200 188 257 q 300 113 244 143 q 433 83 356 83 q 549 101 492 83 q 657 160 606 118 l 697 76 q 576 10 647 33 q 432 -12 504 -12 m 193 871 l 193 956 l 621 956 l 621 871 l 193 871 z "},"ḗ":{"ha":778,"x_min":74,"x_max":710,"o":"m 432 -12 q 240 30 321 -12 q 117 151 160 72 q 74 340 74 231 q 115 524 74 444 q 231 648 156 603 q 406 693 306 693 q 570 651 503 693 q 674 534 638 610 q 710 353 710 458 l 710 311 l 163 311 l 163 392 l 632 392 l 608 369 q 557 542 608 481 q 407 604 506 604 q 290 573 339 604 q 214 485 240 542 q 188 353 188 429 l 188 342 q 216 200 188 257 q 300 113 244 143 q 433 83 356 83 q 549 101 492 83 q 657 160 606 118 l 697 76 q 576 10 647 33 q 432 -12 504 -12 m 197 801 l 197 885 l 617 885 l 617 801 l 197 801 m 358 938 l 478 1135 l 604 1135 l 442 938 l 358 938 z "},"ḕ":{"ha":778,"x_min":74,"x_max":710,"o":"m 432 -12 q 240 30 321 -12 q 117 151 160 72 q 74 340 74 231 q 115 524 74 444 q 231 648 156 603 q 406 693 306 693 q 570 651 503 693 q 674 534 638 610 q 710 353 710 458 l 710 311 l 163 311 l 163 392 l 632 392 l 608 369 q 557 542 608 481 q 407 604 506 604 q 290 573 339 604 q 214 485 240 542 q 188 353 188 429 l 188 342 q 216 200 188 257 q 300 113 244 143 q 433 83 356 83 q 549 101 492 83 q 657 160 606 118 l 697 76 q 576 10 647 33 q 432 -12 504 -12 m 197 801 l 197 885 l 617 885 l 617 801 l 197 801 m 372 938 l 210 1135 l 336 1135 l 456 938 l 372 938 z "},"ę":{"ha":778,"x_min":74,"x_max":710,"o":"m 432 -12 q 240 30 321 -12 q 117 151 160 72 q 74 340 74 231 q 115 524 74 444 q 231 648 156 603 q 406 693 306 693 q 570 651 503 693 q 674 534 638 610 q 710 353 710 458 l 710 311 l 163 311 l 163 392 l 632 392 l 608 369 q 557 542 608 481 q 407 604 506 604 q 290 573 339 604 q 214 485 240 542 q 188 353 188 429 l 188 342 q 216 200 188 257 q 300 113 244 143 q 433 83 356 83 q 549 101 492 83 q 657 160 606 118 l 697 76 q 576 10 647 33 q 432 -12 504 -12 m 483 -269 q 374 -233 415 -269 q 333 -135 333 -196 q 370 -29 333 -79 q 468 51 407 21 l 511 0 q 469 -27 490 -10 q 433 -68 447 -44 q 419 -119 419 -92 q 442 -176 419 -158 q 497 -193 465 -193 q 535 -190 517 -193 q 572 -178 553 -186 l 593 -246 q 544 -263 572 -257 q 483 -269 517 -269 z "},"ẽ":{"ha":778,"x_min":74,"x_max":710,"o":"m 432 -12 q 240 30 321 -12 q 117 151 160 72 q 74 340 74 231 q 115 524 74 444 q 231 648 156 603 q 406 693 306 693 q 570 651 503 693 q 674 534 638 610 q 710 353 710 458 l 710 311 l 163 311 l 163 392 l 632 392 l 608 369 q 557 542 608 481 q 407 604 506 604 q 290 573 339 604 q 214 485 240 542 q 188 353 188 429 l 188 342 q 216 200 188 257 q 300 113 244 143 q 433 83 356 83 q 549 101 492 83 q 657 160 606 118 l 697 76 q 576 10 647 33 q 432 -12 504 -12 m 224 822 l 154 826 q 201 965 163 915 q 304 1015 240 1015 q 364 999 338 1015 q 421 957 390 983 q 467 922 449 933 q 506 911 486 911 q 562 939 542 911 q 590 1019 582 967 l 660 1015 q 613 876 653 925 q 511 826 574 826 q 452 842 479 826 q 392 885 425 857 q 347 919 365 907 q 308 931 329 931 q 253 903 274 931 q 224 822 232 875 z "},"ə":{"ha":779,"x_min":68,"x_max":706,"o":"m 378 -12 q 210 28 279 -12 q 105 147 142 69 q 68 331 68 224 l 68 369 l 617 369 l 617 289 l 146 289 l 174 313 q 226 137 174 197 q 376 76 279 76 q 489 106 440 76 q 565 191 538 135 q 592 328 592 247 l 592 339 q 563 481 592 424 q 480 568 535 539 q 347 597 425 597 q 232 580 289 597 q 121 521 175 563 l 82 606 q 204 671 132 649 q 349 693 276 693 q 540 651 460 693 q 663 531 619 608 q 706 342 706 453 q 665 157 706 238 q 550 32 624 76 q 378 -12 476 -12 z "},"ʒ":{"ha":728,"x_min":32,"x_max":675,"o":"m 336 -264 q 163 -242 240 -264 q 32 -178 85 -219 l 72 -90 q 185 -147 124 -128 q 325 -167 247 -167 q 499 -117 440 -167 q 557 29 557 -68 q 499 161 557 117 q 335 206 442 206 l 190 206 l 189 269 l 519 617 l 519 583 l 58 583 l 58 681 l 631 681 l 631 601 l 311 265 l 285 296 l 368 296 q 594 227 514 296 q 675 35 675 158 q 634 -124 675 -57 q 517 -228 593 -192 q 336 -264 442 -264 z "},"ǯ":{"ha":728,"x_min":32,"x_max":675,"o":"m 336 -264 q 163 -242 240 -264 q 32 -178 85 -219 l 72 -90 q 185 -147 124 -128 q 325 -167 247 -167 q 499 -117 440 -167 q 557 29 557 -68 q 499 161 557 117 q 335 206 442 206 l 190 206 l 189 269 l 519 617 l 519 583 l 58 583 l 58 681 l 631 681 l 631 601 l 311 265 l 285 296 l 368 296 q 594 227 514 296 q 675 35 675 158 q 634 -124 675 -57 q 517 -228 593 -192 q 336 -264 442 -264 m 288 771 l 133 1049 l 219 1049 l 344 849 l 469 1049 l 556 1049 l 401 771 l 288 771 z "},"f":{"ha":501,"x_min":17,"x_max":510,"o":"m 153 0 l 153 589 l 17 589 l 17 681 l 185 681 l 153 650 l 153 699 q 224 903 153 833 q 438 981 296 974 l 500 985 l 510 890 l 436 886 q 347 865 383 883 q 290 809 310 846 q 271 713 271 772 l 271 664 l 254 681 l 476 681 l 476 589 l 271 589 l 271 0 l 153 0 z "},"g":{"ha":850,"x_min":74,"x_max":736,"o":"m 413 -262 q 249 -239 328 -262 q 111 -171 171 -215 l 150 -82 q 233 -128 190 -110 q 319 -156 275 -147 q 408 -165 363 -165 q 567 -111 513 -165 q 622 42 622 -57 l 622 183 l 628 183 q 539 63 606 108 q 385 18 472 18 q 220 60 290 18 q 112 179 150 103 q 74 356 74 256 q 112 533 74 457 q 220 651 150 610 q 385 693 290 693 q 540 648 474 693 q 629 525 607 603 l 622 525 l 622 681 l 736 681 l 736 56 q 699 -117 736 -46 q 589 -226 661 -189 q 413 -262 517 -262 m 406 114 q 563 180 504 114 q 621 356 621 246 q 563 532 621 467 q 406 597 504 597 q 249 532 307 597 q 192 356 192 467 q 249 180 192 246 q 406 114 307 114 z "},"ğ":{"ha":850,"x_min":74,"x_max":736,"o":"m 413 -262 q 249 -239 328 -262 q 111 -171 171 -215 l 150 -82 q 233 -128 190 -110 q 319 -156 275 -147 q 408 -165 363 -165 q 567 -111 513 -165 q 622 42 622 -57 l 622 183 l 628 183 q 539 63 606 108 q 385 18 472 18 q 220 60 290 18 q 112 179 150 103 q 74 356 74 256 q 112 533 74 457 q 220 651 150 610 q 385 693 290 693 q 540 648 474 693 q 629 525 607 603 l 622 525 l 622 681 l 736 681 l 736 56 q 699 -117 736 -46 q 589 -226 661 -189 q 413 -262 517 -262 m 406 114 q 563 180 504 114 q 621 356 621 246 q 563 532 621 467 q 406 597 504 597 q 249 532 307 597 q 192 356 192 467 q 249 180 192 246 q 406 114 307 114 m 419 767 q 308 799 356 767 q 233 892 260 832 q 201 1035 206 953 l 279 1042 q 320 900 285 950 q 419 850 356 850 q 519 900 483 850 q 560 1042 554 950 l 638 1035 q 608 892 635 953 q 533 799 581 832 q 419 767 485 767 z "},"ǧ":{"ha":850,"x_min":74,"x_max":736,"o":"m 413 -262 q 249 -239 328 -262 q 111 -171 171 -215 l 150 -82 q 233 -128 190 -110 q 319 -156 275 -147 q 408 -165 363 -165 q 567 -111 513 -165 q 622 42 622 -57 l 622 183 l 628 183 q 539 63 606 108 q 385 18 472 18 q 220 60 290 18 q 112 179 150 103 q 74 356 74 256 q 112 533 74 457 q 220 651 150 610 q 385 693 290 693 q 540 648 474 693 q 629 525 607 603 l 622 525 l 622 681 l 736 681 l 736 56 q 699 -117 736 -46 q 589 -226 661 -189 q 413 -262 517 -262 m 406 114 q 563 180 504 114 q 621 356 621 246 q 563 532 621 467 q 406 597 504 597 q 249 532 307 597 q 192 356 192 467 q 249 180 192 246 q 406 114 307 114 m 363 771 l 208 1049 l 294 1049 l 419 849 l 544 1049 l 631 1049 l 476 771 l 363 771 z "},"ĝ":{"ha":850,"x_min":74,"x_max":736,"o":"m 413 -262 q 249 -239 328 -262 q 111 -171 171 -215 l 150 -82 q 233 -128 190 -110 q 319 -156 275 -147 q 408 -165 363 -165 q 567 -111 513 -165 q 622 42 622 -57 l 622 183 l 628 183 q 539 63 606 108 q 385 18 472 18 q 220 60 290 18 q 112 179 150 103 q 74 356 74 256 q 112 533 74 457 q 220 651 150 610 q 385 693 290 693 q 540 648 474 693 q 629 525 607 603 l 622 525 l 622 681 l 736 681 l 736 56 q 699 -117 736 -46 q 589 -226 661 -189 q 413 -262 517 -262 m 406 114 q 563 180 504 114 q 621 356 621 246 q 563 532 621 467 q 406 597 504 597 q 249 532 307 597 q 192 356 192 467 q 249 180 192 246 q 406 114 307 114 m 208 774 l 363 1049 l 476 1049 l 631 774 l 544 774 l 419 969 l 294 774 l 208 774 z "},"ģ":{"ha":850,"x_min":74,"x_max":736,"o":"m 413 -262 q 249 -239 328 -262 q 111 -171 171 -215 l 150 -82 q 233 -128 190 -110 q 319 -156 275 -147 q 408 -165 363 -165 q 567 -111 513 -165 q 622 42 622 -57 l 622 183 l 628 183 q 539 63 606 108 q 385 18 472 18 q 220 60 290 18 q 112 179 150 103 q 74 356 74 256 q 112 533 74 457 q 220 651 150 610 q 385 693 290 693 q 540 648 474 693 q 629 525 607 603 l 622 525 l 622 681 l 736 681 l 736 56 q 699 -117 736 -46 q 589 -226 661 -189 q 413 -262 517 -262 m 406 114 q 563 180 504 114 q 621 356 621 246 q 563 532 621 467 q 406 597 504 597 q 249 532 307 597 q 192 356 192 467 q 249 180 192 246 q 406 114 307 114 m 349 794 l 349 883 q 367 984 349 938 q 422 1069 385 1031 l 475 1031 q 431 965 443 997 q 419 899 419 933 l 393 915 l 490 915 l 490 794 l 349 794 z "},"ġ":{"ha":850,"x_min":74,"x_max":736,"o":"m 413 -262 q 249 -239 328 -262 q 111 -171 171 -215 l 150 -82 q 233 -128 190 -110 q 319 -156 275 -147 q 408 -165 363 -165 q 567 -111 513 -165 q 622 42 622 -57 l 622 183 l 628 183 q 539 63 606 108 q 385 18 472 18 q 220 60 290 18 q 112 179 150 103 q 74 356 74 256 q 112 533 74 457 q 220 651 150 610 q 385 693 290 693 q 540 648 474 693 q 629 525 607 603 l 622 525 l 622 681 l 736 681 l 736 56 q 699 -117 736 -46 q 589 -226 661 -189 q 413 -262 517 -262 m 406 114 q 563 180 504 114 q 621 356 621 246 q 563 532 621 467 q 406 597 504 597 q 249 532 307 597 q 192 356 192 467 q 249 180 192 246 q 406 114 307 114 m 354 850 l 354 976 l 485 976 l 485 850 l 354 850 z "},"ḡ":{"ha":850,"x_min":74,"x_max":736,"o":"m 413 -262 q 249 -239 328 -262 q 111 -171 171 -215 l 150 -82 q 233 -128 190 -110 q 319 -156 275 -147 q 408 -165 363 -165 q 567 -111 513 -165 q 622 42 622 -57 l 622 183 l 628 183 q 539 63 606 108 q 385 18 472 18 q 220 60 290 18 q 112 179 150 103 q 74 356 74 256 q 112 533 74 457 q 220 651 150 610 q 385 693 290 693 q 540 648 474 693 q 629 525 607 603 l 622 525 l 622 681 l 736 681 l 736 56 q 699 -117 736 -46 q 589 -226 661 -189 q 413 -262 517 -262 m 406 114 q 563 180 504 114 q 621 356 621 246 q 563 532 621 467 q 406 597 504 597 q 249 532 307 597 q 192 356 192 467 q 249 180 192 246 q 406 114 307 114 m 206 871 l 206 956 l 633 956 l 633 871 l 206 871 z "},"ǥ":{"ha":850,"x_min":74,"x_max":833,"o":"m 413 -262 q 248 -241 326 -262 q 111 -175 169 -219 l 149 -89 q 231 -134 189 -117 q 318 -160 274 -151 q 408 -168 363 -168 q 527 -142 479 -168 q 599 -68 575 -117 l 611 -85 l 414 -85 l 414 -8 l 629 -8 l 614 -29 q 620 3 618 -14 q 622 39 622 19 l 622 214 l 626 214 q 539 95 604 139 q 385 51 474 51 q 221 92 290 51 q 113 205 151 132 q 74 372 74 278 q 113 540 74 467 q 221 653 151 613 q 385 693 290 693 q 540 649 474 693 q 629 528 606 604 l 622 528 l 622 681 l 736 681 l 736 56 q 733 8 736 31 q 728 -35 731 -15 l 718 -8 l 833 -8 l 833 -85 l 692 -85 l 718 -68 q 611 -214 689 -165 q 413 -262 533 -262 m 406 144 q 519 173 471 144 q 593 251 567 201 q 619 368 619 301 q 562 535 619 472 q 406 597 504 597 q 293 569 342 597 q 218 491 244 542 q 192 372 192 440 q 218 252 192 303 q 293 173 244 201 q 406 144 342 144 z "},"h":{"ha":828,"x_min":114,"x_max":717,"o":"m 114 0 l 114 979 l 231 979 l 231 533 l 221 533 q 317 651 251 610 q 468 693 383 693 q 606 663 551 693 q 689 573 661 633 q 717 422 717 513 l 717 0 l 599 0 l 599 415 q 583 514 599 474 q 532 574 567 554 q 442 594 497 594 q 332 567 379 594 q 258 493 285 540 q 232 385 232 446 l 232 0 l 114 0 z "},"ħ":{"ha":832,"x_min":-6,"x_max":721,"o":"m 119 0 l 119 769 l -6 769 l -6 856 l 119 856 l 119 979 l 235 979 l 235 856 l 503 856 l 503 769 l 235 769 l 235 526 l 226 526 q 322 644 256 603 q 474 686 388 686 q 659 619 597 686 q 721 415 721 551 l 721 0 l 603 0 l 603 408 q 587 508 603 468 q 536 567 571 547 q 446 588 501 588 q 338 560 385 588 q 264 486 290 533 q 238 378 238 439 l 238 0 l 119 0 z "},"ḫ":{"ha":828,"x_min":114,"x_max":717,"o":"m 114 0 l 114 979 l 231 979 l 231 533 l 221 533 q 317 651 251 610 q 468 693 383 693 q 606 663 551 693 q 689 573 661 633 q 717 422 717 513 l 717 0 l 599 0 l 599 415 q 583 514 599 474 q 532 574 567 554 q 442 594 497 594 q 332 567 379 594 q 258 493 285 540 q 232 385 232 446 l 232 0 l 114 0 m 418 -299 q 263 -243 322 -299 q 199 -89 204 -187 l 275 -81 q 317 -183 281 -147 q 418 -218 354 -218 q 519 -183 482 -218 q 561 -81 556 -147 l 638 -89 q 574 -242 632 -186 q 418 -299 515 -299 z "},"ȟ":{"ha":828,"x_min":114,"x_max":717,"o":"m 114 0 l 114 979 l 231 979 l 231 533 l 221 533 q 317 651 251 610 q 468 693 383 693 q 606 663 551 693 q 689 573 661 633 q 717 422 717 513 l 717 0 l 599 0 l 599 415 q 583 514 599 474 q 532 574 567 554 q 442 594 497 594 q 332 567 379 594 q 258 493 285 540 q 232 385 232 446 l 232 0 l 114 0 m 353 1063 l 181 1301 l 274 1301 l 408 1138 l 544 1301 l 636 1301 l 464 1063 l 353 1063 z "},"ĥ":{"ha":828,"x_min":114,"x_max":717,"o":"m 114 0 l 114 979 l 231 979 l 231 533 l 221 533 q 317 651 251 610 q 468 693 383 693 q 606 663 551 693 q 689 573 661 633 q 717 422 717 513 l 717 0 l 599 0 l 599 415 q 583 514 599 474 q 532 574 567 554 q 442 594 497 594 q 332 567 379 594 q 258 493 285 540 q 232 385 232 446 l 232 0 l 114 0 m 181 1063 l 353 1301 l 464 1301 l 636 1063 l 543 1063 l 408 1225 l 272 1063 l 181 1063 z "},"ḥ":{"ha":828,"x_min":114,"x_max":717,"o":"m 114 0 l 114 979 l 231 979 l 231 533 l 221 533 q 317 651 251 610 q 468 693 383 693 q 606 663 551 693 q 689 573 661 633 q 717 422 717 513 l 717 0 l 599 0 l 599 415 q 583 514 599 474 q 532 574 567 554 q 442 594 497 594 q 332 567 379 594 q 258 493 285 540 q 232 385 232 446 l 232 0 l 114 0 m 353 -262 l 353 -136 l 483 -136 l 483 -262 l 353 -262 z "},"i":{"ha":347,"x_min":100,"x_max":244,"o":"m 100 847 l 100 979 l 244 979 l 244 847 l 100 847 m 114 0 l 114 681 l 232 681 l 232 0 l 114 0 z "},"ı":{"ha":347,"x_min":114,"x_max":232,"o":"m 114 0 l 114 681 l 232 681 l 232 0 l 114 0 z "},"í":{"ha":347,"x_min":114,"x_max":400,"o":"m 114 0 l 114 681 l 232 681 l 232 0 l 114 0 m 126 771 l 271 1049 l 400 1049 l 215 771 l 126 771 z "},"ĭ":{"ha":347,"x_min":-46,"x_max":390,"o":"m 114 0 l 114 681 l 232 681 l 232 0 l 114 0 m 172 767 q 60 799 108 767 q -15 892 13 832 q -46 1035 -42 953 l 32 1042 q 73 900 38 950 q 172 850 108 850 q 272 900 236 850 q 313 1042 307 950 l 390 1035 q 360 892 388 953 q 285 799 333 832 q 172 767 238 767 z "},"î":{"ha":347,"x_min":-37,"x_max":383,"o":"m 114 0 l 114 681 l 232 681 l 232 0 l 114 0 m -39 774 l 115 1049 l 229 1049 l 383 774 l 297 774 l 172 969 l 47 774 l -39 774 z "},"ȉ":{"ha":347,"x_min":-68,"x_max":299,"o":"m 114 0 l 114 681 l 232 681 l 232 0 l 114 0 m 231 771 l 114 1049 l 225 1049 l 299 771 l 231 771 m 49 771 l -68 1049 l 42 1049 l 117 771 l 49 771 z "},"ï":{"ha":347,"x_min":-19,"x_max":364,"o":"m 114 0 l 114 681 l 232 681 l 232 0 l 114 0 m 236 849 l 236 975 l 364 975 l 364 849 l 236 849 m -19 849 l -19 975 l 108 975 l 108 849 l -19 849 z "},"ḯ":{"ha":347,"x_min":-18,"x_max":376,"o":"m 114 0 l 114 681 l 232 681 l 232 0 l 114 0 m 129 932 l 249 1129 l 376 1129 l 213 932 l 129 932 m -18 772 l -18 879 l 110 879 l 110 772 l -18 772 m 235 772 l 235 879 l 363 879 l 363 772 l 235 772 z "},"ị":{"ha":347,"x_min":100,"x_max":244,"o":"m 100 847 l 100 979 l 244 979 l 244 847 l 100 847 m 114 0 l 114 681 l 232 681 l 232 0 l 114 0 m 106 -262 l 106 -136 l 236 -136 l 236 -262 l 106 -262 z "},"ì":{"ha":347,"x_min":-54,"x_max":232,"o":"m 114 0 l 114 681 l 232 681 l 232 0 l 114 0 m 129 772 l -54 1049 l 75 1049 l 218 772 l 129 772 z "},"ỉ":{"ha":347,"x_min":44,"x_max":319,"o":"m 114 0 l 114 681 l 232 681 l 232 0 l 114 0 m 131 772 l 131 800 q 144 853 131 832 q 174 888 157 874 q 203 917 190 903 q 217 953 217 932 q 201 982 217 972 q 153 992 186 992 q 111 987 132 992 q 65 969 90 982 l 44 1032 q 105 1056 71 1049 q 178 1064 139 1064 q 281 1039 244 1064 q 318 968 318 1014 q 303 911 318 932 q 267 875 288 890 q 230 841 246 860 q 214 793 214 822 l 214 772 l 131 772 z "},"ȋ":{"ha":347,"x_min":-46,"x_max":390,"o":"m 114 0 l 114 681 l 232 681 l 232 0 l 114 0 m 32 767 l -46 775 q -15 917 -42 857 q 60 1009 13 976 q 172 1042 108 1042 q 285 1009 238 1042 q 360 917 333 976 q 390 775 388 857 l 313 767 q 272 908 307 858 q 172 958 236 958 q 73 908 108 958 q 32 767 38 858 z "},"ĳ":{"ha":685,"x_min":100,"x_max":590,"o":"m 100 847 l 100 979 l 244 979 l 244 847 l 100 847 m 114 0 l 114 681 l 232 681 l 232 0 l 114 0 m 446 847 l 446 979 l 590 979 l 590 847 l 446 847 m 276 -268 l 268 -174 l 331 -167 q 426 -124 393 -160 q 460 -17 460 -89 l 460 681 l 578 681 l 578 -8 q 563 -113 578 -68 q 520 -190 549 -158 q 447 -239 492 -221 q 342 -262 403 -257 l 276 -268 z "},"ī":{"ha":347,"x_min":-42,"x_max":388,"o":"m 114 0 l 114 681 l 232 681 l 232 0 l 114 0 m -42 871 l -42 956 l 386 956 l 386 871 l -42 871 z "},"į":{"ha":347,"x_min":38,"x_max":297,"o":"m 114 0 l 114 681 l 232 681 l 232 0 l 114 0 m 100 847 l 100 979 l 244 979 l 244 847 l 100 847 m 188 -269 q 78 -233 119 -269 q 38 -135 38 -196 q 74 -29 38 -79 q 172 51 111 21 l 215 0 q 173 -27 194 -10 q 138 -68 151 -44 q 124 -119 124 -92 q 147 -176 124 -158 q 201 -193 169 -193 q 239 -190 221 -193 q 276 -178 257 -186 l 297 -246 q 249 -263 276 -257 q 188 -269 221 -269 z "},"ĩ":{"ha":347,"x_min":-81,"x_max":425,"o":"m 114 0 l 114 681 l 232 681 l 232 0 l 114 0 m -11 822 l -81 826 q -33 965 -72 915 q 69 1015 6 1015 q 129 999 103 1015 q 186 957 156 983 q 233 922 214 933 q 271 911 251 911 q 327 939 307 911 q 356 1019 347 967 l 425 1015 q 378 876 418 925 q 276 826 339 826 q 217 842 244 826 q 157 885 190 857 q 113 919 131 907 q 74 931 94 931 q 18 903 39 931 q -11 822 -3 875 z "},"j":{"ha":338,"x_min":-79,"x_max":243,"o":"m 99 847 l 99 979 l 243 979 l 243 847 l 99 847 m -71 -268 l -79 -174 l -17 -167 q 79 -124 46 -160 q 113 -17 113 -89 l 113 681 l 231 681 l 231 -8 q 216 -113 231 -68 q 173 -190 201 -158 q 100 -239 144 -221 q -6 -262 56 -257 l -71 -268 z "},"ȷ":{"ha":338,"x_min":-79,"x_max":231,"o":"m -71 -268 l -79 -174 l -17 -167 q 79 -124 46 -160 q 113 -17 113 -89 l 113 681 l 231 681 l 231 -8 q 216 -113 231 -68 q 173 -190 201 -158 q 100 -239 144 -221 q -6 -262 56 -257 l -71 -268 z "},"ĵ":{"ha":338,"x_min":-79,"x_max":382,"o":"m -71 -268 l -79 -174 l -17 -167 q 79 -124 46 -160 q 113 -17 113 -89 l 113 681 l 231 681 l 231 -8 q 216 -113 231 -68 q 173 -190 201 -158 q 100 -239 144 -221 q -6 -262 56 -257 l -71 -268 m -40 774 l 114 1049 l 228 1049 l 382 774 l 296 774 l 171 969 l 46 774 l -40 774 z "},"k":{"ha":721,"x_min":114,"x_max":726,"o":"m 114 0 l 114 979 l 232 979 l 232 378 l 236 378 l 547 681 l 694 681 l 325 322 l 326 381 l 726 0 l 576 0 l 236 317 l 232 317 l 232 0 l 114 0 z "},"ǩ":{"ha":721,"x_min":114,"x_max":726,"o":"m 114 0 l 114 979 l 232 979 l 232 378 l 236 378 l 547 681 l 694 681 l 325 322 l 326 381 l 726 0 l 576 0 l 236 317 l 232 317 l 232 0 l 114 0 m 353 1063 l 181 1301 l 274 1301 l 408 1138 l 544 1301 l 636 1301 l 464 1063 l 353 1063 z "},"ķ":{"ha":721,"x_min":114,"x_max":726,"o":"m 114 0 l 114 979 l 232 979 l 232 378 l 236 378 l 547 681 l 694 681 l 325 322 l 326 381 l 726 0 l 576 0 l 236 317 l 232 317 l 232 0 l 114 0 m 358 -385 l 306 -347 q 349 -282 338 -314 q 361 -215 361 -250 l 388 -231 l 290 -231 l 290 -110 l 432 -110 l 432 -200 q 415 -301 432 -254 q 358 -385 397 -347 z "},"ĸ":{"ha":721,"x_min":114,"x_max":726,"o":"m 114 0 l 114 681 l 232 681 l 232 378 l 236 378 l 547 681 l 694 681 l 325 322 l 326 381 l 726 0 l 576 0 l 236 317 l 232 317 l 232 0 l 114 0 z "},"l":{"ha":429,"x_min":114,"x_max":415,"o":"m 322 -12 q 167 47 221 -12 q 114 217 114 107 l 114 979 l 232 979 l 232 226 q 245 150 232 182 q 283 103 258 118 q 344 88 308 88 q 380 89 363 88 q 415 96 397 90 l 414 0 q 369 -9 392 -6 q 322 -12 347 -12 z "},"ĺ":{"ha":429,"x_min":114,"x_max":428,"o":"m 322 -12 q 167 47 221 -12 q 114 217 114 107 l 114 979 l 232 979 l 232 226 q 245 150 232 182 q 283 103 258 118 q 344 88 308 88 q 380 89 363 88 q 415 96 397 90 l 414 0 q 369 -9 392 -6 q 322 -12 347 -12 m 126 1063 l 290 1301 l 428 1301 l 221 1063 l 126 1063 z "},"ľ":{"ha":429,"x_min":114,"x_max":415,"o":"m 322 -12 q 167 47 221 -12 q 114 217 114 107 l 114 979 l 232 979 l 232 226 q 245 150 232 182 q 283 103 258 118 q 344 88 308 88 q 380 89 363 88 q 415 96 397 90 l 414 0 q 369 -9 392 -6 q 322 -12 347 -12 m 297 714 l 297 979 l 396 979 l 363 714 l 297 714 z "},"ļ":{"ha":429,"x_min":114,"x_max":415,"o":"m 322 -12 q 167 47 221 -12 q 114 217 114 107 l 114 979 l 232 979 l 232 226 q 245 150 232 182 q 283 103 258 118 q 344 88 308 88 q 380 89 363 88 q 415 96 397 90 l 414 0 q 369 -9 392 -6 q 322 -12 347 -12 m 267 -383 l 214 -346 q 258 -281 246 -312 q 269 -214 269 -249 l 296 -229 l 199 -229 l 199 -108 l 340 -108 l 340 -199 q 323 -299 340 -253 q 267 -383 306 -346 z "},"ŀ":{"ha":471,"x_min":114,"x_max":481,"o":"m 322 -12 q 167 47 221 -12 q 114 217 114 107 l 114 979 l 232 979 l 232 226 q 245 150 232 182 q 283 103 258 118 q 344 88 308 88 q 380 89 363 88 q 415 96 397 90 l 414 0 q 369 -9 392 -6 q 322 -12 347 -12 m 335 431 l 335 563 l 482 563 l 482 431 l 335 431 z "},"ḷ":{"ha":429,"x_min":114,"x_max":415,"o":"m 322 -12 q 167 47 221 -12 q 114 217 114 107 l 114 979 l 232 979 l 232 226 q 245 150 232 182 q 283 103 258 118 q 344 88 308 88 q 380 89 363 88 q 415 96 397 90 l 414 0 q 369 -9 392 -6 q 322 -12 347 -12 m 204 -261 l 204 -135 l 335 -135 l 335 -261 l 204 -261 z "},"ǉ":{"ha":768,"x_min":114,"x_max":674,"o":"m 322 -12 q 167 47 221 -12 q 114 217 114 107 l 114 979 l 232 979 l 232 226 q 245 150 232 182 q 283 103 258 118 q 344 88 308 88 q 380 89 363 88 q 415 96 397 90 l 414 0 q 369 -9 392 -6 q 322 -12 347 -12 m 528 847 l 528 979 l 672 979 l 672 847 l 528 847 m 358 -268 l 350 -174 l 413 -167 q 508 -124 475 -160 q 542 -17 542 -89 l 542 681 l 660 681 l 660 -8 q 645 -113 660 -68 q 602 -190 631 -158 q 529 -239 574 -221 q 424 -262 485 -257 l 358 -268 z "},"ḻ":{"ha":429,"x_min":56,"x_max":483,"o":"m 322 -12 q 167 47 221 -12 q 114 217 114 107 l 114 979 l 232 979 l 232 226 q 245 150 232 182 q 283 103 258 118 q 344 88 308 88 q 380 89 363 88 q 415 96 397 90 l 414 0 q 369 -9 392 -6 q 322 -12 347 -12 m 56 -221 l 56 -136 l 483 -136 l 483 -221 l 56 -221 z "},"ł":{"ha":429,"x_min":-24,"x_max":415,"o":"m 322 -12 q 167 47 221 -12 q 114 217 114 107 l 114 979 l 232 979 l 232 226 q 245 150 232 182 q 283 103 258 118 q 344 88 308 88 q 380 89 363 88 q 415 96 397 90 l 414 0 q 369 -9 392 -6 q 322 -12 347 -12 m 25 346 l -24 431 l 350 647 l 399 563 l 25 346 z "},"m":{"ha":1243,"x_min":117,"x_max":1129,"o":"m 117 0 l 117 681 l 229 681 l 229 531 l 221 531 q 272 616 239 579 q 350 673 304 653 q 451 693 396 693 q 594 650 539 693 q 667 529 650 607 l 656 529 q 744 647 682 601 q 896 693 807 693 q 1025 663 974 693 q 1103 574 1076 633 q 1129 422 1129 514 l 1129 0 l 1013 0 l 1013 415 q 980 550 1013 506 q 868 594 947 594 q 769 567 811 594 q 704 493 726 540 q 682 382 682 446 l 682 0 l 564 0 l 564 415 q 530 550 564 506 q 421 594 496 594 q 322 567 364 594 q 257 491 279 539 q 235 385 235 443 l 235 0 l 117 0 z "},"ṃ":{"ha":1243,"x_min":117,"x_max":1129,"o":"m 117 0 l 117 681 l 229 681 l 229 531 l 221 531 q 272 616 239 579 q 350 673 304 653 q 451 693 396 693 q 594 650 539 693 q 667 529 650 607 l 656 529 q 744 647 682 601 q 896 693 807 693 q 1025 663 974 693 q 1103 574 1076 633 q 1129 422 1129 514 l 1129 0 l 1013 0 l 1013 415 q 980 550 1013 506 q 868 594 947 594 q 769 567 811 594 q 704 493 726 540 q 682 382 682 446 l 682 0 l 564 0 l 564 415 q 530 550 564 506 q 421 594 496 594 q 322 567 364 594 q 257 491 279 539 q 235 385 235 443 l 235 0 l 117 0 m 557 -262 l 557 -136 l 688 -136 l 688 -262 l 557 -262 z "},"n":{"ha":828,"x_min":114,"x_max":717,"o":"m 114 0 l 114 681 l 226 681 l 226 531 l 219 531 q 317 651 250 610 q 468 693 383 693 q 606 664 551 693 q 689 574 661 635 q 717 422 717 514 l 717 0 l 599 0 l 599 415 q 583 514 599 474 q 532 574 567 554 q 442 594 497 594 q 332 567 379 594 q 258 493 285 540 q 232 385 232 446 l 232 0 l 114 0 z "},"ń":{"ha":828,"x_min":114,"x_max":717,"o":"m 114 0 l 114 681 l 226 681 l 226 531 l 219 531 q 317 651 250 610 q 468 693 383 693 q 606 664 551 693 q 689 574 661 635 q 717 422 717 514 l 717 0 l 599 0 l 599 415 q 583 514 599 474 q 532 574 567 554 q 442 594 497 594 q 332 567 379 594 q 258 493 285 540 q 232 385 232 446 l 232 0 l 114 0 m 375 771 l 519 1049 l 649 1049 l 464 771 l 375 771 z "},"ŉ":{"ha":847,"x_min":-12,"x_max":736,"o":"m 58 779 l 6 818 q 47 880 36 849 q 57 940 57 911 l 86 926 l -11 926 l -11 1050 l 131 1050 l 131 961 q 115 863 131 908 q 58 779 99 818 m 133 0 l 133 681 l 246 681 l 246 531 l 239 531 q 336 651 269 610 q 488 693 403 693 q 626 664 571 693 q 708 574 681 635 q 736 422 736 514 l 736 0 l 618 0 l 618 415 q 602 514 618 474 q 551 574 586 554 q 461 594 517 594 q 351 567 399 594 q 278 493 304 540 q 251 385 251 446 l 251 0 l 133 0 z "},"ň":{"ha":828,"x_min":114,"x_max":717,"o":"m 114 0 l 114 681 l 226 681 l 226 531 l 219 531 q 317 651 250 610 q 468 693 383 693 q 606 664 551 693 q 689 574 661 635 q 717 422 717 514 l 717 0 l 599 0 l 599 415 q 583 514 599 474 q 532 574 567 554 q 442 594 497 594 q 332 567 379 594 q 258 493 285 540 q 232 385 232 446 l 232 0 l 114 0 m 364 771 l 210 1049 l 296 1049 l 421 849 l 546 1049 l 632 1049 l 478 771 l 364 771 z "},"ņ":{"ha":828,"x_min":114,"x_max":717,"o":"m 114 0 l 114 681 l 226 681 l 226 531 l 219 531 q 317 651 250 610 q 468 693 383 693 q 606 664 551 693 q 689 574 661 635 q 717 422 717 514 l 717 0 l 599 0 l 599 415 q 583 514 599 474 q 532 574 567 554 q 442 594 497 594 q 332 567 379 594 q 258 493 285 540 q 232 385 232 446 l 232 0 l 114 0 m 410 -385 l 357 -347 q 401 -282 389 -314 q 413 -215 413 -250 l 439 -231 l 342 -231 l 342 -110 l 483 -110 l 483 -200 q 466 -301 483 -254 q 410 -385 449 -347 z "},"ṅ":{"ha":828,"x_min":114,"x_max":717,"o":"m 114 0 l 114 681 l 226 681 l 226 531 l 219 531 q 317 651 250 610 q 468 693 383 693 q 606 664 551 693 q 689 574 661 635 q 717 422 717 514 l 717 0 l 599 0 l 599 415 q 583 514 599 474 q 532 574 567 554 q 442 594 497 594 q 332 567 379 594 q 258 493 285 540 q 232 385 232 446 l 232 0 l 114 0 m 356 850 l 356 976 l 486 976 l 486 850 l 356 850 z "},"ṇ":{"ha":828,"x_min":114,"x_max":717,"o":"m 114 0 l 114 681 l 226 681 l 226 531 l 219 531 q 317 651 250 610 q 468 693 383 693 q 606 664 551 693 q 689 574 661 635 q 717 422 717 514 l 717 0 l 599 0 l 599 415 q 583 514 599 474 q 532 574 567 554 q 442 594 497 594 q 332 567 379 594 q 258 493 285 540 q 232 385 232 446 l 232 0 l 114 0 m 347 -262 l 347 -136 l 478 -136 l 478 -262 l 347 -262 z "},"ǌ":{"ha":1165,"x_min":114,"x_max":1071,"o":"m 114 0 l 114 681 l 226 681 l 226 531 l 219 531 q 317 651 250 610 q 468 693 383 693 q 606 664 551 693 q 689 574 661 635 q 717 422 717 514 l 717 0 l 599 0 l 599 415 q 583 514 599 474 q 532 574 567 554 q 442 594 497 594 q 332 567 379 594 q 258 493 285 540 q 232 385 232 446 l 232 0 l 114 0 m 926 847 l 926 979 l 1071 979 l 1071 847 l 926 847 m 757 -268 l 749 -174 l 811 -167 q 907 -124 874 -160 q 940 -17 940 -89 l 940 681 l 1058 681 l 1058 -8 q 1044 -113 1058 -68 q 1001 -190 1029 -158 q 928 -239 972 -221 q 822 -262 883 -257 l 757 -268 z "},"ṉ":{"ha":828,"x_min":114,"x_max":717,"o":"m 114 0 l 114 681 l 226 681 l 226 531 l 219 531 q 317 651 250 610 q 468 693 383 693 q 606 664 551 693 q 689 574 661 635 q 717 422 717 514 l 717 0 l 599 0 l 599 415 q 583 514 599 474 q 532 574 567 554 q 442 594 497 594 q 332 567 379 594 q 258 493 285 540 q 232 385 232 446 l 232 0 l 114 0 m 199 -222 l 199 -137 l 626 -137 l 626 -222 l 199 -222 z "},"ñ":{"ha":828,"x_min":114,"x_max":717,"o":"m 114 0 l 114 681 l 226 681 l 226 531 l 219 531 q 317 651 250 610 q 468 693 383 693 q 606 664 551 693 q 689 574 661 635 q 717 422 717 514 l 717 0 l 599 0 l 599 415 q 583 514 599 474 q 532 574 567 554 q 442 594 497 594 q 332 567 379 594 q 258 493 285 540 q 232 385 232 446 l 232 0 l 114 0 m 238 822 l 168 826 q 215 965 176 915 q 318 1015 254 1015 q 378 999 351 1015 q 435 957 404 983 q 481 922 463 933 q 519 911 500 911 q 576 939 556 911 q 604 1019 596 967 l 674 1015 q 627 876 667 925 q 525 826 588 826 q 466 842 493 826 q 406 885 439 857 q 361 919 379 907 q 322 931 343 931 q 267 903 288 931 q 238 822 246 875 z "},"ŋ":{"ha":828,"x_min":114,"x_max":717,"o":"m 415 -268 l 407 -174 l 469 -167 q 565 -124 532 -160 q 599 -17 599 -89 l 599 415 q 583 514 599 474 q 532 574 567 554 q 440 594 497 594 q 332 567 379 594 q 258 493 285 540 q 232 385 232 446 l 232 0 l 114 0 l 114 681 l 226 681 l 226 531 l 219 531 q 316 651 250 610 q 468 693 382 693 q 606 664 550 693 q 689 574 661 635 q 717 422 717 514 l 717 -8 q 702 -113 717 -68 q 658 -190 688 -158 q 585 -239 629 -221 q 481 -262 542 -257 l 415 -268 z "},"o":{"ha":808,"x_min":74,"x_max":735,"o":"m 404 -12 q 228 31 303 -12 q 114 154 154 75 q 74 342 74 233 q 114 527 74 449 q 228 649 154 606 q 404 693 303 693 q 580 649 506 693 q 694 527 654 606 q 735 342 735 449 q 694 154 735 233 q 580 31 654 75 q 404 -12 506 -12 m 404 85 q 560 153 503 85 q 617 342 617 221 q 560 529 617 463 q 404 596 503 596 q 249 529 306 596 q 192 342 192 463 q 249 153 192 221 q 404 85 307 85 z "},"ó":{"ha":808,"x_min":74,"x_max":735,"o":"m 404 -12 q 228 31 303 -12 q 114 154 154 75 q 74 342 74 233 q 114 527 74 449 q 228 649 154 606 q 404 693 303 693 q 580 649 506 693 q 694 527 654 606 q 735 342 735 449 q 694 154 735 233 q 580 31 654 75 q 404 -12 506 -12 m 404 85 q 560 153 503 85 q 617 342 617 221 q 560 529 617 463 q 404 596 503 596 q 249 529 306 596 q 192 342 192 463 q 249 153 192 221 q 404 85 307 85 m 358 771 l 503 1049 l 632 1049 l 447 771 l 358 771 z "},"ŏ":{"ha":808,"x_min":74,"x_max":735,"o":"m 404 -12 q 228 31 303 -12 q 114 154 154 75 q 74 342 74 233 q 114 527 74 449 q 228 649 154 606 q 404 693 303 693 q 580 649 506 693 q 694 527 654 606 q 735 342 735 449 q 694 154 735 233 q 580 31 654 75 q 404 -12 506 -12 m 404 85 q 560 153 503 85 q 617 342 617 221 q 560 529 617 463 q 404 596 503 596 q 249 529 306 596 q 192 342 192 463 q 249 153 192 221 q 404 85 307 85 m 404 767 q 292 799 340 767 q 217 892 244 832 q 186 1035 190 953 l 264 1042 q 305 900 269 950 q 404 850 340 850 q 503 900 468 850 q 544 1042 539 950 l 622 1035 q 592 892 619 953 q 517 799 565 832 q 404 767 469 767 z "},"ô":{"ha":808,"x_min":74,"x_max":735,"o":"m 404 -12 q 228 31 303 -12 q 114 154 154 75 q 74 342 74 233 q 114 527 74 449 q 228 649 154 606 q 404 693 303 693 q 580 649 506 693 q 694 527 654 606 q 735 342 735 449 q 694 154 735 233 q 580 31 654 75 q 404 -12 506 -12 m 404 85 q 560 153 503 85 q 617 342 617 221 q 560 529 617 463 q 404 596 503 596 q 249 529 306 596 q 192 342 192 463 q 249 153 192 221 q 404 85 307 85 m 193 774 l 347 1049 l 461 1049 l 615 774 l 529 774 l 404 969 l 279 774 l 193 774 z "},"ố":{"ha":808,"x_min":74,"x_max":768,"o":"m 404 -12 q 228 31 303 -12 q 114 154 154 75 q 74 342 74 233 q 114 527 74 449 q 228 649 154 606 q 404 693 303 693 q 580 649 506 693 q 694 527 654 606 q 735 342 735 449 q 694 154 735 233 q 580 31 654 75 q 404 -12 506 -12 m 404 85 q 560 153 503 85 q 617 342 617 221 q 560 529 617 463 q 404 596 503 596 q 249 529 306 596 q 192 342 192 463 q 249 153 192 221 q 404 85 307 85 m 192 775 l 347 1004 l 461 1004 l 617 775 l 531 775 l 404 929 l 276 775 l 192 775 m 539 925 l 654 1133 l 767 1133 l 615 925 l 539 925 z "},"ộ":{"ha":808,"x_min":74,"x_max":735,"o":"m 404 -12 q 228 31 303 -12 q 114 154 154 75 q 74 342 74 233 q 114 527 74 449 q 228 649 154 606 q 404 693 303 693 q 580 649 506 693 q 694 527 654 606 q 735 342 735 449 q 694 154 735 233 q 580 31 654 75 q 404 -12 506 -12 m 404 85 q 560 153 503 85 q 617 342 617 221 q 560 529 617 463 q 404 596 503 596 q 249 529 306 596 q 192 342 192 463 q 249 153 192 221 q 404 85 307 85 m 339 -265 l 339 -139 l 469 -139 l 469 -265 l 339 -265 m 193 774 l 347 1049 l 461 1049 l 615 774 l 529 774 l 404 969 l 279 774 l 193 774 z "},"ồ":{"ha":808,"x_min":74,"x_max":735,"o":"m 404 -12 q 228 31 303 -12 q 114 154 154 75 q 74 342 74 233 q 114 527 74 449 q 228 649 154 606 q 404 693 303 693 q 580 649 506 693 q 694 527 654 606 q 735 342 735 449 q 694 154 735 233 q 580 31 654 75 q 404 -12 506 -12 m 404 85 q 560 153 503 85 q 617 342 617 221 q 560 529 617 463 q 404 596 503 596 q 249 529 306 596 q 192 342 192 463 q 249 153 192 221 q 404 85 307 85 m 192 775 l 347 1004 l 461 1004 l 617 775 l 531 775 l 404 929 l 276 775 l 192 775 m 594 925 l 443 1133 l 557 1133 l 672 925 l 594 925 z "},"ổ":{"ha":808,"x_min":74,"x_max":735,"o":"m 404 -12 q 228 31 303 -12 q 114 154 154 75 q 74 342 74 233 q 114 527 74 449 q 228 649 154 606 q 404 693 303 693 q 580 649 506 693 q 694 527 654 606 q 735 342 735 449 q 694 154 735 233 q 580 31 654 75 q 404 -12 506 -12 m 404 85 q 560 153 503 85 q 617 342 617 221 q 560 529 617 463 q 404 596 503 596 q 249 529 306 596 q 192 342 192 463 q 249 153 192 221 q 404 85 307 85 m 192 775 l 347 1004 l 461 1004 l 617 775 l 531 775 l 404 929 l 276 775 l 192 775 m 549 926 q 560 973 549 956 q 589 1002 572 990 q 617 1025 606 1014 q 629 1051 629 1036 q 613 1073 629 1068 q 568 1078 597 1078 q 529 1074 550 1078 q 485 1063 508 1071 l 467 1118 q 522 1135 492 1129 q 592 1142 551 1142 q 686 1122 653 1142 q 719 1069 719 1103 q 705 1025 719 1042 q 672 995 690 1008 q 638 967 653 982 q 624 926 624 951 l 549 926 z "},"ỗ":{"ha":808,"x_min":74,"x_max":735,"o":"m 404 -12 q 228 31 303 -12 q 114 154 154 75 q 74 342 74 233 q 114 527 74 449 q 228 649 154 606 q 404 693 303 693 q 580 649 506 693 q 694 527 654 606 q 735 342 735 449 q 694 154 735 233 q 580 31 654 75 q 404 -12 506 -12 m 404 85 q 560 153 503 85 q 617 342 617 221 q 560 529 617 463 q 404 596 503 596 q 249 529 306 596 q 192 342 192 463 q 249 153 192 221 q 404 85 307 85 m 192 775 l 347 964 l 461 964 l 617 775 l 532 775 l 404 896 l 276 775 l 192 775 m 246 999 l 179 1003 q 200 1083 183 1051 q 245 1132 217 1115 q 313 1149 274 1149 q 365 1138 340 1149 q 418 1108 390 1126 q 461 1084 444 1092 q 493 1076 478 1076 q 540 1094 525 1076 q 563 1151 556 1111 l 629 1146 q 590 1038 624 1075 q 497 1001 556 1001 q 443 1013 468 1001 q 388 1044 418 1024 q 350 1065 367 1057 q 315 1074 333 1074 q 269 1056 286 1074 q 246 999 253 1039 z "},"ȍ":{"ha":808,"x_min":74,"x_max":735,"o":"m 404 -12 q 228 31 303 -12 q 114 154 154 75 q 74 342 74 233 q 114 527 74 449 q 228 649 154 606 q 404 693 303 693 q 580 649 506 693 q 694 527 654 606 q 735 342 735 449 q 694 154 735 233 q 580 31 654 75 q 404 -12 506 -12 m 404 85 q 560 153 503 85 q 617 342 617 221 q 560 529 617 463 q 404 596 503 596 q 249 529 306 596 q 192 342 192 463 q 249 153 192 221 q 404 85 307 85 m 463 771 l 346 1049 l 457 1049 l 531 771 l 463 771 m 281 771 l 164 1049 l 274 1049 l 349 771 l 281 771 z "},"ö":{"ha":808,"x_min":74,"x_max":735,"o":"m 404 -12 q 228 31 303 -12 q 114 154 154 75 q 74 342 74 233 q 114 527 74 449 q 228 649 154 606 q 404 693 303 693 q 580 649 506 693 q 694 527 654 606 q 735 342 735 449 q 694 154 735 233 q 580 31 654 75 q 404 -12 506 -12 m 404 85 q 560 153 503 85 q 617 342 617 221 q 560 529 617 463 q 404 596 503 596 q 249 529 306 596 q 192 342 192 463 q 249 153 192 221 q 404 85 307 85 m 468 849 l 468 975 l 596 975 l 596 849 l 468 849 m 213 849 l 213 975 l 340 975 l 340 849 l 213 849 z "},"ȫ":{"ha":808,"x_min":74,"x_max":735,"o":"m 404 -12 q 228 31 303 -12 q 114 154 154 75 q 74 342 74 233 q 114 527 74 449 q 228 649 154 606 q 404 693 303 693 q 580 649 506 693 q 694 527 654 606 q 735 342 735 449 q 694 154 735 233 q 580 31 654 75 q 404 -12 506 -12 m 404 85 q 560 153 503 85 q 617 342 617 221 q 560 529 617 463 q 404 596 503 596 q 249 529 306 596 q 192 342 192 463 q 249 153 192 221 q 404 85 307 85 m 190 992 l 190 1075 l 618 1075 l 618 992 l 190 992 m 214 808 l 214 915 l 342 915 l 342 808 l 214 808 m 467 808 l 467 915 l 594 915 l 594 808 l 467 808 z "},"ȱ":{"ha":808,"x_min":74,"x_max":735,"o":"m 404 -12 q 228 31 303 -12 q 114 154 154 75 q 74 342 74 233 q 114 527 74 449 q 228 649 154 606 q 404 693 303 693 q 580 649 506 693 q 694 527 654 606 q 735 342 735 449 q 694 154 735 233 q 580 31 654 75 q 404 -12 506 -12 m 404 85 q 560 153 503 85 q 617 342 617 221 q 560 529 617 463 q 404 596 503 596 q 249 529 306 596 q 192 342 192 463 q 249 153 192 221 q 404 85 307 85 m 194 994 l 194 1076 l 614 1076 l 614 994 l 194 994 m 340 808 l 340 917 l 468 917 l 468 808 l 340 808 z "},"ọ":{"ha":808,"x_min":74,"x_max":735,"o":"m 404 -12 q 228 31 303 -12 q 114 154 154 75 q 74 342 74 233 q 114 527 74 449 q 228 649 154 606 q 404 693 303 693 q 580 649 506 693 q 694 527 654 606 q 735 342 735 449 q 694 154 735 233 q 580 31 654 75 q 404 -12 506 -12 m 404 85 q 560 153 503 85 q 617 342 617 221 q 560 529 617 463 q 404 596 503 596 q 249 529 306 596 q 192 342 192 463 q 249 153 192 221 q 404 85 307 85 m 339 -265 l 339 -139 l 469 -139 l 469 -265 l 339 -265 z "},"ò":{"ha":808,"x_min":74,"x_max":735,"o":"m 404 -12 q 228 31 303 -12 q 114 154 154 75 q 74 342 74 233 q 114 527 74 449 q 228 649 154 606 q 404 693 303 693 q 580 649 506 693 q 694 527 654 606 q 735 342 735 449 q 694 154 735 233 q 580 31 654 75 q 404 -12 506 -12 m 404 85 q 560 153 503 85 q 617 342 617 221 q 560 529 617 463 q 404 596 503 596 q 249 529 306 596 q 192 342 192 463 q 249 153 192 221 q 404 85 307 85 m 361 772 l 178 1049 l 307 1049 l 450 772 l 361 772 z "},"ỏ":{"ha":808,"x_min":74,"x_max":735,"o":"m 404 -12 q 228 31 303 -12 q 114 154 154 75 q 74 342 74 233 q 114 527 74 449 q 228 649 154 606 q 404 693 303 693 q 580 649 506 693 q 694 527 654 606 q 735 342 735 449 q 694 154 735 233 q 580 31 654 75 q 404 -12 506 -12 m 404 85 q 560 153 503 85 q 617 342 617 221 q 560 529 617 463 q 404 596 503 596 q 249 529 306 596 q 192 342 192 463 q 249 153 192 221 q 404 85 307 85 m 363 772 l 363 800 q 376 853 363 832 q 406 888 389 874 q 435 917 422 903 q 449 953 449 932 q 433 982 449 972 q 385 992 418 992 q 343 987 364 992 q 297 969 322 982 l 276 1032 q 337 1056 303 1049 q 410 1064 371 1064 q 513 1039 476 1064 q 550 968 550 1014 q 535 911 550 932 q 499 875 519 890 q 462 841 478 860 q 446 793 446 822 l 446 772 l 363 772 z "},"ơ":{"ha":808,"x_min":74,"x_max":736,"o":"m 404 -12 q 228 31 303 -12 q 114 154 154 75 q 74 342 74 233 q 114 527 74 449 q 228 649 154 606 q 404 693 303 693 q 580 649 506 693 q 694 527 654 606 q 735 342 735 449 q 694 154 735 233 q 580 31 654 75 q 404 -12 506 -12 m 404 85 q 560 153 503 85 q 617 342 617 221 q 560 529 617 463 q 404 596 503 596 q 249 529 306 596 q 192 342 192 463 q 249 153 192 221 q 404 85 307 85 m 542 608 l 479 650 l 479 681 q 570 698 538 682 q 616 749 603 714 q 629 838 629 783 l 629 858 l 736 858 l 736 819 q 713 713 736 758 q 647 640 690 667 q 542 608 603 613 z "},"ớ":{"ha":808,"x_min":74,"x_max":736,"o":"m 404 -12 q 228 31 303 -12 q 114 154 154 75 q 74 342 74 233 q 114 527 74 449 q 228 649 154 606 q 404 693 303 693 q 580 649 506 693 q 694 527 654 606 q 735 342 735 449 q 694 154 735 233 q 580 31 654 75 q 404 -12 506 -12 m 404 85 q 560 153 503 85 q 617 342 617 221 q 560 529 617 463 q 404 596 503 596 q 249 529 306 596 q 192 342 192 463 q 249 153 192 221 q 404 85 307 85 m 542 608 l 479 650 l 479 681 q 570 698 538 682 q 616 749 603 714 q 629 838 629 783 l 629 858 l 736 858 l 736 819 q 713 713 736 758 q 647 640 690 667 q 542 608 603 613 m 350 771 l 494 1049 l 624 1049 l 439 771 l 350 771 z "},"ợ":{"ha":808,"x_min":74,"x_max":736,"o":"m 404 -12 q 228 31 303 -12 q 114 154 154 75 q 74 342 74 233 q 114 527 74 449 q 228 649 154 606 q 404 693 303 693 q 580 649 506 693 q 694 527 654 606 q 735 342 735 449 q 694 154 735 233 q 580 31 654 75 q 404 -12 506 -12 m 404 85 q 560 153 503 85 q 617 342 617 221 q 560 529 617 463 q 404 596 503 596 q 249 529 306 596 q 192 342 192 463 q 249 153 192 221 q 404 85 307 85 m 542 608 l 479 650 l 479 681 q 570 698 538 682 q 616 749 603 714 q 629 838 629 783 l 629 858 l 736 858 l 736 819 q 713 713 736 758 q 647 640 690 667 q 542 608 603 613 m 339 -262 l 339 -136 l 469 -136 l 469 -262 l 339 -262 z "},"ờ":{"ha":808,"x_min":74,"x_max":736,"o":"m 404 -12 q 228 31 303 -12 q 114 154 154 75 q 74 342 74 233 q 114 527 74 449 q 228 649 154 606 q 404 693 303 693 q 580 649 506 693 q 694 527 654 606 q 735 342 735 449 q 694 154 735 233 q 580 31 654 75 q 404 -12 506 -12 m 404 85 q 560 153 503 85 q 617 342 617 221 q 560 529 617 463 q 404 596 503 596 q 249 529 306 596 q 192 342 192 463 q 249 153 192 221 q 404 85 307 85 m 542 608 l 479 650 l 479 681 q 570 698 538 682 q 616 749 603 714 q 629 838 629 783 l 629 858 l 736 858 l 736 819 q 713 713 736 758 q 647 640 690 667 q 542 608 603 613 m 353 772 l 169 1049 l 299 1049 l 442 772 l 353 772 z "},"ở":{"ha":808,"x_min":74,"x_max":736,"o":"m 404 -12 q 228 31 303 -12 q 114 154 154 75 q 74 342 74 233 q 114 527 74 449 q 228 649 154 606 q 404 693 303 693 q 580 649 506 693 q 694 527 654 606 q 735 342 735 449 q 694 154 735 233 q 580 31 654 75 q 404 -12 506 -12 m 404 85 q 560 153 503 85 q 617 342 617 221 q 560 529 617 463 q 404 596 503 596 q 249 529 306 596 q 192 342 192 463 q 249 153 192 221 q 404 85 307 85 m 542 608 l 479 650 l 479 681 q 570 698 538 682 q 616 749 603 714 q 629 838 629 783 l 629 858 l 736 858 l 736 819 q 713 713 736 758 q 647 640 690 667 q 542 608 603 613 m 354 772 l 354 800 q 367 853 354 832 q 397 888 381 874 q 427 917 414 903 q 440 953 440 932 q 425 982 440 972 q 376 992 410 992 q 335 987 356 992 q 289 969 314 982 l 268 1032 q 328 1056 294 1049 q 401 1064 363 1064 q 505 1039 468 1064 q 542 968 542 1014 q 526 911 542 932 q 490 875 511 890 q 453 841 469 860 q 438 793 438 822 l 438 772 l 354 772 z "}}}
